<?xml version="1.0" standalone="yes"?>
<svg xmlns="http://www.w3.org/2000/svg" width="724" height="327">
<path style="fill:#131117; stroke:none;" d="M1 0L1 202C6.31916 186.299 2 162.597 2 146L2 46C2 32.2198 5.42346 13.0573 1 0z"/>
<path style="fill:#050509; stroke:none;" d="M26 43C33.3334 43 46.557 39.9996 50 48L55 46C48.8552 27.6313 32.4906 7 13 7C16.5642 4.02924 20.7656 2.78061 25 1C14.9078 -2.41895 -7.32344 0.0909424 2.82163 16.1785C10.28 28.0057 33.4099 23.4388 26 43z"/>
<path style="fill:#23070d; stroke:none;" d="M13 7C41.3981 7.00012 42.8519 39.2856 62 54L59 47C64.9377 49.5337 81.5988 58.9736 84 65C86.9122 63.8963 88.8249 62.7517 92 63C83.03 47.5049 64.5027 34.7564 52.0583 21.8824C45.9878 15.6023 38.5626 5.1774 30.6611 1.24057C25.5999 -1.28107 16.3576 3.07358 13 7z"/>
<path style="fill:#39111d; stroke:none;" d="M31 0C39.2371 14.0078 55.1307 25.804 66.6612 37.1395C79.0106 49.2798 91.5931 66.805 107 75C89.6695 51.7984 56.5272 13.5901 31 0z"/>
<path style="fill:#1f050b; stroke:none;" d="M33 0C45.6479 16.9326 79.9427 59.7051 102 60L99 65L107 63C101.971 68.7488 109.284 75.7706 115 79C115 70.8289 119.944 68.6027 123 63C125.573 58.2835 120.043 48.4357 123 44C125.126 40.8105 131.847 45.1526 134 43C136.924 40.0759 130.766 36.9364 131 36C124.97 36 105.642 31.7141 102.822 26.4985C100.149 21.5565 104.818 12.338 100.741 8.26068C96.0362 3.55579 93.1297 10.3567 93 14L91 14C90.2095 -8.67017 48.9141 0 33 0z"/>
<path style="fill:#25050d; stroke:none;" d="M91 14L93 14C93.7877 3.10593 109.038 7.4014 117 6.8645C137.703 5.46838 154.546 29 177 29C164.363 24.0348 179.782 22.4746 174.73 15.767C171.305 11.2202 158.05 4.67197 152.965 1.17838C143.531 -5.30469 114.48 0 103 0C99.4049 0 91.0422 -1.52768 88.2707 1.24896C85.6311 3.89352 90.7659 10.6531 91 14z"/>
<path style="fill:#23070d; stroke:none;" d="M177 28C160.138 34.1637 152.393 17.0685 138 14C138 18.6305 131.425 33.5058 131.851 34.2079C134.967 39.3465 163.699 41.3066 158.041 54.5575C156.438 58.3137 150.503 56.3231 147.501 57.5013C144.264 58.7709 145.232 63.269 141.716 64.4987C131.658 68.0169 121.47 61.4086 116 74C125.151 75.9843 137.604 86.2177 146.856 85.0679C150.288 84.6413 156.166 74.8755 160.523 73.163C164.631 71.5489 169.031 74.948 173.426 73.0964C188.898 66.5772 229.482 44.4708 226 79C242.723 58.0128 218.697 55.8469 204.795 44.7992C198.559 39.8439 200.211 33.3482 191 31C195.641 22.9176 178.484 2.14017 170.717 0.283905C167.948 -0.377777 152.148 -1.616 155.354 4.22745C158.929 10.7447 171.086 10.5328 174.671 16.4525C177.72 21.4878 163.605 27.5235 177 28z"/>
<path style="fill:#15070d; stroke:none;" d="M191 31C199.412 33.7812 198.561 39.6307 204.198 44.7992C213.098 52.9588 236.274 56.1913 232 72C235.147 68.8066 241.112 62.0773 238.376 57.1479C232.928 47.3301 211.594 38.0757 203.96 28.8555C198.095 21.7701 199.439 6.82724 193.748 1.25977C191.261 -1.17313 176.774 -1.38181 174.851 1.79224C171.923 6.6257 194.944 19.7485 191 31z"/>
<path style="fill:#0f070d; stroke:none;" d="M223 29C225.759 20.8546 221.511 14.7943 221 7C235.786 10.7766 243.304 37.3511 255.458 29.7592C260.321 26.7216 266.111 28.2666 266 21C270.132 23.918 273.167 28.5593 277 32C275.383 4.63593 241.786 0 222 0C217.538 0 194.685 -2.65875 195.317 3.88541C195.923 10.1559 211.399 11.9219 215.283 15.1454C217.734 17.1794 220.514 25.6044 223 29z"/>
<path style="fill:#310713; stroke:none;" d="M253 0C254.156 2.29221 255.36 4.0123 257 6C256.638 3.07401 255.246 1.88367 253 0z"/>
<path style="fill:#e14165; stroke:none;" d="M254 0C256.364 3.07965 258.573 5.16763 262 7C259.635 3.92029 257.427 1.8324 254 0z"/>
<path style="fill:#ff3363; stroke:none;" d="M256 0C261.162 5.25565 268.343 7.34677 274 12C272.887 1.82611 264.429 0.00131226 256 0z"/>
<path style="fill:#b73355; stroke:none;" d="M268.333 0.666656C268.278 0.72226 268.222 1.77774 268.667 1.33334C268.722 1.2778 268.778 0.222168 268.333 0.666656z"/>
<path style="fill:#252533; stroke:none;" d="M269 0C271.39 2.85089 273.295 5.69208 275 9C280.129 7.35965 283.887 5.20312 286 0L269 0z"/>
<path style="fill:#1d1d29; stroke:none;" d="M277 7C280.76 19.722 291.444 22.8924 303 22C296.604 14.4227 310.334 12.0294 315.499 14.8217C321.313 17.9649 315.673 26.4002 324 29C325.692 25.1746 330.792 25.5229 331.716 21.7111C334.55 10.0243 328.946 11.7531 321.586 7.71613C318.558 6.05566 318.599 1.69656 315.502 0.50058C300.463 -5.30728 289.329 5.3941 277 7z"/>
<path style="fill:#1f1d2b; stroke:none;" d="M319.271 1.24963C312.876 7.67532 329.857 9.05676 331.178 11.5015C333.532 15.856 330.184 22.0085 332.822 26.1783C334.854 29.391 340.668 27.3555 343.716 28.8217C348.265 31.01 349.309 45.945 358.957 37.7402C364.184 33.2957 356.741 28.6258 358.091 24.3797C360.063 18.1772 369.166 11.2873 363.178 1.82166C360.638 -2.19467 322.75 -2.24686 319.271 1.24963z"/>
<path style="fill:#1b1925; stroke:none;" d="M328 36C333.878 42.4969 337.228 49.3494 347 50C344.721 58.5221 358.999 65.2698 366 67C366.883 62.2699 371.568 62.1495 373.361 57.9722C375.807 52.2737 376.096 16.092 371 15C388.674 9.74472 379.969 -8.12698 365.822 0.821655C366.56 0.354492 357.534 25.9021 357.557 25.069C357.439 29.3558 363.147 32.7579 358.954 37.1785C354.901 41.4522 334.312 36 328 36z"/>
<path style="fill:#171521; stroke:none;" d="M383 0C382.546 6.7179 377.98 13.4991 371 14C376.93 20.8828 376.153 47.3986 373.315 55.9514C372.096 59.6227 365.778 62.6136 366.833 66.7117C368.231 72.138 381.191 77.9342 386 80C382.061 74.9127 377.664 58.9411 380.821 52.383C382.985 47.888 388.47 48.6957 388.93 42.9309C390.033 29.0988 385 14.666 385 0L383 0z"/>
<path style="fill:#17151f; stroke:none;" d="M389 80C388.433 77.3655 387.747 76.057 386 74C392.1 69.5656 391.991 47.9733 393 40L400 45C399.624 38.7211 399.471 32.2445 398.823 26C398.403 21.9515 394.399 -6.87952 386.259 1.26068C379.077 8.44269 387.936 26.6307 388.856 34.0665C390.303 45.7783 367.379 72.6853 389 80z"/>
<path style="fill:#070509; stroke:none;" d="M395.263 1.25977C391.221 5.36627 399.393 37.3188 403.763 41.197C407.314 44.3489 414.656 41.05 416.499 46.2841C420.43 57.456 413.476 71.5819 417.722 82.7159C419.196 86.5807 427.899 87.5819 430.74 84.7402C433.995 81.4852 432 70.301 432 66C432 45.3109 423.762 30.0053 415.527 11.8491C412.792 5.81924 403.175 -6.77844 395.263 1.25977z"/>
<path style="fill:#050507; stroke:none;" d="M505 96C500.289 95.4966 496.467 102.072 491.501 98.7294C487.332 95.9231 491.177 88.3521 486.499 86.5014C480.101 83.9711 471.836 87.1914 465.148 85.7161C449.363 82.2343 444.147 67.1525 439.501 53.7168C432.962 34.8103 449.734 27.9819 440.77 11.5096C439.062 8.37091 440.435 2.0459 436.501 0.501465C432.741 -0.974579 411.989 -1.95227 410.571 2.435C409.487 5.79071 414.977 11.3165 416.291 14.4416C420.447 24.3319 429.69 37.9642 431.716 47.1477C435.116 62.5611 426.707 82.8486 432.501 97.4986C434.377 102.239 441.786 98.2045 444.74 101.822C447.434 105.119 444.565 110.787 448.042 113.74C450.879 116.149 456.06 114.648 459.462 115.979C464.11 117.798 467.374 125.342 471.265 125.87C480.632 127.141 498.7 102.3 505 96z"/>
<path style="fill:#030307; stroke:none;" d="M440.267 1.25977C434.402 7.25821 446.083 16.1012 445.959 21.9925C445.829 28.2504 440.433 27.4753 439.284 32.2832C436.146 45.4117 442.242 50.8629 445.499 60.2832C447.263 65.3822 444.52 71.4885 446.501 76.4986C447.56 79.1742 470.263 88.217 473.74 84.7402C482.115 76.366 472.507 39.2443 467.178 30.8217C464.201 26.1152 455.692 31.7008 453.502 24.8522C450.264 14.7254 466.729 12.1771 460.178 1.82166C458.171 -1.35165 442.785 -1.31516 440.267 1.25977z"/>
<path style="fill:#030305; stroke:none;" d="M462.26 1.25977C459.255 4.26468 450.771 22.9047 454.26 27.1783C457.115 30.6768 462.878 27.5658 466.178 30.2598C472.748 35.6226 467.691 47.9253 480.729 34.7521C484.906 30.5328 469.539 23.9162 468.143 19.492C468.841 21.7047 479.759 -16.2389 462.26 1.25977z"/>
<path style="fill:#010103; stroke:none;" d="M476.26 1.25977C474.188 3.32489 466.874 17.5095 468.034 20.2309C469.378 23.3863 484.613 35.7477 485.84 34.6813C492.57 28.8299 498.666 21.292 495.172 11.508C493.491 6.80042 481.578 -4.04092 476.26 1.25977z"/>
<path style="fill:#010101; stroke:none;" d="M487 43L490 43C490 47.9991 491.515 55.9916 489.179 60.5248C487.302 64.1659 480.216 64.2135 481.545 69.6248C484.025 79.7162 497.265 68.431 503.178 73.2598C513.272 81.5022 496.315 93.771 495 100C514.571 95.7605 530.72 68.2084 546 56C546.477 59.5983 545.655 68.1355 548.26 70.7402C557.25 79.7291 585.422 69.5083 592.498 65.8182C595.826 64.0827 601.124 66.3829 603.74 63.1783C613.023 51.8064 601.905 41.3391 619 32C619.255 39.1624 631.866 42.6989 632.568 35.8638C633.131 30.3842 612.287 30.3151 616.404 23.7886C620.52 17.2654 635.095 17.101 641.5 14.5022C650.439 10.8756 650.912 4.00122 664 4C665.647 3.99985 680.4 4.80063 678.894 1.53757C676.567 -3.50687 641.825 0 636 0L529 0C519.476 0 496.882 -4.23364 488.825 0.818176C486.397 2.34067 487.415 5.39749 489.436 6.64471C501.093 13.8385 494.774 29.8257 484.502 35.1818C480.384 37.329 473.051 33.753 472.148 40.1477C470.431 52.3017 486.607 54.054 487 43z"/>
<path style="fill:#010103; stroke:none;" d="M697 4C698.568 9.80972 694.522 20.2289 700.07 23.5024C705.847 26.9111 726.369 9.76062 723.499 2.50146C721.885 -1.5788 682.938 -2.43253 681.106 1.53757C679.613 4.7735 695.156 4 697 4z"/>
<path style="fill:#4d1b31; stroke:none;" d="M269 1L273 7C272.984 3.83188 271.623 2.64032 269 1z"/>
<path style="fill:#c9375d; stroke:none;" d="M269 2L271 5L269 2z"/>
<path style="fill:#ff3d77; stroke:none;" d="M259 3C263.167 9.31464 269.676 17.8113 278 16C273.944 9.13409 266.086 6.01788 259 3z"/>
<path style="fill:#030101; stroke:none;" d="M619 32C613.474 34.0942 594.819 53.4619 608.284 56.7159C619.083 59.3256 643.422 50.6021 623 50L623 47C626.217 46.7759 647.422 41.7499 647.233 40.1584C646.67 35.4265 637.125 37.382 637.784 32.1355C638.592 25.7119 647.993 24.3076 648 14C652.543 16.622 660.941 24.0158 666.682 22.1111C673.014 20.0105 686.901 -1.73624 696 14C683.855 14.2606 670.13 37.7909 662.694 43.7222C658.615 46.9763 654.042 59.3213 648 57L644 68C657.548 68 679.837 45.0227 686.278 33.8889C688.266 30.4522 683.128 25.0134 686.333 22.7222C687.407 21.9549 700.95 36.4684 704.639 27.6945C705.615 25.3727 697.902 22.2283 696.722 19.8889C696.113 18.6806 697.408 6.92776 697 4C683.807 4 665.079 0.565277 652.538 4.67395C646.463 6.66412 645.336 12.8211 640.719 14.5022C635.695 16.3318 617.199 18.0695 615.649 24.4306C613.897 31.6188 636.33 30.9498 631.67 37.2079C627.236 43.1638 619.395 37.4582 619 32z"/>
<path style="fill:#510d1d; stroke:none;" d="M258 5L260 8L258 5z"/>
<path style="fill:#cf3765; stroke:none;" d="M271 5L274 10C273.724 7.52087 272.851 6.70816 271 5z"/>
<path style="fill:#21050d; stroke:none;" d="M120 6.44583C116.031 6.84351 106.185 5.33478 103.26 8.25977C89.7023 21.8172 116.751 37.2814 126.852 35.8522C145.196 33.2568 137.669 4.67569 120 6.44583z"/>
<path style="fill:#11050b; stroke:none;" d="M195 7C198.412 21.0241 205.953 33.085 216.02 41.8848C224.068 48.9204 239.582 53.4941 238 65C250.166 48.2403 234.013 52.7078 229.691 45.3925C228.002 42.5323 232.082 35.5171 230.499 31.5013C229.256 28.3491 221.974 27.1747 219.247 24.4514C211.893 17.1085 209.221 7.4939 195 7z"/>
<path style="fill:#0d050d; stroke:none;" d="M221 7C221.363 17.9256 227.692 24.1333 230.499 32.2831C231.928 36.4306 227.653 42.3929 229.076 45.3925C233.252 54.1974 243.306 43.6017 241 61C245.641 56.1282 273.939 23.3003 266 21C265.745 28.3678 259.545 26.4124 254.792 29.7591C244.548 36.973 234.303 9.29938 221 7z"/>
<path style="fill:#cb3561; stroke:none;" d="M260 7C261.635 8.84442 262.837 9.82718 265 11C263.365 9.15561 262.163 8.17282 260 7z"/>
<path style="fill:#39030f; stroke:none;" d="M260 8L263 13C262.724 10.5209 261.851 9.70816 260 8z"/>
<path style="fill:#3d152b; stroke:none;" d="M275 9C277.765 13.2209 280.53 16.5733 285 19C282.125 15.0574 279.235 11.4871 275 9z"/>
<path style="fill:#050101; stroke:none;" d="M648 14C647.976 25.177 639.955 23.8763 637.57 31.4281C635.676 37.4273 646.14 35.4426 646.717 40.1584C646.887 41.5454 626.077 46.6088 623 47L623 50C631.361 50.4828 634.643 59.3109 643.618 56.5391C651.866 53.9914 669.666 40.8857 675.8 34.2004C682.347 27.0664 684.828 16.4042 696 14C692.412 -3.76993 667.047 22.0122 665 22.1111C658.609 22.4199 653.692 15.2136 648 14z"/>
<path style="fill:#bf3763; stroke:none;" d="M275 10L277 14C276.855 11.9885 276.409 11.5189 275 10z"/>
<path style="fill:#7f0f29; stroke:none;" d="M264 11C266.409 15.5168 269.483 18.5911 274 21C271.089 17.1073 267.893 13.911 264 11z"/>
<path style="fill:#ef3f6d; stroke:none;" d="M265 11C267.612 14.454 270.17 16.9575 274 19C271.388 15.5461 268.83 13.0425 265 11z"/>
<path style="fill:#050507; stroke:none;" d="M691 54C697.656 51.7412 698.5 51.5515 705 54C703.874 48.7863 702.169 31.3141 709.118 29.5714C719.078 27.0739 712.15 49.3587 721.971 49.0072C725.555 48.8789 725.025 17.5804 722.393 14.391C713.454 3.55737 691.896 46.3227 691 54z"/>
<path style="fill:#4b0b17; stroke:none;" d="M264 13C266.13 17.5896 268.978 20.8121 274 22C270.876 18.7209 267.635 15.7035 264 13z"/>
<path style="fill:#dd3563; stroke:none;" d="M278 14C284.31 25.8516 297.551 35.5508 307 45C305.621 34.9371 285.95 19.9386 278 14z"/>
<path style="fill:#1d1b27; stroke:none;" d="M303 21L295 23C300.578 30.99 340.661 57.9573 347 50C337.421 48.8484 335.292 41.0126 328 37C331.364 36.1488 334.533 36.0203 337.999 35.9998C360.854 35.8647 327.031 17.7321 324 29C315.365 26.1219 321.635 16.8434 316.667 14.3333C310.229 11.0806 293.705 19.0083 303 21z"/>
<path style="fill:#fd335b; stroke:none;" d="M274 17C279.641 27.6354 297.741 48.9555 309 53C308.617 41.8683 285.59 16.016 274 17z"/>
<path style="fill:#07050b; stroke:none;" d="M3.2596 19.2599C-11.6278 34.147 10.65 56.8573 27.2533 40.2537C34.7526 32.7542 9.11403 13.4057 3.2596 19.2599z"/>
<path style="fill:#e9335d; stroke:none;" d="M273 19C275.616 22.5273 278.301 25.6041 282 28C279.784 23.8568 277.143 21.2165 273 19z"/>
<path style="fill:#4f1d31; stroke:none;" d="M284 19C290.852 28.1728 299.914 35.9143 308 44C306.834 35.4888 291.309 22.8914 284 19z"/>
<path style="fill:#291f2d; stroke:none;" d="M286 19C300.338 38.1947 320.05 55.992 337 73C337.322 70.1951 336.635 67.7482 336 65C332.355 64.3476 330.874 63.1831 329 60C342.516 62.1939 356.073 74.4446 368.997 79.4348C372.555 80.8084 375.43 86.8223 379.657 84.7484C390.399 79.4779 367.986 68.6286 363.941 66.5185C337.103 52.5203 313.226 32.2365 286 19z"/>
<path style="fill:#650d1d; stroke:none;" d="M274 21C275.403 23.7 276.965 25.7269 279 28C278.556 24.6407 276.602 23.0686 274 21z"/>
<path style="fill:#3d0913; stroke:none;" d="M270 22C289.88 46.8857 301.552 77.0298 312.028 107C313.282 110.589 322.107 133.429 326.056 128.639C329.959 123.904 323.756 113.865 322.472 109C319.025 95.9385 307.228 71.4331 313 59C297.25 50.6148 287.822 25.9456 270 22z"/>
<path style="fill:#010101; stroke:none;" d="M703 29C698.953 28.9974 687.301 22.5719 686.762 22.8841C683.845 24.5726 686.796 30.7828 685.267 33.6649C682.055 39.7207 659.26 57.426 662.833 63.1894C664.756 66.2916 671.934 64.9732 674.997 65.0669C687.295 65.4432 699.66 39.7645 703 29z"/>
<path style="fill:#070509; stroke:none;" d="M252 46C254.266 47.6763 256.515 56.1754 258 56.1754C259.303 56.1754 262.89 32.3493 272.85 44.7173C292.104 68.6238 245.785 85.7863 229 82C230.616 85.9811 229.471 97.0588 232.822 99.1783C239.27 103.257 253.602 95.5269 258.74 101.822C269.536 115.047 243.181 114.157 246.851 120.208C252.591 129.672 272.008 118.159 276.498 115.818C279.753 114.121 285.033 116.447 287.74 113.74C290.201 111.279 288.445 106.335 289.501 103.283C290.652 99.9538 294.877 100.231 295.716 96.7168C297.79 88.0248 289 75.4692 289 64L293 65C292.928 57.2849 280.628 23.301 269.137 26.2607C262.014 28.0954 257.902 42.0722 252 46z"/>
<path style="fill:#610d17; stroke:none;" d="M281 28L283 32C282.855 29.9885 282.409 29.5189 281 28z"/>
<path style="fill:#070509; stroke:none;" d="M710 105C713.441 96.8875 711.44 88.4529 713.802 80.3211C717.239 68.4902 726.993 69.0543 723.727 53.2545C722.563 47.6223 712.313 25.7832 706.821 30.2607C698.247 37.2493 712.17 43.7744 712.852 49.0296C715.193 67.0546 710 86.3663 710 105z"/>
<path style="fill:#cd2949; stroke:none;" d="M284 31C285.635 32.8445 286.837 33.8271 289 35C287.365 33.1556 286.163 32.1728 284 31z"/>
<path style="fill:#15131d; stroke:none;" d="M399 32L400 45C397.781 42.8837 395.867 41.1227 393 40C391.293 49.3092 392.261 67.4085 386 74C387.736 76.8471 388.082 78.3006 386 81C395.185 85.3502 402.763 93.162 413 95C411.306 77.8154 407.76 46.8249 399 32z"/>
<path style="fill:#5f0d1b; stroke:none;" d="M288 35L291 40C290.724 37.5209 289.851 36.7081 288 35z"/>
<path style="fill:#e52f4f; stroke:none;" d="M289 35C290.54 37.1412 291.814 38.5409 294 40C292.563 37.5248 291.475 36.4369 289 35z"/>
<path style="fill:#21050d; stroke:none;" d="M130 37C131.284 37.9222 134.104 39.457 132.825 41.4545C130.853 44.5338 125.47 41.4075 123.603 44.6034C120.734 49.5167 120.062 62.0867 118 68C130.78 65.3448 137.988 62.8919 147.501 57.8207C150.433 56.2573 156.209 58.4218 158.15 55.2045C165.05 43.7656 136.823 35.2734 130 37z"/>
<path style="fill:#610b1d; stroke:none;" d="M293 40C294.403 42.7 295.965 44.7269 298 47C297.556 43.6407 295.602 42.0686 293 40z"/>
<path style="fill:#e53355; stroke:none;" d="M294 40C295.838 42.5525 297.747 44.8051 300 47C299.285 43.3827 297.138 41.7472 294 40z"/>
<path style="fill:#07070b; stroke:none;" d="M402 41C403.47 56.0612 405.857 86.4742 415.394 98.5424C421.499 106.267 435.753 110.707 444.096 115.969C451.227 120.466 465.191 134.712 473 127C467.793 124.184 466.588 118.92 460.989 116.331C457.143 114.553 451.067 116.325 448.042 113.178C444.922 109.933 447.702 104.22 444.74 101.26C441.787 98.3082 436.084 101.638 433.26 98.1783C430.787 95.1492 433.497 90.017 430.74 87.2598C427.527 84.0464 421.446 87.7909 418.501 83.4986C411.956 73.9555 423.644 52.1645 415.74 44.2598C413.212 41.7311 405.543 42.3875 402 41M105 196C100.486 186.752 85.4727 188.398 88 179C75.6249 179 70.1961 176.035 73.2841 162.148C74.8676 155.026 84.3045 161.046 86.4985 155.499C93.3716 138.122 80.1988 124.74 73.8182 112.502C72.1249 109.254 74.1331 104.912 72.1784 101.822C69.7451 97.975 63.1485 101.717 60.2598 98.1783C55.0226 91.7627 54.6224 80.8456 50.1783 73.8217C47.9273 70.2639 41.8723 73.2305 38.8217 70.7402C35.6438 68.1461 37.8044 62.8752 36.4994 59.498C32.7391 49.7663 23.9512 56.2998 30 43C26.7953 43 -9.28721 47.8894 3.82167 56.1784C10.0198 60.0976 25.3594 52.2854 29.1774 60.2839C33.3064 68.9337 23.9149 80.2621 30.8217 91.1783C33.2554 95.0249 39.8515 91.2827 42.7402 94.8217C46.6776 99.6453 41.7234 108.013 44.8182 113.189C46.4979 115.999 50.397 125.878 52.2598 127.74C57.5893 133.07 68.4367 125.647 65.7152 138.93C64.8896 142.96 60.78 143.126 59.5005 146.49C58.3545 149.504 59.9148 153.514 57.7402 156.178C54.8874 159.673 49.258 156.648 45.8217 158.822C40.8558 161.963 45.4188 178.157 32.5015 171.178C28.3355 168.928 31.2869 163.154 29.1783 159.822C26.9325 156.272 7.19333 156.689 3.82165 158.822C-0.362059 161.468 0.071218 199.853 4.50146 201.48C13.1082 204.64 29.8963 200.268 39 199.32C60.5165 197.08 83.3673 196.001 105 196z"/>
<path style="fill:#07050b; stroke:none;" d="M88 179C83.2641 195.159 106.209 179.875 108.285 172.001C111.112 161.272 99.3798 168.759 98.4653 161.91C96.8766 150.011 104.304 132.369 101.853 118.144C101.042 113.437 95.4795 109.662 94.1975 104.813C93.3991 101.793 95.877 101.453 98 102C89.5647 86.3145 75.9359 72.934 65.5794 58.4971C61.748 53.156 57.2018 45.1036 50 48C47.4639 39.5216 23.8482 41.2589 25.9828 50.8486C25.8861 50.4142 40.1543 72.0215 38.8217 71.1783C42.0104 73.1959 47.0889 70.5737 49.7402 73.8217C54.9774 80.2373 55.3776 91.1544 59.8217 98.1783C62.2554 102.025 68.8515 98.2827 71.7402 101.822C74.321 104.983 71.8089 109.829 73.8182 113.189C77.0531 118.599 86.0011 127.73 86.8522 134.07C87.5077 138.953 88.983 152.206 85.7402 156.178C82.3268 160.36 74.1411 155.178 73.1479 162.148C71.0961 176.546 74.5964 179 88 179z"/>
<path style="fill:#050507; stroke:none;" d="M261.26 44.2598C258.719 46.8005 261.761 53.5293 258.462 55.2388C255.918 56.5575 256.595 47.4168 252.853 47.7669C246.113 48.3977 229.582 73.3423 229.959 79.8522C230.211 84.2001 239.115 83.2535 241.882 82.7269C249.396 81.2967 267.936 75.5443 272.74 70.7402C278.496 64.9839 273.821 31.6987 261.26 44.2598z"/>
<path style="fill:#030305; stroke:none;" d="M487 43C486.316 52.4559 479.289 46.3391 475.822 51.8217C472.766 56.6535 473.404 78.1967 475.501 83.4986C477.251 87.9207 484.034 84.6929 487.178 87.2598C490.567 90.0258 487.054 97.1816 491.373 99.0307C500.446 102.915 506.087 81.0294 504.715 75.2841C502.445 65.7746 486.434 78.7918 482.211 70.3413C479.511 64.9377 488.076 64.2896 489.499 60.5248C491.355 55.6116 490 48.2111 490 43L487 43z"/>
<path style="fill:#0b070b; stroke:none;" d="M705 54C687.163 44.2671 672.373 78.0231 667 92C684.139 94.7321 711.996 43.8918 712 72C713.791 66.7121 715.449 49.3707 711.744 44.8251C705.371 37.0069 703.648 49.9693 705 54z"/>
<path style="fill:#c32b4f; stroke:none;" d="M308 44C308.624 47.7918 308.701 50.5084 307 54C309.065 55.4121 310.627 56.25 313 57C312.966 51.379 312.411 47.7859 308 44z"/>
<path style="fill:#3f1d31; stroke:none;" d="M309 44C311.992 48.0059 315.471 51.4657 319 55C318.29 49.8204 313.366 46.3257 309 44z"/>
<path style="fill:#250711; stroke:none;" d="M59 47C67.0009 67.1738 85.1431 84.9585 98.2467 102.078C103.382 108.787 106.618 117.682 116 118L114 111L112 115C111.378 112.605 111.098 110.474 111 108C106.645 107.249 106.096 102.574 102 101C111.878 94.4989 101.415 85.2154 98.7222 80.8889C90.5841 67.8152 84.5645 63.2254 70.2222 56.3055C64.8007 53.6898 65.3209 47.8001 59 47z"/>
<path style="fill:#630915; stroke:none;" d="M300 47C302.781 52.2238 306.776 56.2186 312 59C308.555 54.3887 304.611 50.4448 300 47z"/>
<path style="fill:#070103; stroke:none;" d="M587 79C603.581 79 644.548 76.6641 648 57C649.186 58.1864 649.584 58.5279 651 59C652.371 56.0567 656.493 50.151 659 48C649.377 44.7932 649.53 55.2672 641.878 56.7345C617.544 61.4012 596.754 52.5507 587 79z"/>
<path style="fill:#832d4f; stroke:none;" d="M313 49C314.528 52.7308 315.787 56.4742 319 59C317.901 54.7739 316.254 51.9202 313 49z"/>
<path style="fill:#ad2f47; stroke:none;" d="M313 51C312.566 56.1335 311.473 59.7736 317 62L313 51z"/>
<path style="fill:#992b51; stroke:none;" d="M314 52L314 58L316 58C315.729 55.5145 315.355 54.0878 314 52z"/>
<path style="fill:#712945; stroke:none;" d="M317 53C318.465 58.5573 319.962 63.0696 323 68C324.911 62.0103 321.377 56.8875 317 53z"/>
<path style="fill:#030303; stroke:none;" d="M545 56L533 66L536 66C527.158 77.7912 511.805 86.248 506 100C533.364 100 554.103 101.032 573.23 80.7921C575.167 78.7431 591.713 79.6169 588.92 73.604C586.1 67.5302 556.625 73.7302 550.284 71.4986C545.326 69.7535 547.155 60.1748 545 56z"/>
<path style="fill:#09070d; stroke:none;" d="M2 133C2 137.769 -0.57569 154.397 3.82165 157.178C10.2747 161.26 20.753 155.174 27.4985 158.822C34.0684 162.374 27.2207 177.145 41.4985 171.499C46.2398 169.624 42.2035 162.213 45.8217 159.26C48.9928 156.671 53.8645 159.275 57.1783 157.178C59.8767 155.471 66.3733 136.842 65.852 133.148C64.8241 125.862 55.8271 131.548 52.2598 127.178C45.0642 118.364 48.7864 103.688 43.1783 94.8217C40.5919 90.7327 33.3391 95.1526 30.8217 90.4986C22.7806 75.6328 37.2013 44.5669 4.50146 57.5015C0.366062 59.1372 0.430007 78.7707 3.25647 81.7511C6.20951 84.8649 12.0409 83.896 14.2045 88.4728C17.8336 96.1499 15.5307 109.379 19.8217 116.179C22.1107 119.806 27.8421 117.032 29.4985 122.148C31.0881 127.057 31.9018 141.563 25.8522 143.498C18.7896 145.756 9.24634 135.672 2 133z"/>
<path style="fill:#25070f; stroke:none;" d="M115 74L115 79C109.975 74.8697 103.172 69.1396 107 63C104.231 63.4297 101.674 64.1605 99 65L102 60C98.0977 59.8886 94.7471 58.9753 91 58C105.04 76.796 129.191 102.888 150 114C150.866 107.543 157.576 104.416 158.745 97.7857C159.542 93.2669 155.06 84.0282 157.326 80.7769C159.137 78.1791 170.322 73.9809 172.464 77.3866C174.442 80.5316 169.067 79.3256 168 79C168.14 82.9295 169.337 87.4417 174.51 85.4875C178.285 84.0614 176.584 77.9853 180.243 75.6882C193.153 67.583 213.394 67.1013 227 68C218.3 46.1437 184.984 68.3898 172.655 73.1582C168.247 74.8631 163.853 70.9268 159.765 72.9892C155.972 74.9024 149.904 84.1339 146.9 84.6674C137.598 86.3192 124.698 75.2664 115 74z"/>
<path style="fill:#61293f; stroke:none;" d="M321 57C323.696 63.6926 324.963 69.5853 330 75C330.015 67.3306 326.948 61.6173 321 57z"/>
<path style="fill:#030303; stroke:none;" d="M631 84L641 76C636.1 82.3196 629.053 87.0639 625 94C628.14 92.4564 630.037 90.8981 632 88C633.066 96.0485 622.659 98.367 617.322 101.682C605.399 109.087 596.123 122.62 585.942 132.184C583.211 134.749 575.68 140.056 576.322 144.395C577.252 150.682 604.286 129.963 606.77 127.751C617.279 118.392 631.641 112.836 644.283 108.501C648.379 107.097 653.561 109.856 657.198 107.1C667.356 99.405 675.873 77.2703 682 66C673.721 64.2235 662.394 68.2692 662 57C651.753 60.4614 631.822 72.279 631 84z"/>
<path style="fill:#8f2b3d; stroke:none;" d="M316 58C316.123 60.2785 316.326 61.2322 315 63C318.157 65.8204 321.164 68.1921 325 70C322.42 65.656 319.607 61.5497 316 58z"/>
<path style="fill:#0f090d; stroke:none;" d="M653 116C663.629 115.62 672.727 100.703 684 101C690.398 86.1157 720.37 84.1256 711.499 61.5023C709.892 57.4023 696.242 70.7113 692.811 72.8182C689.697 74.7307 689.767 80.2125 686.694 82.7531C672.558 94.438 660.1 96.2153 653 116z"/>
<path style="fill:#271d2d; stroke:none;" d="M329 60C330.438 63.7499 331.961 64.975 336 65C339.508 85.146 352.039 97.0391 366 111C369.55 106.778 360.659 93.1533 361 86C362.923 88.2136 363.967 90.2533 365 93C371.323 90.933 373.953 97.1087 378.724 96.2348C381.503 95.7256 381.223 91.3824 384.243 90.6188C386.574 90.0293 391.685 92.9982 393.05 90.1531C394.998 86.0917 389.9 81.5106 386.225 81.2509C382.729 81.0038 380.633 85.2223 377.255 84.6999C360.762 82.149 346.388 61.6425 329 60z"/>
<path style="fill:#21050d; stroke:none;" d="M84 68C94.9694 68.1676 113.162 90.7814 102 100C105.021 102.899 106.638 107.797 111 108L111 115C112.483 113.637 112.637 113.027 113 111L116 118L110 118C119.399 132.45 129.658 146.876 140.106 160.354C142.011 162.812 148.215 173.273 151.75 172.678C157.189 171.762 162.074 158.122 160.506 153.472C158.217 146.683 150.667 146.237 147.763 141.499C139.67 128.298 147.574 113.715 130 105C125.41 110.323 120.617 100.881 130 101C125.45 92.4539 90.2788 51.9827 84 68z"/>
<path style="fill:#070709; stroke:none;" d="M293 61C292.258 63.6469 291.747 63.8737 289 64C289 69.7248 287.428 78.126 289.501 83.502C291.578 88.8913 297.472 87.7455 295.715 95.8525C294.884 99.6898 290.742 99.2783 289.501 102.498C288.198 105.875 290.355 111.147 287.178 113.74C284.017 116.321 279.171 113.809 275.811 115.818C270.933 118.735 253.918 129.057 247.33 120.208C243.992 115.724 270.64 113.159 258.74 101.26C255.895 98.4146 234.021 98.3456 231.822 101.822C229.648 105.258 232.673 110.888 229.178 113.74C220.849 120.539 217.013 110.202 217 104C210.376 106.562 205.58 122.281 211.15 127.85C216.106 132.807 244.293 123.718 245.372 132.115C245.507 133.168 228.036 141.993 225.145 145.135C222.575 147.93 220.442 184.644 221.531 188.186C222.807 192.341 229.427 197.136 233 199.293C235.102 200.562 238.745 201.783 240.865 199.854C255.412 186.614 269.43 190.895 286.588 184.588C289.467 183.529 289.102 179.537 288.957 177.041C288.509 169.279 281.187 173.758 276.412 171.283C271.352 168.659 276.999 159.548 270.784 158.216C260.354 155.981 255.976 181.243 247.15 170.283C240.868 162.483 250.932 153.1 255.963 149.462C260.789 145.973 261.891 140.449 265.703 137.134C274.19 129.754 287.699 128.335 293 118C295.328 122.948 300.879 126.792 302.667 131.111C303.887 134.059 301.066 142.016 304.333 143.667C309.051 146.05 315.891 142.139 320.694 144.694C325.62 147.315 327.099 155.164 331 156C328.812 141.835 320.996 130.145 316.018 117C309.358 99.4147 304.395 76.124 293 61z"/>
<path style="fill:#290917; stroke:none;" d="M310 61C315.625 91.1994 327.438 120.293 335.44 150C337.534 157.774 341.265 176.62 349 180C337.734 152.172 336.427 120.699 324.372 93.8048C320.623 85.4404 323.82 75.3842 316 69C318.686 69.2243 320.54 69.871 323 71C320.058 65.9916 315.724 62.2667 310 61z"/>
<path style="fill:#43233f; stroke:none;" d="M328 64C329.141 73.8097 334.154 80.1358 342 86C341.938 75.7653 335.942 69.9327 328 64z"/>
<path style="fill:#29070f; stroke:none;" d="M203 84C198.667 83.1347 176.307 96.4023 180.814 99.1708C187.518 103.289 213.238 72.1857 216 92C222.411 84.7044 226.539 77.627 228 68C211.309 66.9159 198.223 63.6053 203 84z"/>
<path style="fill:#070303; stroke:none;" d="M623 83C619.097 95.874 601.25 103.443 598 116C607.55 111.164 613.513 101.342 622 95L619 100C625.44 99.7714 632.498 94.7005 633 88L625 94C629.971 87.8285 637.138 82.9443 641 76C637.162 78.0894 634.154 80.9948 631 84C631.945 76.6904 638.414 71.7886 641 65C631.649 67.1087 622.833 76.9557 614.852 78.7161C598.545 82.313 583.305 74.6807 570.19 84.7521C566.763 87.384 551.556 91.0419 551.568 96.9991C551.58 102.985 566.866 97.0309 570.001 97.0034C585.794 96.865 588.323 90.6366 600.283 86.5005C607.412 84.0353 615.518 85.5225 623 83z"/>
<path style="fill:#130b0d; stroke:none;" d="M487 116C502.51 102.669 526.343 84.021 536 66C521.573 73.6809 492.402 100.798 487 116z"/>
<path style="fill:#190913; stroke:none;" d="M316 68C332.626 92.818 327.232 128.842 341.105 154.516C343.898 159.684 345.767 187.302 357.109 179.373C360.747 176.829 344.586 157.95 353 151C352.481 145.924 354.853 140.955 356 136C339.038 128.813 339.872 104.9 338 90C330.295 89.4436 331.007 83.476 339 87C333.274 79.2069 325.748 70.2854 316 68z"/>
<path style="fill:#070507; stroke:none;" d="M233 70C217.732 87.4767 193.283 110.726 186 133L192 133C190.936 124.703 197.269 115.744 206 115C205.834 112.188 205.459 110.407 204 108C209.171 106.886 212.283 106.815 217 104C217.004 110.086 226.208 123.345 230.499 112.499C234.226 103.074 229.268 90.4213 229.849 80.9417C230.106 76.7384 233.865 74.4617 233 70z"/>
<path style="fill:#77273f; stroke:none;" d="M323 70C329.028 77.2036 335.855 85.2098 344 90C339.936 82.3662 331.252 72.9326 323 70z"/>
<path style="fill:#27050f; stroke:none;" d="M168 79C170.363 80.3344 176.894 81.1492 173.278 76.3333C171.231 73.6078 158.747 77.6508 156.722 79.7222C153.943 82.566 159.827 93.3398 158.889 97.9722C157.768 103.508 150.99 106.358 150 111C168.041 110.962 177.346 98.2708 191.527 91.191C196.648 88.6344 195.975 83.2705 203 84C198.717 53.2996 169.133 94.6741 168 79z"/>
<path style="fill:#070709; stroke:none;" d="M717.013 73.2557C710.987 77.9867 713.521 89.4999 712.299 96C708.5 116.212 700.384 148.438 705.284 168.716C706.311 172.967 715.064 173.148 718.178 171.178C722.264 168.594 719.288 158.377 720.472 154.255C726.169 134.412 724 112.137 724 91C724 87.5484 725.854 66.3151 717.013 73.2557z"/>
<path style="fill:#4f1321; stroke:none;" d="M106 75C121.802 96.1558 151.746 130.62 175 143C160.335 121.913 128.63 87.0481 106 75z"/>
<path style="fill:#13090f; stroke:none;" d="M708 81C702.623 89.7943 687.193 89.33 684 101C668.989 101.109 646.458 121.814 645 138C649.449 136.292 650.684 133.626 651 129C661.358 132.576 708.207 77.3554 709 109C711.807 100.715 710 89.7076 710 81L708 81z"/>
<path style="fill:#09090d; stroke:none;" d="M3.25647 84.2632C-1.31412 88.8254 -0.0281265 126.426 3.04563 132.172C5.19114 136.182 9.14198 134.978 12.5053 136.817C17.0622 139.309 20.3966 149.092 28.1783 142.74C41.3593 131.981 21.1099 119.287 19.5015 114.716C16.6256 106.543 17.4616 96.7976 14.5087 88.4728C13.3332 85.1589 6.26895 81.2563 3.25647 84.2632z"/>
<path style="fill:#130b11; stroke:none;" d="M338 90C337.322 102.601 340.242 131.801 356 136C354.571 140.964 352.005 145.844 353 151C339.082 153.982 362.997 183.07 369 186C368.563 180.873 364.674 174.507 371 172C368.618 163.567 354.227 147.691 357.963 138.55C358.968 136.089 362.813 136.316 364.299 133.765C367.031 129.074 369.223 123.801 375 123C367.545 111.475 354.912 101.924 345.255 92.1574C342.863 89.7379 336.84 83.2585 332.832 84.8453C327.277 87.0444 336.349 89.9413 338 90z"/>
<path style="fill:#090305; stroke:none;" d="M561 97L561 100C575.092 100 583.618 100.693 595 108C596.027 106.489 606.664 97.6473 604.894 102.698C600.398 115.528 582.839 122.677 579 136C591.075 126.981 619.892 98.3503 623 83C600.086 88.0969 585.651 97 561 97z"/>
<path style="fill:#2b070f; stroke:none;" d="M150 114C144.442 109.84 140.249 104.165 134 101C145.62 116.556 161.853 128.751 175 143C181.26 138.131 188.064 128.623 192.417 122C197.365 114.47 217.665 97.0435 215.889 88.1111C214.914 83.209 201.268 86.6696 198.333 88.3333C189.958 93.0814 179.854 103.338 171.889 106.667C166.789 108.798 151.382 107.55 150 114z"/>
<path style="fill:#211927; stroke:none;" d="M361 86C359.696 100.642 373.6 128.593 390 131L382 115C392.271 115 399.533 111.766 409 108C408.407 110.618 409.471 118.01 413.751 113.729C425.988 101.492 401.418 88.3906 393 86C393.612 97.5936 370.459 90.5374 365 93C364.17 89.9821 363.422 88.0074 361 86z"/>
<path style="fill:#5f2339; stroke:none;" d="M344 89L343 90C353.731 104.318 371.435 124.128 387 133C378.758 117.518 358.027 99.4778 344 89z"/>
<path style="fill:#1b0911; stroke:none;" d="M556 160L557 161C577.173 145.931 610.281 117.312 622 95C598.983 107.26 572.297 139.601 556 160z"/>
<path style="fill:#030307; stroke:none;" d="M506 97C485.411 113.767 525.588 118.175 537.194 111.583C540.204 109.874 551.652 106.097 546.278 100.722C538.175 92.6198 512.945 107.638 506 97z"/>
<path style="fill:#190b11; stroke:none;" d="M651 129C650.447 133.43 648.889 135.795 645 138C646.323 129.361 653.942 123.515 655 115C644.354 120.776 637.056 141.948 635 153C657.228 152.206 664.99 128.102 682 118.5C692.006 112.852 708 100.427 708 113C710.048 106.955 707.65 92.2305 698.134 98.4677C689.118 104.377 661.272 131.149 651 129z"/>
<path style="fill:#130b11; stroke:none;" d="M415 99C415.003 115.514 420.925 108.704 430.178 116.26C433.638 119.085 430.307 124.788 433.26 127.74C442.086 136.566 443.061 128.434 447 144C442.042 145.165 441.83 154.576 439 159C449.7 156.011 462.449 139.771 469 131C450.511 121.379 433.282 109.081 415 99z"/>
<path style="fill:#0d050b; stroke:none;" d="M595 108C583.296 101.503 550.907 137.068 547 147C554.691 145.288 558.793 142.816 567 145C562.848 149.338 557.69 153.628 555 159C569.59 152.234 588.643 128.081 596.235 114.095C597.952 110.933 606.598 105.165 605.711 101.375C604.447 95.9767 595.784 106.425 595 108z"/>
<path style="fill:#070509; stroke:none;" d="M95 100C91.3241 108.236 101.359 113.224 101.931 121.029C102.886 134.064 97.1653 150.649 98.4285 161.853C99.0672 167.518 109.009 162.691 108.304 170.07C107.538 178.083 100.778 177.06 98.1331 182.429C96.8578 185.018 102.173 192.696 104.498 193.935C117.433 200.831 149.2 192.022 164 192C160.509 186.713 154.241 175.914 149 173C146.382 182.037 123.614 197.062 116.822 184.499C110.91 173.564 126.557 170.162 126.435 161.089C126.364 155.776 116.089 159.692 113.822 155.499C110.019 148.465 113.71 135.97 112 128C123.746 133.436 114.67 140.789 129 144C120.519 130.424 108.49 108.858 95 100z"/>
<path style="fill:#1d0509; stroke:none;" d="M130 105C145.991 115.908 139.986 127.04 147.383 141.499C151.236 149.031 160.819 148.228 161 160C189.937 145.324 149.136 118.493 136.972 106C134.683 103.649 126.005 96.371 123.333 102.306C121.076 107.32 128.813 110.537 130 105z"/>
<path style="fill:#050507; stroke:none;" d="M500 103C490.177 112.272 478.728 121.886 471 133C479.565 134.864 513.636 138.27 520.727 134.94C531.918 129.685 531.446 116.823 544.078 115.214C556.153 113.676 558.681 113.676 568.146 108.356C569.632 107.521 577.151 103.752 574.596 101.123C571.681 98.1237 560.895 99.9952 557 100C537.835 100.025 516.871 133.965 500 103z"/>
<path style="fill:#090509; stroke:none;" d="M516 145C525.721 140.666 535.281 143.054 544.502 139.499C555.459 135.275 565.194 126.166 574.688 117.769C578.916 114.03 593.487 109.658 589.177 102.821C582.225 91.7903 566.905 111.886 562.502 114.182C556.418 117.354 547.128 114.044 540.442 115.762C534.49 117.291 517.101 137.247 516 145z"/>
<path style="fill:#1d0b13; stroke:none;" d="M635 153L637 147C632.467 149.095 629.788 154.48 628 159L630 156C630.071 160.713 630.752 164.46 632 169C649.544 153.991 670.511 138.462 688.045 121.671C693.358 116.584 703.427 119.117 706 111C706.933 114.685 706.995 118.21 707 122C707.977 119.115 710.111 105.021 704.997 105.003C703.473 104.997 695.159 112.616 692.664 113.955C675.215 123.318 653.502 154.257 635 153z"/>
<path style="fill:#070509; stroke:none;" d="M204 108C205.209 110.381 205.73 112.342 206 115C196.869 115.256 190.367 124.406 192 133L186 133C187.156 130.708 188.36 128.988 190 127C157.897 131.571 198.774 166.774 206 174C208.96 176.96 215.721 186.468 220.635 185.115C228.676 182.901 222.235 153.834 224.501 147.283C226.857 140.47 245.891 135.282 245.568 132.136C244.832 124.969 217.741 131.011 212.501 128.178C207.981 125.734 210.395 116.278 209.855 112.092C209.364 108.289 207.53 107.086 204 108z"/>
<path style="fill:#330b19; stroke:none;" d="M322 108C323.581 113.756 331.075 127.066 322 129C327.44 146.966 335.725 164.346 342 182L346 180C339.568 159.464 335.434 124.406 322 108z"/>
<path style="fill:#1d1523; stroke:none;" d="M382 115C383.114 118.898 386.238 128.19 390 129C388.328 138.906 404.483 150.437 413 153C412.547 145.07 408.694 143.132 402 140C402.522 141.82 403.136 143.312 404 145C392.714 131.966 403.721 126.599 415 120C412.24 115.341 408.109 113.926 409 108C399.227 110.757 392.342 115 382 115z"/>
<path style="fill:#070307; stroke:none;" d="M574 144L561.003 156.992C556.558 161.412 545.115 169.239 544.323 175.795C543.207 185.029 562.702 180.479 566.523 178.568C585.031 169.315 606.615 154.291 624.178 143.178C631.017 138.851 620.374 127.009 624.85 123.25C632.993 116.412 637.453 128.808 641.852 128.233C649.859 127.186 636.591 111.099 652 115C652.066 112.324 652.188 110.967 654 109C644.042 105.627 644.617 112.113 637.717 114.499C632.609 116.266 626.534 113.559 621.498 115.501C614.903 118.043 605.254 125.856 598.829 129.812C590.855 134.723 586.814 151.83 574 144z"/>
<path style="fill:#0b0509; stroke:none;" d="M652 115C636.257 108.781 650.333 124.244 642.29 127.714C639.695 128.833 632.38 118.068 624.825 122.818C620.781 125.361 627.803 136.644 625.178 141.499C622.688 146.104 614.172 141.518 612.571 146.432C611.01 151.223 628.403 155.1 631.036 153.072C640.928 145.453 651.254 120.701 656 109C652.395 109.952 651.98 111.376 652 115z"/>
<path style="fill:#19131d; stroke:none;" d="M415 111C414.18 114.491 413.652 116.605 415 120C404.182 124.718 390.411 133.814 404 145L402 140C408.11 143.744 412.21 145.181 413 153L406 150C410.818 156.45 422.201 172.154 431 170C417.022 162.017 429.163 115.851 415 111z"/>
<path style="fill:#210d15; stroke:none;" d="M706 111C702.362 118.257 693.8 116.638 688.104 121.204C671.197 134.759 642.763 150.6 633 169C631.633 166.247 630.574 164.675 628 163C626.621 166.057 623.613 173.532 620 172C613.378 184.592 593.638 206.064 580 199C580.357 208.476 568.175 214.162 564 222C566.908 220.615 568.605 219.592 571 222C578.686 217.871 582.683 209.614 590 205C586.729 209.379 582.859 213.139 579 217C583.893 216.491 606.581 211.492 603.966 207.539C601.586 203.94 596.287 209.772 594.323 206.296C591.196 200.759 615.973 180.598 621 179C621.059 182.825 635.522 178.802 641.889 173.917C657.754 161.744 668.8 146.396 686.083 134.5C693.126 129.652 706 118.889 706 132C707.978 126.162 707.978 116.838 706 111z"/>
<path style="fill:#27070f; stroke:none;" d="M315 113C315.495 116.58 316.638 119.662 318 123C319.01 119.002 317.785 115.941 315 113z"/>
<path style="fill:#2d111d; stroke:none;" d="M486 114C466.959 133.041 444.113 151.429 428 173L429 174C445.092 161.94 458.313 144.75 472.816 130.776C476.754 126.981 486.666 120.04 486 114z"/>
<path style="fill:#130b15; stroke:none;" d="M428 170C440.086 164.974 438.908 147.214 447 144C446.196 140.254 447.195 134.009 445.178 130.822C442.927 127.264 436.872 130.23 433.822 127.74C432.669 126.799 427.578 104.027 419.832 116.822C414.152 126.203 425.74 159.361 428 170z"/>
<path style="fill:#07070b; stroke:none;" d="M293 118C282.303 131.75 263.009 139.372 250.221 152.22C247.029 155.427 242.684 169.198 248.501 171.499C264.107 177.67 257.219 151.125 271.499 158.822C275.665 161.068 272.715 166.848 274.822 170.178C277.024 173.659 283.273 171.077 286.499 172.822C292.74 176.197 286.07 183.647 296 184C290.049 156.222 309.747 141.008 293 118z"/>
<path style="fill:#070509; stroke:none;" d="M707 122C706.841 161.901 698.298 201.365 701 240C704.168 230.647 702 217.842 702 208C702.554 210.066 702.851 211.866 703 214L705 214C703.778 198.576 717.295 202.159 723.061 191.502C726.284 185.547 724 173.648 724 167C724 163.569 725.528 155.047 722.888 152.408C722.442 151.962 720.497 181.903 706.822 170.74C698.464 163.919 710.6 132.626 707 122z"/>
<path style="fill:#110b13; stroke:none;" d="M371 172C360.21 174.535 372.583 181.731 380 180C377.936 179.275 376.196 179.091 374 179C375.989 170.972 373.77 143.348 364 143L364 140C374.563 140 377.316 137.21 386 134C376.3 119.008 371.713 124.269 363.429 134.394C361.69 136.519 357.767 135.988 357.428 139.232C356.272 150.3 367.086 162.28 371 172z"/>
<path style="fill:#330d17; stroke:none;" d="M620 176C622.776 182.233 628.516 187.524 635.778 184.667C644.371 181.285 651.278 169.223 658.083 163.222C667.28 155.113 679.272 148.023 689 139.306C693.156 135.581 704.899 129.163 706 124C684.131 125.522 661.468 156.669 645.674 169.235C641.623 172.458 635.649 180.251 630.369 181.178C626.945 181.778 623.424 176.827 620 176z"/>
<path style="fill:#410d15; stroke:none;" d="M668 160C681.081 151.731 705 121.025 705 147C717.452 110.243 673.928 146.796 668 160z"/>
<path style="fill:#050507; stroke:none;" d="M112 128C113.483 136.377 110.438 147.753 113.501 155.499C115.345 160.158 125.845 155.591 126.008 161.089C126.229 168.553 108.32 176.801 117.26 185.74C125.54 194.021 148.82 185.103 148.624 173.011C148.539 167.748 133.761 147.697 129.282 144.424C126.462 142.363 121.462 144.792 119.338 142.122C115.069 136.758 121.309 130.898 112 128z"/>
<path style="fill:#491d2f; stroke:none;" d="M387 131C388.671 142.866 417.813 170.024 429 174C417.352 158.406 401.106 144.415 387 131z"/>
<path style="fill:#0f0911; stroke:none;" d="M470 132C462.636 140.9 445.714 151.144 442.263 162.155C439.777 170.084 467.632 180.819 473.499 178.499C478.954 176.341 477.198 158.353 479.822 153.501C482.614 148.338 496.351 151.177 501 152C494.287 142.678 479.755 137.749 470 132z"/>
<path style="fill:#4f0d17; stroke:none;" d="M658 174C671.802 163.356 688.056 140.865 705 136C703.569 128.153 695.558 138.44 692.586 141.001C682.656 149.559 660.868 161.004 658 174z"/>
<path style="fill:#0d0915; stroke:none;" d="M364 140L364 143C373.421 143.681 375.358 170.988 374 179C391.108 178.394 407.895 178.842 425 179C421.347 167.85 397.139 136.043 385.203 134.44C381.396 133.929 370.603 140 364 140z"/>
<path style="fill:#070509; stroke:none;" d="M473 134C493.139 149.091 508.105 158.567 523 135C507.006 137.111 489.941 131.754 473 134z"/>
<path style="fill:#0b070b; stroke:none;" d="M505 153C515.796 158.931 534.305 161.009 544.475 152.036C550.404 146.805 548.392 136.695 558 136L558 133C539.584 133.012 522.649 146.713 505 153z"/>
<path style="fill:#590d19; stroke:none;" d="M644 201C644.828 198.223 641.079 196.263 642.222 193.389C651.883 169.101 693.471 159.62 705 136C687.992 139.199 668.406 165.182 655.398 176.16C651.141 179.752 641.061 185.533 638.977 190.792C637.518 194.472 641.874 198.61 644 201z"/>
<path style="fill:#690b15; stroke:none;" d="M702 138C695.978 149.206 681.602 152.378 676 164C683.738 158.851 699.632 150.626 703 142L704 146C704.914 143.322 704.974 140.827 705 138L702 138z"/>
<path style="fill:#950b15; stroke:none;" d="M703 142C698.741 158.436 686.067 170.183 680.606 186.134C678.525 192.215 678.478 205.198 670 207C668.433 211.1 666.171 213.998 663 217C671.941 223.658 675.042 208.048 679.683 201.861C691.442 186.182 710.061 162.844 703 142z"/>
<path style="fill:#3d1321; stroke:none;" d="M174 143C179.535 151.556 188.618 158.98 196 166C193.6 157.406 181.741 147.121 174 143z"/>
<path style="fill:#11070d; stroke:none;" d="M514 158C537.956 182.632 550.382 167.306 567 145C550.36 139.248 533.217 158.854 514 158z"/>
<path style="fill:#09070d; stroke:none;" d="M296 184L283 185C290.029 189.4 300.135 185.003 308 185C313.642 184.998 338.411 189.413 341.681 185.74C344.493 182.583 339.142 174.029 337.771 171C332.007 158.268 327.881 144.02 312 144C308.336 143.996 298.207 142.191 296.501 146.501C294.304 152.057 296 161.074 296 167C296 172.405 294.567 178.861 296 184z"/>
<path style="fill:#030307; stroke:none;" d="M172 192L169 191C177.971 182.357 179.482 165.735 182 154L186 156C165.444 128.497 135.864 191.588 172 192z"/>
<path style="fill:#9f0d17; stroke:none;" d="M702 146C696.471 150.621 690.329 153.778 688 161C689.416 160.528 689.814 160.186 691 159C689.775 169.827 666.214 212.451 655 210C661.06 216.748 667.64 216.271 670 207C672.443 207.282 679.475 198.575 680.463 195.722C684.756 183.329 689.688 172.506 695.806 160.394C697.876 156.294 704.082 150.434 702 146z"/>
<path style="fill:#590d09; stroke:none;" d="M704 146L704 154C704.968 151.124 704.968 148.876 704 146z"/>
<path style="fill:#830d17; stroke:none;" d="M663 179C678.29 175.858 687.989 155.977 701 148C689.347 146.531 668.176 169.786 663 179z"/>
<path style="fill:#210b13; stroke:none;" d="M329 149L331 156C331.803 152.886 331.079 151.396 329 149z"/>
<path style="fill:#130b11; stroke:none;" d="M461 179C473.411 183.205 477.066 182.242 475 198C484.043 189.373 499.763 155.122 513 158C507.752 152.695 486.669 145.851 480.26 152.26C468.53 163.989 485.268 179 461 179z"/>
<path style="fill:#0b070b; stroke:none;" d="M542 176C524.94 193.061 498.546 210.706 487 232C497.16 226.984 487.658 242.451 485.278 245.889C479.217 254.64 457.535 264.108 455 276C461.451 277.545 463.599 287.881 464 294L466 294C466.326 289.475 467.389 287.642 472 287C470.885 276.956 485.661 275.436 489.245 267.323C491.141 263.028 487.872 257.438 490.338 253.501C494.288 247.193 502.615 244.821 506.298 235.436C508.102 230.839 506.316 225.049 509.175 220.752C513.765 213.853 522.299 210.403 527.301 203.94C531.965 197.913 537.613 184.528 545.394 181.921C553.767 179.117 569.594 194.384 578 197C577.175 193.131 573.562 193.18 570 193C571.848 190.966 573.688 189.485 576 188L576 193C582.191 188.276 589.646 181.635 594.68 175.675C599.954 169.43 604.188 170.657 610.445 166.206C620.612 158.974 626.336 144.238 607.498 151.501C587.986 159.023 565.059 193.19 542 176z"/>
<path style="fill:#0d070b; stroke:none;" d="M623 151C621.496 162.206 606.627 165.304 598.77 169.817C591.114 174.216 582.302 186.361 576 193L576 188C573.247 189.244 571.594 190.429 570 193L578 194L576 198C580.183 199.43 585.416 204.27 589.941 202.711C601.51 198.726 637.785 161.504 623 151z"/>
<path style="fill:#030305; stroke:none;" d="M182 154C179.23 164.947 177.924 182.253 169 190C181.997 194.072 198.72 187.175 212 187L211 189L217 189C209.081 176.195 195.465 161.019 182 154z"/>
<path style="fill:#530f11; stroke:none;" d="M703 154L703 162C703.968 159.124 703.968 156.876 703 154z"/>
<path style="fill:#1d0711; stroke:none;" d="M332 156C332.934 162.751 336.349 168.786 339 175C339.97 168.366 335.675 161.281 332 156z"/>
<path style="fill:#29111b; stroke:none;" d="M477 201C478.3 200.35 478 200.853 478 199C478.78 203.934 475.874 207.278 475 212C487.153 207.394 514.771 175.711 510 162L518 162C504.31 148.777 478.102 187.335 477 201z"/>
<path style="fill:#310f19; stroke:none;" d="M630 156C626.192 161.748 623.051 167.384 621 174C625.396 170.191 630.909 161.974 630 156z"/>
<path style="fill:#a90d19; stroke:none;" d="M687 158C683.662 162.837 678.19 166.606 676 172L680 171C676.433 180.109 666.096 200.727 658.418 206.214C651.419 211.217 648.707 198.46 651 194C637.696 195.789 652.153 211.906 659.745 211.013C664.457 210.458 666.668 202.405 668.97 199.085C675.831 189.191 690.236 171.24 691 159C689.584 159.472 689.186 159.814 688 161L689 158L687 158z"/>
<path style="fill:#110b15; stroke:none;" d="M412 160C415.524 169.19 423.146 175.94 433 176L429 177C430.763 180.433 441.862 203.594 442.685 204.034C444.688 205.106 449.547 201.251 452.029 201.069C465.15 200.109 479.676 203.055 475.07 184.148C472.31 172.819 443.367 176.784 442 162C425.736 173.018 427.887 171.867 412 160z"/>
<path style="fill:#271117; stroke:none;" d="M543 173C549.121 171.288 554.003 165.469 557 160C551.271 163.051 547.004 167.96 543 173z"/>
<path style="fill:#430f19; stroke:none;" d="M629 185C631.287 189.041 634.645 191.828 638 195C640.478 185.71 654.062 177.091 660.094 169.431C661.398 167.776 669.002 164.051 666.592 161.226C663.743 157.886 657.601 163.034 655.628 164.948C648.214 172.142 640.13 184.614 629 185z"/>
<path style="fill:#2f131f; stroke:none;" d="M510 162C516.55 182.965 466.512 207.053 487 229C489.139 226.448 491.65 221.487 495 224C502.131 204.8 517.072 184.696 514 163L523 165C519.011 162.005 514.846 162.02 510 162z"/>
<path style="fill:#370b11; stroke:none;" d="M703 162L702 176C703.591 171.632 704.46 166.474 703 162z"/>
<path style="fill:#3f111d; stroke:none;" d="M514 163C515.707 186.48 498.788 198.847 496 220C505.777 214.795 526.546 196.973 529 186C524.979 188.366 521.789 190.724 517 191C519.66 183.459 521.867 173.466 529 169C524.512 165.204 519.581 164.313 514 163z"/>
<path style="fill:#230f19; stroke:none;" d="M196 165C209.943 183.667 229.535 199.535 246 216C255.146 225.146 264.52 237.888 276 244C263.217 223.589 240.335 206.38 223 189.922C214.444 181.8 206.488 170.584 196 165z"/>
<path style="fill:#710d1d; stroke:none;" d="M643 198C653.231 188.458 665.863 177.437 674 166C665.789 169.541 639.323 188.336 643 198z"/>
<path style="fill:#4b0d1b; stroke:none;" d="M517 191C522.765 191.205 525.788 188.654 530 185C528.191 184.426 527.931 184.535 526 185C527.043 179.967 527.914 174.227 533 172C523.333 164.319 518.788 184.394 517 191z"/>
<path style="fill:#651119; stroke:none;" d="M701 169L701 179C702.153 175.592 702.153 172.408 701 169z"/>
<path style="fill:#b90f1d; stroke:none;" d="M680 171C670.289 172.623 637.27 198.426 653.99 207.031C659.845 210.044 678.587 177.947 680 171z"/>
<path style="fill:#570d1f; stroke:none;" d="M526 185C543.751 178.5 529.066 164.164 526 185z"/>
<path style="fill:#850b13; stroke:none;" d="M668 222C680.941 223.796 693.637 198.374 699.248 188.248C700.596 185.817 703.08 173.383 698.643 172.867C694.325 172.364 690.075 185.653 688.061 188.68C685.089 193.146 682.268 197.557 679.041 201.861C674.344 208.125 671.886 215.272 668 222z"/>
<path style="fill:#3d0911; stroke:none;" d="M529 189C534.795 184.671 540.577 179.43 544 173C536.418 175.25 530.48 181.101 529 189z"/>
<path style="fill:#110d17; stroke:none;" d="M380 178C392.612 190.561 411.877 182.64 426.478 188.072C436.303 191.727 429.457 206.077 434.763 213.197C444.951 226.869 471.244 208.965 475 198C470.697 200.101 445.695 205.396 442.685 203.467C439.548 201.457 441.518 194.663 440.297 191.567C438.719 187.569 432.014 181.322 429 178L433 177C420.456 172.82 394.418 178 380 178z"/>
<path style="fill:#090305; stroke:none;" d="M617.716 179.761C611.018 181.572 590.704 208.266 595.939 207.696C602.065 207.029 615.449 191.974 618.936 187.184C620.187 185.466 622.202 178.548 617.716 179.761z"/>
<path style="fill:#1b070d; stroke:none;" d="M621 179C620.208 191.819 603.991 197.517 598 208C602.705 206.015 606.474 209.166 602 213C608.677 219.07 617.677 223.6 626 227C625.27 214.805 624.129 202.023 622 190C626.715 192.768 634.119 204.358 640.548 202.606C646.743 200.919 623.701 181.018 621 179z"/>
<path style="fill:#910f19; stroke:none;" d="M648 194C654.902 192.464 661.815 184.478 666 179C658.855 179.802 651.429 187.883 648 194z"/>
<path style="fill:#3d0909; stroke:none;" d="M701 179C700.333 184.035 700.002 188.92 700 194C701.691 189.359 702.582 183.745 701 179z"/>
<path style="fill:#3d1323; stroke:none;" d="M343 180C348.633 201.557 360.465 221.071 367.838 242C371.629 252.762 375.652 270.087 384 278C383.496 251.531 366.322 227.72 358.95 203C356.217 193.838 354.023 180.171 343 180z"/>
<path style="fill:#19131f; stroke:none;" d="M354 180C357.955 182.906 361.874 186.807 361 192C374.537 197.239 368.186 205.697 372.302 215.727C374.062 220.018 388.912 231.829 393 234L389 236C406.31 245.782 397.705 313.348 420 275C416.865 274.089 415.664 274.107 413 276C400.08 255.842 400.771 228.502 388.636 207.439C386.36 203.489 379.965 203.138 377.123 199.248C370.214 189.79 368.558 180.215 354 180z"/>
<path style="fill:#130f19; stroke:none;" d="M384 205L383 201L405 201C411.115 201 445.821 198.577 427.933 188.394C416.271 181.754 405.502 187.723 393.08 186.572C388.828 186.179 387.845 180.952 382.97 180.42C361.79 178.11 372.964 198.358 384 205z"/>
<path style="fill:#231521; stroke:none;" d="M351 181C356.019 198.868 370.643 212.261 378.241 228.439C387.065 247.23 395.725 280.252 396 301C404.67 275.406 382.774 236.78 372.722 215.727C368.191 206.236 375.501 195.847 361 192C363.455 185.449 356.789 181.204 351 181z"/>
<path style="fill:#11070d; stroke:none;" d="M551 182C537.132 178.657 508.996 221.117 506.75 232.881C505.841 237.638 495.9 244.396 501.25 249.729C504.633 253.102 512.47 238.022 514.183 235.19C517.613 229.517 518.536 222.199 523.249 216.811C525.851 213.836 530.624 215.998 533.055 212.539C540.107 202.506 542.226 192.215 551 182z"/>
<path style="fill:#0d0b11; stroke:none;" d="M343 183C341.404 194.884 327.432 187.454 319.674 190.752C310.306 194.733 301.954 191.973 292.283 194.284C288.526 195.182 288.842 199.836 284.852 200.716C269.785 204.04 250.392 201.324 235 201C241.368 209.526 251.812 222.379 262 226C261.913 222.981 257.274 210.776 259.076 209.142C263.479 205.148 278.225 208.326 283.941 207.934C304.31 206.534 332.402 193.406 351 206C349.741 197.977 346.116 190.436 343 183z"/>
<path style="fill:#190b11; stroke:none;" d="M498 275C499.209 277.381 499.73 279.342 500 282C508.946 278.901 524.576 263.81 528 255C527.823 255.003 534.356 218.744 541 216C540.2 212.105 540.016 209.582 544 208C542.306 197.05 549.698 194.387 552 185L557 186C549.594 180.072 539.615 191.12 536.904 198.144C526.802 224.324 523.596 260.793 498 275z"/>
<path style="fill:#830b1f; stroke:none;" d="M649 191C652.676 188.873 655.717 186.612 658 183C653.945 184.925 651.231 187.081 649 191z"/>
<path style="fill:#050507; stroke:none;" d="M214 184L217 189L211 189L212 187C199.659 187.068 187.502 190 175 190C179.732 191.603 185.046 191 190 191L177 194C188.435 197.884 203.912 200.235 214.502 205.819C217.869 207.595 216.957 212.573 220.607 214.256C229.122 218.182 242.618 219.063 250.284 224.042C255.37 227.347 249.452 242.881 256.136 243.568C263.475 244.322 258.357 228.728 256.385 226C245.762 211.304 228.51 194.838 214 184z"/>
<path style="fill:#250b15; stroke:none;" d="M344 184C344.149 186.134 344.446 187.934 345 190C345.613 187.488 345.288 186.238 344 184z"/>
<path style="fill:#0b0b0f; stroke:none;" d="M343 187C318.938 186.952 288.344 179.596 265.059 185.964C260.23 187.284 240.496 193.164 242.512 199.638C243.779 203.705 262.776 201 267 201C286.581 201 302.677 194.063 322.137 190.273C328.633 189.008 338.322 192.664 343 187z"/>
<path style="fill:#1d0b13; stroke:none;" d="M552 185C548.776 194 541.654 197.218 544 208C539.564 209.042 539.964 212.104 541 216C536.587 217.697 529.669 240.491 528.913 245.97C528.673 247.709 524.135 253.619 525.87 254.495C530.739 256.955 544.226 242.772 549 241C546.835 244.872 543.247 246.533 542 251C551.662 245.493 568.874 230.348 571 219C560.549 221.034 555.516 235.201 546.206 236.56C542.36 237.121 542.836 230.577 543.793 228.472C548.368 218.408 558.174 198.508 554 187L560 188C557.448 186.452 554.884 185.758 552 185z"/>
<path style="fill:#2f0b15; stroke:none;" d="M554 187C556.354 196.487 534.813 251.083 554 231C552.155 224.86 558.391 194.921 565 194C563.536 191.938 561.405 191.279 563 189C560.016 188.061 557.097 187.441 554 187z"/>
<path style="fill:#3d0917; stroke:none;" d="M561 190C562.393 191.434 563.233 192.045 565 193C556.721 195.873 554.274 221.256 552 230C559.195 228.401 564.047 221.087 569 216C566.57 209.607 567.899 201.739 568 195L574 196C570.037 193.156 565.768 191.055 561 190z"/>
<path style="fill:#550915; stroke:none;" d="M622 192L623 193C624.311 191.971 624.179 192.27 626 193C624.695 190.92 623.819 190.059 622 192z"/>
<path style="fill:#790b11; stroke:none;" d="M659 214C672.355 231.879 685.94 237.161 695.961 214.863C697.296 211.893 701.136 192.523 698.319 190.969C694.023 188.602 682.723 214.201 680.475 216.871C672.594 226.232 666.769 218.13 659 214z"/>
<path style="fill:#070709; stroke:none;" d="M172 191C172.65 192.3 172.147 192 174 192C171.605 192.622 169.474 192.902 167 193C173.64 212.168 191.451 227.973 202 245C215.402 234.657 246.421 268.058 258.739 255.741C263.661 250.82 254.569 246.471 251.356 244.682C242.197 239.583 226.846 234.844 218.811 228.751C214.708 225.64 206.131 217.27 215 215L215 212C198.479 211.99 190.051 197.08 177 197C180.045 192.552 184.985 192.668 190 192C184.428 190.113 177.835 191 172 191z"/>
<path style="fill:#8d1119; stroke:none;" d="M623 191L624 205C626.11 199.181 626.545 197.585 633 200C630.129 196.234 627.032 193.48 623 191z"/>
<path style="fill:#290f13; stroke:none;" d="M134 194C143.119 197.089 155.401 194 165 194L165 192C154.585 192.001 144.399 193.984 134 194z"/>
<path style="fill:#130b13; stroke:none;" d="M134 195C137.685 194.067 141.21 194.005 145 194C140.47 192.465 135.587 192.839 131 194C137.178 198.052 144.908 197 152 197C145.08 202.755 145 206.12 145 215C151.633 213.797 165.585 224.877 160 226C168.44 231.161 185.066 234.453 195 236C190.041 219.856 174.266 208.36 167 193L174 193C163.394 189.428 145.584 195 134 195z"/>
<path style="fill:#050507; stroke:none;" d="M723 192C714.03 197.905 702.992 201.514 705 214L703 214L703 208C699.832 217.353 702 230.158 702 240C696.782 224.238 690.013 252.577 702 258C702.001 233.423 733.109 221.84 723 192z"/>
<path style="fill:#0d0b11; stroke:none;" d="M112 194C115.87 195.311 119.945 195 124 195C96.7274 203.533 61.5043 199.871 33 201.864C26.9841 202.284 6.06253 199.738 2.82165 205.604C1.39158 208.193 0.325985 223.758 5.64729 222.351C8.91186 221.488 7.62263 215.239 11.8639 215.785C14.7549 216.158 23.6943 231.158 29.1488 220.528C33.9178 211.234 12.9066 208 8 208C16.3646 200.781 32.9096 207.861 42.9967 207.978C64.7823 208.23 89.1024 196.452 111.823 201.274C116.885 202.348 111.749 207.749 116.361 208.724C120.03 209.5 133.964 199.658 131.534 195.889C128.962 191.9 116.172 194 112 194z"/>
<path style="fill:#0d0d13; stroke:none;" d="M348 194L351 206C335.031 192.102 301.609 206.683 282.974 207.934C277.746 208.284 262.156 205.189 258.397 209.142C256.798 210.823 261.614 223.64 260 228C269.252 233.524 268.446 218.7 277.079 215.755C293.156 210.271 317.326 208 334 208C341.856 208 350.639 205.765 353 215C354.956 208.283 351.679 199.654 348 194z"/>
<path style="fill:#2b1521; stroke:none;" d="M355 194C358.699 216.195 370.074 232.577 379 254C380.591 257.818 386.733 278.183 382 277C382.556 280.044 391.167 303.439 394.827 299.895C399.897 294.987 390.87 277.247 389.451 271.96C383.727 250.632 377.99 233.965 368.466 214.783C365.157 208.119 362.362 196.822 355 194z"/>
<path style="fill:#210f17; stroke:none;" d="M5 202C15.6262 205.6 30.8978 201.643 42 201.078C69.3341 199.687 96.7393 198.539 124 196C112.702 192.172 97.6744 196.27 86 196.925C58.9848 198.44 31.956 199.49 5 202z"/>
<path style="fill:#070509; stroke:none;" d="M177 195L177 197C186.499 197.145 184.384 202.781 190.896 206.879C196.744 210.559 208.121 211.999 215 212L215 215C205.142 216.468 214.57 225.503 218.23 228.751C222.81 232.816 236.618 235.378 242.717 237.5C245.831 238.584 246.938 245.738 251.208 243.149C254.747 241.003 253.772 225.828 250.37 223.822C242.484 219.172 229.992 217.896 221.383 214.256C217.446 212.592 218.363 207.745 215.188 205.819C207.345 201.059 185.977 195.005 177 195z"/>
<path style="fill:#530b17; stroke:none;" d="M568 195C567.774 201.66 567.85 208.393 567 215C569.961 214.032 572.357 212.654 575 211C573.191 210.426 572.931 210.535 571 211C572.76 205.644 573.603 200.912 576 196L568 195z"/>
<path style="fill:#130d13; stroke:none;" d="M114 221C130.729 218.178 140.308 214.137 134 232C140.196 228.304 145.129 221.549 148 215C141.095 209.297 146.487 201.863 152 198C134.43 192.048 120.552 205.784 114 221z"/>
<path style="fill:#69070f; stroke:none;" d="M699 196C696.039 209.12 693.751 227.875 679 233C682.085 239.247 687.882 243.878 694 247C694.677 231.853 703.269 210.657 699 196z"/>
<path style="fill:#130f1b; stroke:none;" d="M383 201C384.599 205.115 398.116 222.175 402 222.175C406.827 222.175 404.392 215.797 401 215L401 212C407.416 211.347 422.589 206.15 427.683 208.603C441.845 215.42 427.217 243.904 437 254C446.675 241.707 455.12 227.886 464 215C457.285 215 441.239 217.965 435.812 213.748C430.757 209.82 433.619 199.489 425.634 197.542C416.676 195.357 394.218 201 383 201z"/>
<path style="fill:#29131f; stroke:none;" d="M476 197C471.232 205.009 451.206 236.286 472 237C467.011 249.583 451.159 254.732 447 268C458.172 258.836 478.849 243.442 484.603 230.118C488.794 220.414 486.624 205.652 475 212C476.297 207.414 478.714 203.885 479 199C477.7 199.65 478 199.147 478 201L478 197L476 197z"/>
<path style="fill:#410511; stroke:none;" d="M623 197L623 204C623.864 201.405 623.864 199.595 623 197z"/>
<path style="fill:#9f0915; stroke:none;" d="M625 197C627.407 203.383 631.542 204.599 638 205C634.433 200.849 630.405 198.08 625 197z"/>
<path style="fill:#610f1b; stroke:none;" d="M571 211C574.521 209.471 577.141 207.559 580 205C577.553 202.553 577.978 201.711 580 199C571.954 197.498 572.625 204.753 571 211z"/>
<path style="fill:#c70f15; stroke:none;" d="M625 199C625.342 208.654 626.104 218.381 627 228C629.083 221.352 627 212.06 627 205C630.32 207.016 636.359 206.658 638.737 209.781C642.643 214.911 637.967 230.532 632 232C643.62 237.94 644.997 217.233 641.937 210.07C639.342 203.995 629.74 203.647 625 199z"/>
<path style="fill:#0d0d11; stroke:none;" d="M8 208C15.5051 208 25.9562 209.227 29.0349 217.469C30.665 221.834 20.7424 227.021 29.148 229.29C40.3725 232.321 40.2985 225.015 48.1477 223.284C55.1228 221.745 62.7751 224.387 69.7161 222.716C73.6527 221.768 72.5469 216.808 76.2839 215.501C83.9971 212.803 95.8579 215 104 215C112.312 215 122.506 216.056 125 206C112.68 208.255 119.571 202.827 112.705 201.274C104.769 199.479 93.772 201.11 85.942 200.883C71.5377 200.467 56.6007 208.145 42.9967 207.949C34.1304 207.821 14.4578 200.181 8 208z"/>
<path style="fill:#7b0d21; stroke:none;" d="M577 204C583.291 202.961 578.805 198.566 577 204z"/>
<path style="fill:#450103; stroke:none;" d="M635 200C638.143 205.903 643.308 210.308 648 215C647.182 209.026 639.867 203.148 635 200z"/>
<path style="fill:#2b0305; stroke:none;" d="M643 200L640 205C651.316 216.379 675.157 234.301 659 249C681.596 263.993 666.401 228.778 662 221C666.053 224.019 669.52 227.617 674 230C666.165 219.511 654.416 206.507 643 200z"/>
<path style="fill:#1b1b1f; stroke:none;" d="M1 323C9.09302 299.111 2 261.322 2 236C2 226.67 -1.16476 210.511 5 203C-1.48286 201.247 1 226.265 1 231L1 323z"/>
<path style="fill:#4b131f; stroke:none;" d="M564 230C572.703 228.808 586.013 212.489 590 205C580.151 209.37 571.389 222.214 564 230z"/>
<path style="fill:#530307; stroke:none;" d="M624 205L624 212C624.864 209.405 624.864 207.595 624 205z"/>
<path style="fill:#950b11; stroke:none;" d="M625 205L625 215C626.153 211.592 626.153 208.408 625 205z"/>
<path style="fill:#e70911; stroke:none;" d="M627 205L627 213C638.625 206.29 637 223.184 637 230C642.442 213.975 639.82 211.457 627 205z"/>
<path style="fill:#0f0d15; stroke:none;" d="M269 223C278.883 221.629 292.034 226.198 301.326 222.248C315.737 216.124 338.523 225.683 351.353 218.178C355.787 215.585 351.782 208.699 347.86 208.148C329.889 205.622 303.602 209.029 286.646 214.326C279.961 216.415 271.313 214.216 269 223z"/>
<path style="fill:#13111b; stroke:none;" d="M401 212L401 215C404.336 216.326 405.503 222.953 401.31 221.439C396.62 219.745 398.873 215.156 392 215C395.064 232.242 401.981 262.883 413 276C435.315 265.218 431.297 253.905 432.53 233.136C432.943 226.185 436.311 213.539 428.205 208.814C423.559 206.107 406.492 210.779 401 212z"/>
<path style="fill:#390d13; stroke:none;" d="M698 208L698 212C698.507 210.308 698.507 209.692 698 208z"/>
<path style="fill:#a3070f; stroke:none;" d="M642 209C643.765 218.979 642.472 227.556 637 236C648.091 235.607 647.809 215.731 642 209z"/>
<path style="fill:#fd0913; stroke:none;" d="M629.601 211.418C624.095 214.605 627.61 234.474 635.182 231.038C639.73 228.974 638.336 206.361 629.601 211.418z"/>
<path style="fill:#0f0f15; stroke:none;" d="M354 211C352.882 222.68 337.749 219 329 219C312.016 219 273.039 217.358 265 232C268.065 235.279 270.681 238.507 275 240L274 233C295.012 233 313.801 226 334 226C338.849 226 355.341 228.612 358.643 224.74C361.417 221.488 355.963 213.605 354 211z"/>
<path style="fill:#070509; stroke:none;" d="M617 226C619.697 226.587 622.242 226.897 625 227C619.233 222.642 603.169 210.553 596.001 211.562C589.228 212.515 583.613 221.747 579.246 226.317C562.693 243.642 555.311 272.782 553.958 294.985C553.613 300.656 538.326 314.237 543.535 321.293C548.111 327.492 557.025 317.941 559.855 314.865C562.54 311.945 559.921 306.725 562.149 303.411C568.448 294.042 572.74 287.551 576.412 276.216C579.513 266.645 586.998 257.753 590.412 247.216C590.61 246.604 599.519 230.662 599.412 230.717C604.729 227.96 615.214 233.599 617 226z"/>
<path style="fill:#0f090f; stroke:none;" d="M131 236C140.663 237.928 144.142 223.408 152.038 224.969C165.952 227.72 187.988 258.988 198 269C204.998 266.712 208.228 274.426 214 277C206.285 262.109 176.802 230.825 160 227L164 226C151.209 203.723 142.16 222.237 131 236z"/>
<path style="fill:#85030b; stroke:none;" d="M645 212C645 219.264 648.03 233.738 639 236C649.994 242.218 652.34 217.894 645 212z"/>
<path style="fill:#130b0f; stroke:none;" d="M530 266C533.079 265.866 535.949 264.567 539 264L537 261C557.385 247.865 572.933 231.366 591 215C583.768 211.98 576.854 219.325 572 224.026C557.788 237.791 543.99 252.01 530 266z"/>
<path style="fill:#0d0d11; stroke:none;" d="M9.23778 216.267C-0.0236521 224.986 0.401858 241.599 2.14785 253.852C2.79257 258.377 10.622 259.858 13.7402 256.74C19.3522 251.128 14.0541 211.733 9.23778 216.267z"/>
<path style="fill:#0f0d13; stroke:none;" d="M102 236C105.103 234.296 119.673 219.342 114.117 215.781C108.594 212.243 81.6224 213.103 75.5006 215.501C71.9446 216.894 73.199 221.752 68.8522 222.716C61.8315 224.273 53.2353 220.903 46.498 223.501C43.2782 224.742 43.688 228.88 39.8523 229.715C30.1888 231.821 25.5836 221.669 18.2732 223.295C13.8038 224.289 14.7766 232.262 16.7813 235.178C18.9953 238.4 24.3998 236.2 27.502 237.818C39.7611 244.212 69.6415 249.771 85.4985 243.499C90.5171 241.513 85.7465 233.391 90.5015 230.822C95.6814 228.023 101.24 230.547 102 236z"/>
<path style="fill:#13090f; stroke:none;" d="M491 287C496.055 286.922 498.689 285.354 503 283C500.863 280.564 499.747 277.695 498 275C514.168 269.136 517.142 250.212 525.722 235.111C527.463 232.048 533.085 218.061 527.667 215.333C519.755 211.35 516.849 232.25 514.278 235.667C503.765 249.634 494.867 268.863 491 287z"/>
<path style="fill:#570509; stroke:none;" d="M625 215L625 222C625.864 219.405 625.864 217.595 625 215z"/>
<path style="fill:#030303; stroke:none;" d="M723 282C727.782 267.885 724 246.907 724 232C724 229.211 725.564 218.537 722.462 217.106C719.677 215.821 719.882 226.763 718.741 228.179C713.393 234.819 701.645 242.588 702.03 253.001C702.599 268.345 722.796 268.785 723 282z"/>
<path style="fill:#1f151f; stroke:none;" d="M438 255C452.01 257.918 467.244 254.027 472 237C456.468 235.926 471.171 222.406 463.318 218.721C457.779 216.121 439.451 249.672 438 255z"/>
<path style="fill:#5d0509; stroke:none;" d="M651 218C652.189 224.733 653.34 237.875 645 240C658.875 250.827 660.09 225.033 651 218z"/>
<path style="fill:#15131b; stroke:none;" d="M71 299L69 295C70.8576 295.511 72.3037 296.088 74 297C94.9922 277.917 115.745 258.254 136 238L131 236C133.125 233.026 141.06 224.5 139.894 220.822C138.188 215.438 116.295 219.304 113.2 222.755C101.076 236.272 90.365 253.508 80.4338 268.015C75.1752 275.697 65.8981 280.069 61.1036 287.983C54.7079 298.542 60.4994 308.501 71 299z"/>
<path style="fill:#77030b; stroke:none;" d="M651 220C648.721 226.015 648.43 235.22 642 238C652.154 244.325 653.113 226.248 651 220z"/>
<path style="fill:#0d0103; stroke:none;" d="M662 221C664.896 227.746 687.606 251.13 683.392 257.414C681.306 260.526 675.19 259.213 672 261C669.608 257.471 667.572 272.284 667.111 275.083C666.274 280.17 669.64 285.855 667.667 290.917C663.99 300.349 653.232 307.988 660.333 321.667C661.739 324.374 686.261 324.374 687.667 321.667C690.736 315.755 688.058 307.329 689.111 301.028C692.023 283.597 692.028 265.252 695 248C682.608 241.209 674.685 227.746 662 221z"/>
<path style="fill:#3b1927; stroke:none;" d="M493 222C463.792 248.497 436.894 278.106 409 306C415.784 306.487 422.775 295.535 427.262 291.078C443.647 274.804 460 258.441 476.139 241.922C480.582 237.374 493.32 228.811 493 222z"/>
<path style="fill:#451b23; stroke:none;" d="M64 309C71.529 307.969 78.8369 297.163 84 292C99.4586 276.541 115.343 261.467 130.564 245.782C136.787 239.37 145.152 226.145 155 227C148.766 218.593 135.594 237.358 130.982 242.007C108.742 264.422 86.3286 286.671 64 309z"/>
<path style="fill:#110f17; stroke:none;" d="M360 223C355.221 228.787 340.958 226 334 226C313.702 226 295.033 233 274 233C274.24 236.023 274.191 238.201 273 241C291.151 248.557 320.989 232.645 341.852 237.284C348.974 238.868 342.954 248.305 348.501 250.499C355.003 253.07 360.757 250.835 361 244C363.118 244.788 363.882 244.788 366 244L366 249C367.712 249 380.208 271.072 377.5 274.833C370.516 284.534 352.834 269.331 346.167 282.667C345.34 284.321 342.315 283.208 341 283C351.974 294.613 375.603 295.081 390 301C388.596 276.988 370.009 244.881 360 223z"/>
<path style="fill:#1d131d; stroke:none;" d="M391 298C390.786 302.799 396.241 303.634 400 305C405.759 287.062 406.176 270.162 396.681 251.783C393.927 246.451 396.251 238.08 389 237C390.543 235.733 391.048 235.511 393 235C367.713 207.692 394.295 264.254 395.856 277.048C396.39 281.428 399.784 305.184 391 298z"/>
<path style="fill:#81030f; stroke:none;" d="M626 223L626 226C626.696 224.446 626.696 224.554 626 223z"/>
<path style="fill:#0b090b; stroke:none;" d="M107 268C123.112 275.761 113.361 312.929 128.811 322.182C132.892 324.626 141.38 323 146 323C150.353 323 155.454 323.718 159.712 322.719C163.326 321.872 162.398 318.735 159.716 317.27C135.626 304.102 131.184 303.179 130.97 275.001C130.926 269.205 126.601 264.463 129.891 259.118C133.301 253.577 145.152 234.41 153.019 236.998C158.082 238.664 177.732 264.89 181.626 260.671C186.082 255.843 156.727 226.643 151 226.643C146.162 226.644 141.08 233.894 138.008 237C127.727 247.392 117.916 258.25 107 268z"/>
<path style="fill:#4b0107; stroke:none;" d="M658 225C657.066 231.839 656.854 239.724 652 245C663.435 247.34 660.398 232.076 658 225z"/>
<path style="fill:#39090d; stroke:none;" d="M696 225L696 233C696.968 230.124 696.968 227.876 696 225z"/>
<path style="fill:#231119; stroke:none;" d="M155 226C156.366 230.882 159.6 233.652 164 236C161.758 231.839 158.678 228.928 155 226z"/>
<path style="fill:#050507; stroke:none;" d="M617 226C613.689 234.357 603.162 226.138 598.15 231.15C591.628 237.671 590.945 251.741 584.145 259.135C578.806 264.94 579.803 278.845 574.855 285.287C567.774 294.504 565.598 303.131 560.284 313.589C558.909 316.294 554.647 315.695 554.317 319.115C553.774 324.745 578.57 324.885 581.865 321.855C593.079 311.541 586.117 303.478 590.412 290.216C591.466 286.962 595.499 287.589 596.588 284.589C597.731 281.439 595.738 276.549 598.717 274.15C604.5 269.493 618.793 277.452 623.324 271.297C631.634 260.011 632.104 228.786 617 226z"/>
<path style="fill:#530107; stroke:none;" d="M626.333 226.667C626.278 226.722 626.222 227.778 626.667 227.333C626.722 227.278 626.778 226.222 626.333 226.667z"/>
<path style="fill:#3b0507; stroke:none;" d="M659 226C659.003 233.189 662.764 243.555 654 246C668.563 253.44 667.096 232.811 659 226z"/>
<path style="fill:#31111d; stroke:none;" d="M167 228C173.724 234.514 188.857 237.516 198 239C191.243 232.833 176.01 229.195 167 228z"/>
<path style="fill:#070509; stroke:none;" d="M258 228C260.282 238.354 257.156 238.234 254.102 245.527C253.132 247.844 260.653 249.273 259.429 253.745C257.155 262.051 235.826 252.487 231.008 250.679C227.807 249.478 204.512 239.738 203.786 244.34C202.679 251.346 219.06 249.874 222.189 252.249C229.251 257.607 229.198 266.575 234.259 271.744C240.918 278.545 251.655 284.233 260.72 287.497C263.97 288.667 264.339 294.791 268.568 293.43C273.568 291.819 267.241 284.033 267.08 280.975C266.924 278.019 272.221 270.802 271.611 270.051C267.848 265.422 243.515 267.729 246.891 260.475C249.404 255.074 305.47 276.234 286.921 255.997C285.025 253.929 282.983 251.984 281 250L272 241C267.485 236.485 263.124 231.827 258 228z"/>
<path style="fill:#5b0709; stroke:none;" d="M627.333 228.667C627.278 228.722 627.222 229.778 627.667 229.333C627.722 229.278 627.778 228.222 627.333 228.667z"/>
<path style="fill:#610d13; stroke:none;" d="M673 228C674.881 230.275 676.407 231.597 679 233C677.119 230.725 675.593 229.403 673 228z"/>
<path style="fill:#070509; stroke:none;" d="M412 307C416.569 308.505 423.689 313.691 428.535 312.175C434.206 310.4 430.931 300.23 435.029 296.283C444.454 287.206 463.097 295.686 455 273C464.141 270.634 481.476 251.798 486.391 244.089C487.502 242.346 494.917 232.228 491.06 230.624C484.986 228.099 473.756 243.612 470.184 247.184C451.524 265.844 426.48 284.819 412 307z"/>
<path style="fill:#ad0b1b; stroke:none;" d="M628 229L631 231L628 229z"/>
<path style="fill:#110f17; stroke:none;" d="M79 294C76.4022 294.497 75.5261 294.859 74 297C72.2184 295.857 71.0788 295.406 69 295L71 299C61.7478 305.073 56.0552 302.608 60.3948 290.255C66.295 273.46 106.475 253.266 101.715 233.283C100.74 229.189 91.9375 228.582 89.2598 231.26C82.6892 237.83 81.3783 251.511 70.502 257.182C53.056 266.277 28.5797 253.775 15.8208 274.811C12.3754 280.491 15.633 288.345 22.7203 286.713C31.0654 284.791 38.0683 272.607 43.326 289.354C46.938 300.858 34.8231 312.363 37.5606 320.539C38.9557 324.706 48.142 323.169 51 321.74C61.0555 316.712 72.3279 302.932 79 294z"/>
<path style="fill:#030303; stroke:none;" d="M627 230C627 239.533 631.042 254.871 627.416 263.701C621.051 279.203 580.463 298.072 600 319C602.311 316.737 627.918 330.304 636.111 322.111C640.087 318.135 635.044 306.734 635 302C634.843 285.074 631.385 268.697 629.259 252C628.346 244.826 630.495 236.605 627 230z"/>
<path style="fill:#23050b; stroke:none;" d="M628 230C629.513 255.27 630.79 283.459 637 308C640.044 306.514 640.637 304.978 644 307C645.684 287.702 639.536 267.73 634.875 249C633.386 243.017 633.955 233.056 628 230z"/>
<path style="fill:#170b13; stroke:none;" d="M170 231C185.998 247.028 204.356 275.836 225 285L222 278C225.17 280.739 228.029 282.604 232 284C229.31 273.673 212.495 253.59 204.194 246.556C200.842 243.715 200.814 237.817 197 237C197 239.414 174.404 231.927 170 231z"/>
<path style="fill:#3d1725; stroke:none;" d="M510 284C516.644 283.09 522.464 274.536 527 270L565 232C559.383 231.419 553.636 240.4 550.002 243.981C536.547 257.245 523.122 270.406 510 284z"/>
<path style="fill:#670d11; stroke:none;" d="M632 233C633.326 254.989 641.326 277.407 645.65 299C647.055 306.02 647.209 318.33 653 323C648.077 295.872 631.715 260.392 635 233L632 233z"/>
<path style="fill:#230307; stroke:none;" d="M634 234C635.753 252.525 643.499 269.688 646 288C649.413 276.836 647.496 255.957 657 248C649.969 242.649 642.093 237.559 634 234z"/>
<path style="fill:#810509; stroke:none;" d="M635.667 234.333C635.222 234.778 636.278 234.722 636.333 234.667C636.778 234.222 635.722 234.278 635.667 234.333z"/>
<path style="fill:#170d15; stroke:none;" d="M134 272C139.509 267.114 142.556 257.165 143 250C157.395 253.887 145.323 255.926 145 265C167.09 266.238 176.574 287.175 189.259 299.74C191.316 301.779 200.576 302.094 202.071 299.208C204.044 295.399 191.554 287.876 189.219 285.219C180.195 274.946 157.012 258.468 156 244C163.094 246.79 166.577 253.411 173 257C171.062 252.936 168.428 250.025 165.177 246.926C143.111 225.9 137.622 250.942 134 272z"/>
<path style="fill:#0b090b; stroke:none;" d="M569 235C561.515 245.455 546.929 252.06 537 261L539 264C518.76 266.357 485.936 307.02 474 323C477.752 323 497.944 318.559 486 316C487.61 314.672 488.701 313.617 490 312L487 312C492.225 306.951 499.724 300.377 507 299L506 297C513.735 295.893 516.329 287.259 525 287C527.69 270.403 545 276.816 545 258C546.998 260.089 548.137 261.371 551 262C550.89 258.919 565.373 250.791 568.5 247.5C570.948 244.923 570.044 238.301 571 235L569 235z"/>
<path style="fill:#190f17; stroke:none;" d="M164 236C171.123 249.224 190.801 268.973 204 276C196.6 263.016 177.339 243.124 164 236z"/>
<path style="fill:#150307; stroke:none;" d="M670 236C681.254 257.49 660.444 244.836 655.265 249.329C654.263 250.197 647.69 266.368 646.994 268.394C641.976 282.995 649.703 308.366 653 323C655.1 315.842 652.766 307.405 653 300L657 301C657 292.509 661.52 281.577 661.288 275.081C661.12 270.381 656.893 265.74 659.698 260.722C664.126 252.8 694.707 267.315 681.771 248.059C680.348 245.941 678.525 244.302 676.917 242.348C674.638 239.579 673.336 237.522 670 236z"/>
<path style="fill:#0f0f15; stroke:none;" d="M16.2598 238.26C12.3645 242.155 16.7259 250.787 14.1783 255.499C11.8303 259.841 5.23611 256.004 2.82165 259.822C-1.71583 266.995 1.07367 283.902 12.502 279.499C21.6466 275.977 31.3149 263.183 39.5006 258.821C53.4195 251.403 66.6334 263.488 78.7402 249.781C83.3128 244.604 73.6462 244.011 70.9991 244.001C60.002 243.961 43.6816 247.095 33.2832 243.499C28.797 241.948 23.3227 231.197 16.2598 238.26z"/>
<path style="fill:#111119; stroke:none;" d="M275 245C290.391 260.391 301.349 272.873 322 279.741C325.397 280.871 340.224 287.653 341 283C348.245 284.514 343.996 278.567 349.083 276.477C355.801 273.717 371.992 280.25 377.111 275.111C380.86 271.348 369.273 249.466 366 249L366 244C363.526 244.742 363.388 244.768 361 244C360.545 250.292 354.504 253.423 348.501 250.178C343.747 247.608 348.517 239.486 343.499 237.501C331.251 232.657 283.343 235.39 275 245z"/>
<path style="fill:#2f1321; stroke:none;" d="M366 238C366.44 240.496 367.065 242.643 368 245C368.296 242.141 367.569 240.39 366 238z"/>
<path style="fill:#290707; stroke:none;" d="M695 238L695 247C696.063 243.853 696.063 241.147 695 238z"/>
<path style="fill:#3d0b0f; stroke:none;" d="M694 240C693.987 243.028 694.664 246.062 691 246C692.543 247.267 693.048 247.489 695 248C694.974 245.173 694.914 242.678 694 240z"/>
<path style="fill:#0d070b; stroke:none;" d="M489 269C482.315 270.425 470.301 280.682 472 287C462.537 287.71 463.29 304.9 453 309L453 312C463.079 314.667 467.107 312.297 477 312C474.686 313.852 476.455 317.272 479 316C497.985 306.507 519.733 275.741 533 261C538.566 254.816 549 245.746 549 241C520.553 248.447 505.875 287.459 482.37 302.49C476.83 306.033 471.459 295.599 472.253 291.188C473.862 282.255 488.991 282.792 489 269z"/>
<path style="fill:#190d17; stroke:none;" d="M156 244C156.378 254.852 165.34 258.828 172.209 265.229C184.307 276.504 195.396 290.527 208.211 302.227C213.857 307.381 213.901 317.382 218.26 321.74C221.64 325.12 233.475 323 238 323C234.494 314.442 223.846 306.613 217.134 300.36C200.46 284.829 178.591 249.915 156 244z"/>
<path style="fill:#110b11; stroke:none;" d="M137 246C130.923 257.249 124.427 272.306 130.036 285.178C131.362 288.221 137.932 286.735 140.452 289.247C152.239 300.995 163.593 311.37 175.23 321.751C178.234 324.43 200.055 324.784 201.429 320.568C203.81 313.26 185.331 317.49 182.23 314.208C179.151 310.949 175.343 303.852 171.502 301.821C168.176 300.061 162.883 302.392 160.26 299.178C157.787 296.149 160.497 291.017 157.74 288.26C154.788 285.307 149.084 288.638 146.26 285.178C143.788 282.151 146.5 277.013 143.741 274.261C139.795 270.325 134.87 275.315 134 279C130.423 273.144 137.642 253.666 139 246L137 246z"/>
<path style="fill:#09090b; stroke:none;" d="M207 249C214.499 260.959 223.016 276.086 233.785 285.397C236.593 287.824 240.647 285.869 243.397 288.028C246.561 290.511 244.511 294.421 249 296L247 300C250.878 300.981 271.24 303.833 270.568 297.135C269.753 289.01 255.17 287.196 250.019 283.434C232.296 270.492 230.844 252.647 207 249z"/>
<path style="fill:#130b13; stroke:none;" d="M143 250C142.209 257.977 137.571 264.237 136 272L134 269C132.084 272.328 131.784 275.351 133 279C142.733 264.275 142.118 281.599 146.26 285.74C149.212 288.693 154.916 285.362 157.74 288.822C160.213 291.851 157.503 296.983 160.26 299.74C163.25 302.73 168.905 299.736 172.189 302.811C174.825 305.278 181.843 317.796 186.208 315.149C199.59 307.034 175.61 299.957 174.822 298.499C171.719 292.761 175.5 284.562 173.525 278.435C172.145 274.156 149.61 264.69 145 265C145.646 256.06 158.242 253.384 143 250z"/>
<path style="fill:#11090f; stroke:none;" d="M498 287L491 287C494.239 281.387 500.514 269.68 500.196 263C500.012 259.139 497.547 242.883 490.032 252.603C485.977 257.848 491.651 271.021 488.397 277.682C486.097 282.389 472.073 286.752 471.461 291.156C468.28 314.057 492.532 295.687 498 287z"/>
<path style="fill:#010101; stroke:none;" d="M694 252C696.175 269.416 679.951 306.348 688.84 321.178C691.083 324.92 720.85 324.86 723.178 321.178C725.899 316.878 724 306.954 724 302C724 279.046 716.666 262.797 694 252z"/>
<path style="fill:#1f131d; stroke:none;" d="M410 290L414 289C413.939 292.098 413.654 294.97 413 298C431.677 295.578 439.62 268.718 454 260C433.758 248.327 416.304 270.689 410 290z"/>
<path style="fill:#070709; stroke:none;" d="M563 253C542.049 263.177 539.399 286.119 532.209 304.823C530.275 309.854 517.404 319.885 519.271 321.751C521.956 324.437 539.986 324.479 542.104 321.198C551.75 306.255 550.628 293.723 554.284 277.148C555.969 269.509 562.014 263.352 563 253z"/>
<path style="fill:#0d0b11; stroke:none;" d="M181 255C182.042 258.564 183.162 260.883 179 262C197.295 280.259 215.998 309.38 238.758 321.876C242.743 324.064 276.546 325.061 277.214 320.724C277.766 317.15 259.492 312.893 256 312C256.913 313.696 257.489 315.142 258 317L256 314C252.373 316.115 243.942 305.213 241.333 301.833C233.51 291.698 211.421 268.603 199 267C200.14 270.435 201.889 273.066 204 276C195.651 269.764 189.349 261.236 181 255z"/>
<path style="fill:#130305; stroke:none;" d="M657 301L653 300C652.869 302.605 652.574 328.982 659.278 322.278C662.167 319.388 658.56 307.115 659.139 303.028C659.936 297.404 665.917 295.743 667.667 291.75C669.773 286.942 666.625 280.889 667.139 276.028C667.436 273.215 669.764 258.574 672 261C673.279 255.654 660.999 257.012 659.313 260.318C656.734 265.378 660.885 270.51 661.138 275.112C661.448 280.752 657 292.853 657 301z"/>
<path style="fill:#050507; stroke:none;" d="M299 290C294.415 283.034 282.896 276.513 276.111 272.278C272.433 269.981 275.822 265.073 271.611 262.694C267.996 260.653 237.497 256.052 246.722 265.278C251.543 270.099 267.825 262.089 272.167 270.306C271.735 269.488 266.028 280.352 267.111 284.889C272.214 306.271 287.265 323 310 323C313.655 323 329.947 325.083 331.667 321.667C334.811 315.421 326.807 317.248 325.333 313.889C320.206 302.199 312.774 306.63 304.333 300.278C300.663 297.515 305.226 290.67 302.278 287.722C300.287 285.731 299.278 288.703 299 290z"/>
<path style="fill:#09090b; stroke:none;" d="M545 258C544.997 276.447 526.561 270.484 525 287C515.714 286.23 513.813 295.091 506 297L507 299C499.749 299.812 491.369 306.348 487 312L490 312L486 315C494.846 324.728 519.921 327.828 528.21 314.294C533.139 306.244 529.901 296.92 533.716 289.411C537.635 281.699 557.111 267.922 545 258z"/>
<path style="fill:#030303; stroke:none;" d="M298 290C305.069 283.078 301.407 297.629 303.889 300.111C306.924 303.146 313.205 299.182 316.523 302.477C321.871 307.786 326.896 318.919 333.477 322.523C337.926 324.96 347.948 323 353 323C337.864 303.442 316.348 281.607 296.972 266.139C294.192 263.92 273.619 265.444 274.649 269.864C275.763 274.639 294.139 285.315 298 290z"/>
<path style="fill:#070505; stroke:none;" d="M53 322C56.3718 323.698 82.1023 299.271 82 295C89.4347 296.88 96.8635 297.999 105 301C105.452 288.25 121.862 283.65 111.74 270.59C107.548 265.181 98.6119 276.391 96 279L53 322z"/>
<path style="fill:#470305; stroke:none;" d="M642 271L642 276C642.631 273.994 642.631 273.006 642 271z"/>
<path style="fill:#350101; stroke:none;" d="M643 272C643.096 282.393 646.447 291.854 648 302C650.464 294.607 645.789 279.218 643 272z"/>
<path style="fill:#030307; stroke:none;" d="M600 319C595.973 312.677 595.377 292.958 602.333 287.722C604.347 286.207 620.637 278.49 618.667 274.333C617.523 271.92 599.653 271.791 597.722 273.722C595.336 276.108 597.913 281.907 596.667 284.889C595.422 287.867 591.593 285.84 590.333 288.333C587.036 294.86 591.447 305.825 589.889 312.972C588.925 317.393 583.338 314.403 583.028 319.028C582.603 325.373 603.997 324.703 604.889 320.889C606.049 315.928 602.361 315.413 600 319z"/>
<path style="fill:#0b070b; stroke:none;" d="M306 275C315.26 288.952 337.954 314.79 353 322.278C357.24 324.388 370.771 323.951 374.278 320.278C379.895 314.395 366.665 310.351 365.333 306.889C363.668 302.56 368.265 301.446 369 298C373.869 299.906 377.903 300.091 383 299C361.219 287.867 329.999 279.565 306 275z"/>
<path style="fill:#090709; stroke:none;" d="M457 276C457 301.398 433.752 285.02 430.167 312.167C429.604 316.423 439.588 314.328 442 315.5C460.003 324.251 466.73 325.937 477 312C468.51 311.164 462.009 313.58 453 312L453 309C465.728 306.217 468.307 280.48 457 276z"/>
<path style="fill:#210d19; stroke:none;" d="M222 278C225.543 292.474 243.804 305.646 254 316C254.682 303.142 231.624 284.172 222 278z"/>
<path style="fill:#111115; stroke:none;" d="M3.25977 281.26C0.910295 283.609 0.518121 298.32 4.35451 299.351C7.42387 300.176 9.13147 294.938 12.1469 294.283C19.2528 292.739 37.4816 298.024 42.7294 292.75C45.5564 289.909 41.0014 281.069 37.7168 280.284C27.8817 277.933 28.0395 286.38 20.9597 286.782C15.3179 287.103 10.363 274.157 3.25977 281.26z"/>
<path style="fill:#2b1119; stroke:none;" d="M472 323C486.751 315.147 499.207 297.793 511 286C501.65 286.125 476.613 314.452 472 323z"/>
<path style="fill:#050507; stroke:none;" d="M105 301C100.154 298.479 96.4651 298.003 91 298C92.2543 301.753 94.8808 303.096 91 306C95.1662 308.823 99.7236 312.901 103.792 315.189C106.464 316.692 109.885 315.519 112.717 316.501C117.658 318.212 117.179 325.349 124.499 322.499C133.032 319.175 105.755 261.329 105 301z"/>
<path style="fill:#0d0b11; stroke:none;" d="M130.549 288.26C127.267 290.702 129.457 299.353 132.029 301.77C137.139 306.573 167.239 327.252 172.729 321.751C175.196 319.28 170.797 312.072 168.77 310.248C163.95 305.913 136.23 284.033 130.549 288.26z"/>
<path style="fill:#150d13; stroke:none;" d="M175.26 288.26C173.228 290.288 173.231 297.711 175.26 299.74C178.04 302.521 183.218 299.861 186.178 302.822C189.278 305.921 186.686 310.804 188.822 314.178C190.761 317.244 211.83 325.651 215.74 321.74C230.906 306.574 193.632 301.869 190.501 300.178C186.999 298.287 188.222 292.604 185.474 289.747C183.288 287.473 177.9 285.624 175.26 288.26z"/>
<path style="fill:#09070d; stroke:none;" d="M235 287C241.453 297.702 249.659 306.908 257 317C257.514 314.763 257.182 313.985 256 312C260.697 313.858 294.567 329.61 295.568 319.864C296.063 315.044 287.318 315.775 284.472 313.745C280.509 310.92 275.084 302.906 271.499 301.501C264.405 298.722 254.608 301.633 247 300L249 296C242.349 291.21 244.922 287.021 235 287z"/>
<path style="fill:#291523; stroke:none;" d="M407 311L411 308C410.402 306.805 410.534 307.023 409 306C411.886 303.855 414.432 301.518 417 299C415.494 298.317 414.685 298.174 413 298C413.775 294.956 413.971 292.138 414 289C400.25 292.807 401.21 302 407 311z"/>
<path style="fill:#190305; stroke:none;" d="M634 291C636.145 307.178 631.49 323 651 323C648.761 314.726 646.383 305.566 646 297C644.634 300.258 644.216 303.485 644 307C640.935 304.648 639.774 305.759 637 308C635.79 302.359 636.924 296.078 634 291z"/>
<path style="fill:#0f0f13; stroke:none;" d="M9.18986 295.23C-14.7575 314.424 19.6636 336.548 35.7664 321.748C58.5639 300.794 27.111 280.867 9.18986 295.23z"/>
<path style="fill:#030305; stroke:none;" d="M82 295C82 303.614 58.8006 313.325 56 323L102 323C105.225 323 116.144 324.749 115.568 319.136C115.427 317.767 94.6842 307.92 91 306C97.1712 302.697 86.3456 295.354 82 295z"/>
<path style="fill:#070509; stroke:none;" d="M369 298C364.057 306.564 378.415 320.266 369 321L369 323C389.177 323 392.738 324.191 398 305C387.669 300.293 379.398 301.214 369 298z"/>
<path style="fill:#19090f; stroke:none;" d="M394 303C395.458 304.081 396.248 304.436 398 305C396.323 309.502 396.727 313.291 397 318C406.743 310.676 405.783 305.293 394 303z"/>
<path style="fill:#410103; stroke:none;" d="M649 303L649 308C649.631 305.994 649.631 305.006 649 303z"/>
<path style="fill:#030303; stroke:none;" d="M396 323L458 323C437.621 310.59 411.141 302.01 396 323z"/>
<path style="fill:#57212d; stroke:none;" d="M51 322C56.6857 321.221 61.1105 314.889 65 311C59.3143 311.779 54.8895 318.111 51 322z"/>
<path style="fill:#3d131f; stroke:none;" d="M393 322C398.95 322.246 404.145 314.656 407 310C401.487 312.935 397.384 317.617 393 322z"/>
</svg>
