<?xml version="1.0" standalone="no"?>
<!DOCTYPE svg PUBLIC "-//W3C//DTD SVG 20010904//EN"
 "http://www.w3.org/TR/2001/REC-SVG-20010904/DTD/svg10.dtd">
<svg version="1.0" xmlns="http://www.w3.org/2000/svg"
 width="1024.000000pt" height="1024.000000pt" viewBox="0 0 1024.000000 1024.000000"
 preserveAspectRatio="xMidYMid meet">
<metadata>
Created by potrace 1.16, written by Peter Selinger 2001-2019
</metadata>
<g transform="translate(0.000000,1024.000000) scale(0.100000,-0.100000)"
fill="#000000" stroke="none">
<path d="M5515 10226 c-14 -10 -16 -17 -9 -27 6 -8 11 -29 13 -48 1 -19 9 -40
19 -47 15 -12 15 -15 2 -23 -8 -6 -11 -13 -7 -18 5 -4 12 -1 18 7 8 13 10 13
19 0 9 -13 11 -13 20 0 5 8 10 23 10 33 0 23 17 22 30 -3 6 -11 17 -20 26 -20
11 0 12 -4 4 -19 -15 -28 -13 -32 13 -26 16 4 31 -1 50 -19 17 -16 33 -22 47
-19 17 5 20 1 20 -32 0 -28 7 -43 27 -61 33 -28 98 -41 118 -24 12 10 15 10
15 -2 0 -8 -6 -20 -12 -27 -11 -11 -8 -12 17 -7 29 7 29 7 12 -12 -18 -20 -18
-20 17 -19 36 1 47 10 24 21 -7 3 8 4 33 2 39 -3 46 -1 42 13 -2 9 5 25 16 35
12 11 21 27 21 38 0 19 15 24 25 8 3 -5 16 -10 28 -10 18 0 19 2 7 10 -12 7
-8 10 15 10 23 0 27 -3 15 -10 -12 -8 -10 -10 11 -10 14 0 30 5 37 12 9 9 15
9 24 0 9 -9 8 -12 -7 -12 -14 0 -16 -3 -7 -12 8 -8 15 -8 28 3 9 7 30 12 48
11 25 -2 36 4 56 32 16 22 29 31 35 25 15 -15 23 -11 39 19 8 15 15 21 16 15
0 -19 30 -16 30 2 0 9 7 18 15 21 8 4 15 15 15 25 0 12 5 16 15 13 8 -4 17 1
21 10 7 19 31 21 36 4 3 -9 16 -8 52 2 45 12 48 15 44 42 -3 15 -1 28 4 28 4
0 8 -15 8 -32 1 -30 2 -31 14 -15 17 22 26 22 26 -2 0 -11 5 -23 10 -26 6 -4
10 6 10 22 0 20 3 24 9 14 7 -11 9 -11 14 0 4 12 7 11 16 -1 10 -13 12 -13 21
0 9 13 12 13 21 -2 7 -12 22 -18 49 -18 22 0 40 -4 40 -10 0 -5 17 -10 38 -10
l37 1 -30 14 -30 13 33 1 c22 1 32 -4 32 -14 0 -17 17 -19 153 -17 48 0 87 -3
87 -9 0 -5 -4 -9 -10 -9 -5 0 -10 -6 -10 -14 0 -10 16 -15 56 -18 31 -1 58 0
61 5 10 17 42 6 45 -15 2 -14 11 -24 23 -25 11 -2 14 0 8 3 -7 3 -13 14 -13
25 0 22 23 17 57 -14 17 -15 31 -19 63 -14 22 3 40 1 40 -4 0 -5 -9 -9 -19 -9
-11 0 -23 -4 -26 -10 -3 -6 5 -10 19 -10 15 0 30 8 36 20 6 11 19 20 29 20 10
0 21 -9 24 -20 6 -24 27 -27 27 -4 0 12 6 15 27 10 16 -5 29 -3 33 5 6 8 13 8
26 0 17 -9 17 -10 2 -11 -10 0 -18 -6 -18 -14 0 -8 8 -12 23 -9 12 2 50 0 85
-5 48 -7 67 -6 82 5 17 12 20 12 20 -1 0 -9 -4 -16 -10 -16 -5 0 -10 -5 -10
-11 0 -7 10 -9 25 -5 14 4 25 3 25 -1 0 -5 23 -8 51 -9 27 -1 55 -6 62 -13 14
-14 47 -15 47 -1 0 6 -8 10 -17 10 -15 0 -16 2 -3 9 18 12 30 5 30 -20 0 -10
5 -19 10 -19 6 0 10 8 10 19 0 23 41 36 52 17 14 -25 61 -38 94 -25 l29 12
-24 6 c-14 4 -26 13 -29 21 -2 10 -1 11 5 3 4 -6 25 -14 46 -18 20 -4 37 -11
37 -16 0 -5 17 -9 38 -9 21 0 48 -7 61 -16 17 -12 26 -13 34 -5 18 18 30 13
25 -13 -4 -19 -1 -22 15 -18 12 3 25 -2 33 -13 13 -17 14 -17 20 0 7 18 8 18
15 -1 7 -20 8 -20 24 31 2 8 9 15 15 15 6 0 13 -7 15 -15 3 -8 7 -22 10 -30 4
-13 9 -14 27 -4 20 11 20 13 5 18 -9 3 10 7 43 7 32 0 57 -3 54 -8 -3 -4 -13
-8 -22 -8 -9 0 1 -9 22 -21 21 -11 42 -17 45 -12 3 5 15 13 26 18 19 7 19 8
-5 16 -18 6 -14 7 15 3 22 -3 42 -10 43 -15 2 -5 39 -9 82 -9 66 0 79 -3 83
-17 3 -11 5 -7 6 10 0 16 7 34 14 41 19 20 47 -4 47 -40 1 -25 2 -26 11 -11
14 24 28 21 35 -8 5 -21 8 -23 18 -11 7 9 42 16 96 21 47 4 89 12 93 18 5 7 6
3 2 -9 -3 -13 1 -26 10 -34 13 -10 15 -9 15 9 0 26 17 28 22 2 3 -19 3 -19 26
-1 13 11 20 25 17 31 -6 8 -10 7 -16 -2 -6 -10 -9 -10 -9 -2 0 20 18 24 34 7
20 -19 20 -31 1 -41 -9 -6 12 -10 58 -13 120 -6 161 -5 186 4 16 6 21 5 17 -3
-4 -6 -16 -11 -27 -11 -10 0 -19 -5 -19 -11 0 -7 7 -8 18 -3 9 4 45 10 80 12
34 2 62 8 62 13 0 5 18 9 40 9 22 0 40 -4 40 -10 0 -14 27 -12 33 3 4 9 8 9
15 -2 16 -22 44 -5 38 21 -3 13 -3 17 0 11 3 -7 14 -13 24 -13 10 0 21 6 23
13 4 9 6 9 6 -1 1 -8 10 -10 29 -7 24 6 25 5 8 -6 -15 -9 -16 -13 -5 -21 11
-7 11 -11 2 -15 -7 -2 -13 -12 -13 -21 1 -15 2 -15 14 1 16 21 25 21 48 0 17
-15 18 -15 18 10 0 16 -7 27 -17 30 -17 4 -17 5 0 6 16 1 17 19 17 236 l0 235
-2353 0 c-1995 0 -2356 -2 -2372 -14z"/>
<path d="M3904 10190 c-15 -6 -21 -17 -21 -36 0 -16 -9 -35 -22 -45 -25 -21
-27 -35 -4 -48 14 -7 15 -12 5 -24 -10 -12 -9 -16 4 -21 10 -4 22 -2 28 4 5 5
21 10 36 10 14 1 36 7 49 14 23 13 26 11 46 -18 11 -17 27 -32 35 -33 20 -4
46 14 37 24 -5 4 -12 1 -17 -7 -8 -13 -12 -12 -24 5 -19 25 -20 37 -4 53 10
10 7 12 -12 10 -20 -2 -24 1 -22 15 2 11 -4 24 -14 31 -13 10 -14 15 -5 21 9
5 4 11 -14 21 -15 8 -33 14 -40 14 -7 0 -15 4 -17 9 -1 5 -13 5 -24 1z"/>
<path d="M3027 10092 c-5 -7 -14 -12 -20 -11 -32 4 -47 -2 -47 -20 0 -12 -8
-21 -22 -24 -23 -4 -23 -4 2 -15 18 -8 20 -11 8 -11 -10 -1 -18 -8 -18 -16 0
-18 16 -20 23 -2 3 6 6 0 6 -15 1 -25 5 -28 35 -28 40 0 58 -17 24 -22 -19 -3
-14 -7 24 -23 30 -13 49 -28 52 -42 5 -16 16 -23 48 -28 41 -7 42 -8 18 -18
-25 -10 -25 -10 10 -17 l35 -6 -30 -11 -30 -11 30 -2 c18 -2 23 -4 12 -7 -16
-4 -15 -6 5 -22 13 -10 38 -24 56 -32 17 -8 32 -17 32 -21 0 -5 8 -8 18 -8 16
1 16 1 0 14 -23 17 -23 26 0 26 19 0 54 -35 45 -44 -4 -3 -1 -6 5 -6 16 0 16
47 0 52 -6 2 -8 10 -4 16 12 19 26 4 26 -29 0 -16 5 -29 10 -29 6 0 10 7 10
15 0 8 5 15 10 15 6 0 10 -7 10 -15 0 -8 7 -15 15 -15 11 0 12 5 5 25 -5 14
-7 32 -3 42 4 11 3 14 -5 9 -7 -4 -12 -14 -12 -22 0 -9 -5 -12 -11 -8 -6 3 -9
19 -5 35 5 24 2 29 -14 29 -22 0 -27 16 -7 23 10 4 10 6 0 6 -7 1 -13 10 -13
22 0 16 4 19 20 14 22 -7 60 10 60 28 0 8 -3 8 -9 -2 -6 -9 -20 -12 -40 -9
-17 2 -32 0 -34 -6 -2 -6 -16 -4 -38 6 -29 15 -34 15 -37 3 -4 -17 -22 -21
-22 -5 0 6 -7 10 -15 10 -23 0 -76 30 -71 39 3 4 -5 6 -18 4 -20 -4 -25 0 -31
25 -3 17 -14 33 -23 37 -15 6 -15 8 3 15 18 8 17 9 -7 9 -24 1 -28 5 -28 31 0
19 -5 30 -14 30 -8 0 -16 8 -18 18 -3 13 -5 14 -11 4z"/>
<path d="M4464 9946 c-11 -13 -30 -27 -42 -30 -12 -4 -22 -13 -22 -21 0 -18
-25 -26 -39 -12 -6 6 -31 10 -55 8 -24 -1 -47 2 -51 8 -8 14 -30 14 -78 0
l-37 -10 27 -24 28 -24 -28 -1 c-18 0 -27 -5 -24 -12 2 -7 10 -13 17 -13 17 0
24 -21 11 -30 -17 -10 -13 -35 7 -35 16 -1 16 -1 0 -14 -23 -17 -23 -26 0 -26
10 0 24 -11 30 -25 7 -14 17 -36 23 -49 8 -17 8 -29 0 -45 -6 -11 -16 -31 -22
-43 -9 -17 -9 -23 0 -26 6 -2 11 -8 11 -13 0 -6 -4 -7 -10 -4 -11 7 -25 -39
-15 -54 3 -6 0 -11 -7 -11 -8 0 -6 -5 5 -11 12 -7 16 -17 12 -30 -5 -14 0 -21
19 -29 31 -12 34 -20 5 -13 -16 4 -20 2 -17 -8 2 -8 17 -15 31 -17 31 -4 36
-18 10 -25 -11 -3 -7 -5 10 -6 16 0 26 -5 22 -11 -4 -6 5 -10 21 -10 15 0 36
-8 46 -17 15 -13 45 -17 151 -21 73 -2 135 -9 138 -14 4 -5 13 -3 22 6 8 9 24
16 34 16 10 0 37 9 61 20 36 16 42 17 42 4 0 -9 6 -14 13 -11 6 2 11 10 9 16
-1 6 10 17 25 23 16 7 30 15 33 19 3 3 14 9 25 14 19 7 19 8 -5 16 -18 6 -12
7 18 3 27 -4 42 -2 42 5 0 6 11 16 24 22 22 10 40 41 37 62 -1 4 3 7 8 7 5 0
17 19 26 43 19 46 23 170 6 191 -6 7 -8 21 -5 32 3 12 -1 26 -9 33 -8 6 -13
21 -10 31 3 11 0 20 -6 20 -15 0 -14 27 2 34 6 3 2 3 -10 0 -13 -3 -23 -1 -23
5 0 6 -6 10 -12 9 -8 -2 -14 11 -16 36 -3 37 -4 38 -37 34 -18 -2 -32 -1 -29
3 6 10 -34 19 -83 19 -23 0 -44 -5 -47 -12 -5 -10 -7 -10 -12 0 -6 13 -74 17
-74 4 0 -5 -34 -9 -75 -9 -41 0 -75 4 -75 9 0 4 -9 8 -20 8 -11 0 -20 7 -20
15 0 21 -12 18 -36 -9z"/>
<path d="M10120 9333 c-52 -25 -96 -50 -98 -54 -2 -5 -7 -9 -12 -9 -10 0 -220
-130 -238 -147 -7 -7 -18 -13 -24 -13 -10 0 -55 -33 -89 -65 -9 -8 -20 -15
-25 -15 -5 0 -22 -12 -37 -26 -15 -14 -68 -52 -119 -86 -50 -33 -129 -97 -177
-142 -71 -68 -189 -159 -391 -299 -137 -95 -131 -93 -385 -164 -103 -29 -408
-141 -505 -185 -137 -63 -166 -76 -205 -88 -22 -7 -44 -16 -49 -21 -6 -5 -19
-9 -29 -9 -10 0 -21 -9 -24 -20 -3 -11 -11 -20 -19 -20 -7 0 -12 6 -10 13 1 6
1 9 -1 5 -3 -5 -14 -8 -25 -8 -28 0 -79 -32 -74 -46 6 -16 -20 -25 -50 -18
-18 5 -24 2 -24 -10 0 -8 -9 -20 -20 -26 -11 -6 -20 -7 -20 -3 0 4 -5 2 -11
-4 -6 -6 -18 -9 -25 -6 -8 3 -14 0 -14 -6 0 -6 -9 -11 -20 -11 -11 0 -20 -4
-20 -10 0 -5 -8 -10 -19 -10 -10 0 -24 -7 -31 -15 -7 -8 -19 -15 -27 -15 -8 0
-11 -5 -8 -11 4 -6 -2 -13 -14 -16 -11 -3 -18 -10 -15 -15 4 -7 -5 -8 -26 -3
-24 5 -31 4 -25 -5 4 -7 -2 -18 -14 -26 -36 -26 -13 -33 32 -11 72 35 76 37
88 37 20 0 -10 -27 -37 -34 -14 -4 -42 -23 -62 -42 -27 -26 -42 -34 -59 -30
-15 4 -26 0 -37 -16 -9 -12 -16 -19 -16 -15 0 4 -11 -4 -25 -18 -14 -14 -32
-25 -39 -25 -7 0 -21 -9 -31 -20 -10 -11 -24 -20 -30 -20 -7 0 -18 -6 -24 -14
-6 -7 -25 -16 -41 -19 -30 -7 -76 -44 -66 -55 4 -3 12 3 20 13 10 14 15 15 21
5 9 -15 -41 -59 -67 -60 -10 0 -18 -5 -18 -12 0 -6 -3 -8 -7 -5 -3 4 -14 0
-23 -8 -9 -8 -39 -26 -66 -40 -45 -23 -66 -39 -171 -132 -20 -18 -43 -33 -50
-33 -7 0 -13 -8 -13 -17 0 -15 -2 -16 -10 -3 -13 19 -13 33 0 25 5 -3 23 7 39
22 17 15 46 42 65 60 27 25 32 34 21 43 -9 8 -14 5 -18 -10 -3 -11 -9 -19 -14
-18 -4 2 -19 -5 -33 -15 -60 -43 -134 -86 -141 -81 -5 2 -18 -5 -29 -16 -11
-11 -25 -18 -30 -15 -6 4 -10 1 -10 -5 0 -6 -5 -8 -10 -5 -6 4 -7 12 -3 18 4
7 1 7 -9 -1 -9 -8 -14 -20 -11 -28 6 -17 -23 -19 -33 -2 -5 8 -10 7 -18 -4 -6
-8 -20 -18 -32 -22 -11 -3 -27 -18 -34 -31 -9 -16 -17 -22 -23 -16 -22 22 -71
-19 -62 -51 4 -15 3 -18 -2 -10 -7 9 -14 8 -30 -7 -11 -10 -34 -26 -51 -35
-17 -9 -37 -25 -46 -37 -8 -12 -19 -18 -25 -14 -6 3 -11 1 -11 -4 0 -6 -9 -11
-20 -11 -10 0 -24 -9 -30 -21 -6 -11 -17 -18 -23 -16 -6 2 -27 -7 -46 -20 -18
-13 -40 -23 -47 -23 -7 0 -16 -5 -20 -12 -5 -7 0 -9 14 -6 14 4 22 1 24 -10 3
-13 5 -12 18 3 8 11 10 16 3 12 -6 -4 -14 -3 -18 3 -6 9 4 12 53 14 9 1 28 12
41 26 12 14 29 25 37 25 14 0 47 20 73 45 27 25 68 49 75 43 6 -6 -35 -45 -88
-83 -20 -14 -36 -31 -36 -38 0 -7 -3 -11 -7 -9 -5 3 -21 -1 -38 -9 -22 -10
-24 -13 -8 -10 19 3 21 1 13 -14 -12 -22 -23 -30 -47 -35 -10 -2 -38 -8 -63
-13 -25 -6 -66 -15 -92 -21 -26 -6 -55 -8 -64 -4 -13 5 -16 2 -12 -9 4 -10 -5
-20 -30 -33 -44 -20 -159 -34 -148 -17 9 16 -73 20 -103 5 -13 -6 -27 -15 -30
-20 -3 -4 -32 -17 -64 -28 -32 -11 -57 -25 -55 -30 1 -6 6 -9 10 -8 4 2 40 8
80 13 40 6 88 18 107 27 45 21 107 28 115 14 4 -6 1 -13 -6 -15 -7 -2 -51 -15
-98 -29 -128 -38 -139 -40 -225 -42 -44 -2 -95 -6 -114 -9 -31 -6 -33 -5 -20
10 12 14 11 16 -6 12 -11 -2 -19 -10 -17 -17 5 -21 -16 -38 -63 -51 -25 -7
-48 -17 -51 -22 -3 -5 -13 -3 -22 4 -12 10 -16 10 -19 1 -3 -7 -10 -13 -17
-13 -7 0 -21 -7 -32 -16 -10 -8 -13 -13 -6 -9 6 3 12 1 12 -5 0 -7 -7 -9 -16
-6 -15 6 -142 -56 -155 -76 -9 -14 -69 -21 -69 -8 0 6 -5 8 -11 4 -8 -4 -9 1
-4 16 l7 23 -29 -21 c-16 -11 -36 -22 -43 -24 -8 -2 -21 -9 -28 -15 -7 -7 -26
-13 -42 -13 -16 0 -40 -4 -54 -9 -19 -8 -23 -15 -18 -33 5 -22 5 -23 -13 -4
-16 15 -20 16 -29 4 -6 -7 -18 -12 -26 -11 -10 2 -16 -4 -17 -17 -1 -16 4 -20
28 -20 37 0 38 -16 1 -23 -15 -3 -38 -15 -51 -26 -28 -25 -41 -27 -41 -6 0 19
-14 19 -32 2 -7 -7 -22 -18 -33 -25 -19 -11 -19 -11 5 -13 l25 -1 -25 -11
c-19 -9 -25 -20 -25 -44 0 -18 2 -33 5 -33 3 0 18 18 34 40 17 22 33 40 38 40
15 0 8 -37 -11 -62 -11 -14 -20 -33 -20 -44 -1 -10 -3 -42 -6 -70 -3 -40 -1
-51 10 -51 8 0 15 7 15 14 0 8 -4 11 -10 8 -5 -3 -10 -1 -10 4 0 17 47 13 54
-4 3 -8 3 -23 0 -32 -4 -13 -2 -13 8 2 14 23 48 22 48 -1 0 -8 11 -14 28 -15
15 0 21 -3 15 -6 -14 -5 -18 -25 -6 -21 9 3 60 -29 81 -49 10 -9 19 -10 33 -3
15 8 19 7 19 -5 0 -8 7 -15 15 -15 9 0 15 -10 16 -22 0 -13 3 -18 5 -12 4 9
14 9 40 1 28 -9 37 -8 44 3 6 10 14 7 34 -14 14 -15 30 -25 35 -21 7 3 11 -3
11 -14 0 -12 5 -21 10 -21 6 0 10 5 10 10 0 6 7 10 15 10 8 0 15 7 15 15 0 8
6 15 14 15 8 0 16 -7 20 -15 3 -9 0 -15 -10 -15 -8 0 -12 -4 -9 -10 9 -15 65
-12 65 3 1 14 69 51 79 42 3 -4 -4 -15 -16 -25 -23 -19 -30 -40 -14 -40 6 0
12 4 15 8 6 10 48 8 65 -2 15 -10 109 84 161 162 19 28 38 52 43 52 7 0 -16
-46 -47 -92 -10 -15 -14 -33 -10 -40 4 -7 4 -10 -1 -6 -4 4 -19 -4 -32 -18
-30 -32 -57 -84 -43 -84 5 0 10 6 10 13 0 18 36 51 48 43 5 -3 19 14 31 39 23
46 109 140 119 130 4 -3 0 -10 -8 -15 -8 -5 -11 -12 -7 -16 4 -4 15 1 26 10
15 14 21 15 27 4 4 -7 4 -10 -1 -6 -4 4 -14 0 -21 -10 -9 -13 -10 -20 -1 -31
9 -11 9 -15 -1 -18 -6 -3 -10 -8 -7 -13 3 -4 26 13 52 39 27 26 64 59 84 73
20 15 56 47 79 72 24 25 52 48 62 52 22 7 122 130 132 162 4 12 12 20 17 16 6
-3 29 14 52 38 100 104 346 282 364 264 4 -3 1 -6 -6 -6 -6 0 -11 -8 -9 -17 2
-12 -24 -35 -87 -75 -49 -32 -97 -61 -105 -65 -45 -20 -122 -101 -182 -192
-10 -14 -18 -20 -18 -13 0 6 -40 -28 -90 -76 -49 -49 -92 -86 -95 -83 -4 3 -3
-2 0 -10 7 -19 -69 -90 -129 -121 -21 -11 -53 -34 -71 -51 -45 -45 -72 -60
-79 -44 -3 7 -4 -1 -3 -17 1 -17 -4 -31 -12 -34 -9 -3 -11 0 -6 8 5 8 4 11 -2
7 -12 -8 -24 -47 -14 -45 3 0 11 -1 16 -2 6 -2 21 -3 34 -4 28 -1 41 -26 14
-27 -16 0 -16 -1 2 -8 25 -10 45 -3 45 15 0 15 12 19 23 7 4 -3 1 -13 -6 -21
-10 -13 -9 -15 6 -9 10 4 21 7 23 7 3 0 2 5 -2 12 -4 6 3 4 17 -5 31 -22 42
-21 29 2 -14 28 -13 36 5 21 12 -10 16 -9 21 4 3 9 12 16 20 16 18 0 18 -9 -3
-32 -9 -11 -11 -18 -5 -18 7 0 15 -1 19 -2 4 -2 8 12 8 30 1 40 30 64 40 33 5
-17 10 -19 31 -11 29 11 42 23 67 62 10 17 23 25 32 22 12 -5 12 -9 -4 -23
-10 -9 -28 -32 -39 -51 -18 -32 -19 -36 -4 -50 14 -13 15 -12 9 3 -4 12 -1 17
11 17 10 0 23 5 29 11 6 6 16 8 22 5 7 -5 2 -16 -14 -30 l-25 -23 52 4 c28 2
57 8 63 13 7 5 15 7 19 3 4 -4 21 -8 37 -9 23 -1 35 6 51 27 25 34 43 38 35 9
-4 -15 0 -20 13 -20 10 0 21 8 23 18 4 16 5 16 6 -1 1 -15 5 -13 26 10 24 27
24 27 25 6 0 -31 18 -29 32 2 7 15 17 24 25 21 9 -4 11 -1 7 5 -4 8 1 9 15 4
16 -5 21 -2 21 11 0 10 3 14 6 11 4 -3 18 3 32 13 33 27 43 25 32 -6 -14 -35
-14 -34 20 -23 17 6 30 14 30 19 0 4 11 19 24 33 13 14 31 36 39 47 18 26 158
181 205 226 17 18 32 37 32 42 0 5 9 17 20 27 11 10 20 13 20 7 0 -6 -5 -14
-11 -17 -6 -4 -8 -13 -5 -21 3 -8 0 -14 -7 -14 -7 0 -18 -9 -24 -19 -11 -18
-10 -18 18 -8 17 7 29 19 29 29 0 10 27 46 59 81 l60 62 10 -27 c9 -25 6 -31
-41 -78 -55 -53 -63 -57 -71 -37 -4 7 -6 6 -6 -4 -1 -9 -18 -30 -38 -45 -39
-31 -194 -182 -228 -223 l-20 -25 40 24 c22 13 44 27 49 32 6 4 16 8 23 8 11
0 11 -4 1 -20 -7 -11 -18 -20 -24 -20 -13 0 -28 -30 -19 -39 8 -8 63 53 110
123 22 33 60 78 84 100 24 23 56 53 71 69 15 15 30 27 34 27 13 0 -35 -80 -55
-90 -20 -11 -109 -140 -109 -158 0 -6 8 -9 18 -7 9 2 20 4 24 4 4 1 5 7 3 14
-5 12 52 57 72 57 7 0 20 11 30 24 45 56 273 235 357 278 28 14 56 30 61 35
27 23 110 73 122 73 8 0 23 9 35 20 12 11 24 18 26 15 9 -9 -32 -47 -64 -61
-26 -11 -46 -28 -126 -115 -10 -11 -18 -26 -18 -35 0 -11 15 -3 47 25 32 27
51 37 59 30 7 -6 16 -4 24 6 7 8 18 15 25 15 7 0 18 7 25 15 7 8 19 15 28 15
9 0 27 10 40 23 16 14 23 17 20 7 -2 -8 -22 -25 -44 -37 -33 -18 -59 -37 -103
-73 -3 -3 -12 -15 -19 -28 -10 -18 -10 -27 -1 -38 10 -12 14 -12 25 3 13 17
14 17 7 -2 -3 -11 -19 -36 -35 -55 -15 -19 -28 -39 -28 -45 0 -10 -63 -65 -74
-65 -4 0 -6 7 -6 16 0 15 -6 12 -77 -46 -20 -17 -39 -11 -40 12 -2 18 0 20 7
8 9 -13 11 -13 19 0 5 8 7 18 5 22 -3 4 6 8 20 8 27 0 41 14 31 30 -4 6 -16 3
-31 -6 -13 -9 -27 -14 -31 -10 -9 8 -8 9 74 49 48 24 73 32 77 24 2 -7 5 -4 5
6 1 9 7 17 15 17 15 0 29 27 21 40 -7 12 -29 3 -94 -38 -29 -19 -50 -29 -46
-22 5 9 4 11 -3 6 -7 -4 -12 -14 -12 -22 0 -8 -4 -14 -10 -14 -5 0 -10 5 -10
12 0 6 -9 3 -20 -7 -11 -10 -18 -25 -16 -34 7 -22 -13 -44 -49 -57 -18 -6 -29
-17 -29 -26 2 -19 -42 -65 -52 -55 -4 4 4 15 17 26 13 11 22 22 19 24 -3 3
-18 -6 -34 -20 -23 -20 -26 -27 -15 -33 11 -7 11 -12 1 -22 -17 -17 -15 -28 7
-28 24 0 45 25 35 42 -4 7 -4 10 1 6 4 -4 18 6 32 23 14 16 32 29 40 29 11 0
8 -8 -11 -31 -14 -17 -26 -39 -26 -50 0 -20 19 -20 145 -4 17 2 25 1 18 -1 -7
-3 -9 -12 -7 -19 7 -17 -39 -65 -61 -65 -11 0 -15 -11 -15 -41 0 -28 -4 -39
-12 -37 -7 3 -29 -10 -48 -28 -19 -18 -37 -29 -40 -24 -3 4 -16 0 -29 -11 -14
-12 -18 -19 -9 -19 8 0 18 4 24 10 6 6 9 -6 7 -38 -3 -73 -5 -79 -11 -54 -10
33 -28 23 -24 -13 2 -22 -4 -34 -19 -43 -19 -12 -20 -12 -14 9 5 14 4 19 -4
15 -14 -9 -14 -43 -1 -51 6 -3 10 -12 10 -18 0 -7 -4 -6 -10 3 -5 8 -11 12
-14 10 -8 -9 -11 -128 -3 -136 10 -11 27 -13 142 -17 55 -3 85 -3 68 0 l-33 4
0 63 c0 34 5 67 12 74 8 8 8 15 0 24 -19 23 1 35 67 41 34 4 69 11 77 18 8 6
14 9 14 5 0 -3 11 -1 25 4 22 8 25 7 26 -13 0 -22 0 -22 10 2 5 13 11 43 13
65 2 23 5 43 6 46 1 3 3 10 4 15 5 24 26 65 34 65 5 0 17 15 27 34 18 33 40
41 28 11 -3 -8 0 -15 7 -15 6 0 8 -4 5 -10 -11 -17 10 -11 33 10 12 12 23 16
27 10 11 -18 23 -11 34 20 5 17 17 30 26 30 10 0 13 5 9 13 -5 7 -1 7 10 -2
15 -13 19 -13 27 0 5 8 9 10 9 6 0 -5 7 -1 16 8 25 24 30 8 8 -23 -16 -22 -18
-31 -9 -49 10 -19 12 -20 21 -5 10 15 13 15 38 -1 15 -10 24 -22 21 -26 -2 -5
5 -11 16 -14 17 -5 21 -12 17 -36 -4 -27 -1 -31 18 -31 13 0 28 9 34 20 6 11
19 20 29 20 14 0 18 -5 14 -20 -5 -18 0 -20 49 -20 48 0 54 -2 54 -20 -1 -10
4 -18 9 -17 11 2 15 86 4 93 -4 2 -14 -3 -22 -11 -21 -20 -33 -19 -55 5 -20
22 -20 22 13 118 4 11 8 11 20 -1 12 -12 12 -21 4 -47 -14 -39 -5 -49 21 -25
19 18 20 17 20 -4 0 -18 3 -20 19 -11 25 13 61 13 61 0 0 -5 -4 -10 -9 -10 -4
0 -11 -25 -14 -57 -6 -56 -19 -76 -44 -66 -8 3 -13 -2 -13 -13 0 -16 -2 -16
-10 -4 -9 15 -10 14 -25 -37 -5 -17 -4 -17 8 -1 8 10 17 15 20 12 3 -3 16 1
29 10 12 9 30 16 39 16 9 0 28 9 42 20 14 11 35 20 46 20 14 0 21 6 21 19 0
19 96 101 119 101 6 0 14 7 17 15 3 8 22 25 42 37 21 12 64 41 97 65 62 45
103 59 72 25 -25 -27 -21 -35 8 -16 30 20 32 12 4 -27 -11 -16 -17 -29 -13
-29 4 0 -2 -9 -14 -20 -12 -12 -22 -25 -22 -30 0 -6 -8 -10 -17 -11 -12 0 -13
-2 -5 -6 10 -4 10 -8 1 -19 -9 -11 -8 -14 4 -14 9 0 18 4 21 9 3 5 44 27 90
50 46 22 87 48 90 57 3 8 6 34 6 56 0 34 17 68 34 68 2 0 2 -38 -1 -84 -3 -50
-1 -91 5 -102 10 -17 12 -16 22 11 7 17 9 53 7 80 -6 54 9 121 27 128 8 3 11
-18 9 -72 l-2 -76 19 25 c18 24 20 24 36 8 15 -14 15 -20 4 -33 -11 -13 -15
-13 -22 -3 -13 20 -29 -12 -20 -42 4 -14 7 -91 6 -173 0 -81 3 -142 8 -135 5
9 8 6 8 -9 0 -12 -5 -23 -11 -25 -6 -2 -9 -14 -7 -26 5 -33 25 -13 31 32 5 36
18 53 42 55 6 0 12 22 15 48 l5 48 103 3 c97 3 104 1 109 -18 6 -24 23 -27 23
-4 0 9 9 18 20 21 11 3 20 10 20 15 0 5 5 6 10 3 6 -3 10 2 10 12 0 11 6 28
14 39 12 15 17 17 27 7 7 -7 24 -13 38 -13 l24 0 -21 19 c-23 19 -30 65 -12
76 6 3 10 -1 10 -9 0 -22 32 -36 53 -25 10 6 23 25 30 42 l13 32 19 -43 c18
-40 20 -42 33 -25 7 10 16 18 20 17 4 0 6 7 4 17 -2 9 2 20 8 24 8 5 10 -1 8
-16 -2 -18 1 -23 15 -21 23 4 22 -11 -3 -33 -11 -10 -22 -26 -25 -36 -4 -11
-11 -17 -16 -14 -10 7 -69 -25 -69 -37 0 -4 8 -8 19 -8 24 0 37 -19 36 -52 -1
-22 2 -25 16 -17 10 5 21 14 24 19 4 6 31 26 62 46 62 40 125 95 86 75 -15 -8
-23 -8 -23 -1 0 5 5 10 10 10 16 0 12 27 -5 34 -10 4 -29 -7 -51 -29 -19 -19
-40 -35 -47 -35 -9 0 -9 2 0 8 7 4 20 25 28 47 13 29 19 35 26 24 5 -8 9 -9 9
-3 0 5 -9 20 -20 32 -24 25 -25 32 -5 32 9 0 15 -9 15 -21 0 -18 2 -19 15 -9
8 7 15 18 15 24 0 6 17 34 39 62 21 28 40 61 43 75 3 13 9 33 13 43 6 14 5 17
-4 11 -10 -6 -10 -2 0 16 12 21 14 22 17 6 4 -18 5 -18 23 -1 13 12 19 13 19
4 0 -7 -8 -19 -17 -27 -12 -9 -14 -16 -7 -19 7 -3 10 -15 8 -27 -3 -16 0 -13
10 8 30 60 66 145 72 172 4 16 12 31 18 35 7 5 6 8 -4 8 -12 0 -14 10 -12 43
2 25 9 44 16 44 7 0 10 -12 8 -34 -2 -18 0 -33 6 -33 16 0 42 47 42 76 0 40
21 101 42 123 10 11 18 25 18 31 0 6 7 13 15 16 16 7 21 54 6 54 -5 0 -13 -9
-16 -20 -3 -11 -13 -20 -21 -20 -11 0 -13 4 -6 16 5 9 7 25 5 35 -4 15 0 19
21 19 20 0 26 5 26 21 0 18 -2 19 -15 9 -13 -11 -15 -8 -15 19 0 17 5 31 10
31 6 0 10 7 10 15 0 8 -4 15 -10 15 -11 0 -13 46 -4 114 4 28 12 46 20 46 9 0
10 8 4 29 -4 15 -4 34 0 41 16 26 25 -16 23 -112 -1 -62 2 -98 9 -98 6 0 8 -9
5 -20 -3 -11 -2 -20 2 -20 12 0 31 73 22 84 -12 16 -29 126 -21 131 5 3 11 32
15 65 4 33 15 76 26 97 10 20 16 39 12 42 -3 3 -8 0 -10 -6 -8 -23 -23 -14
-23 14 0 26 16 90 47 185 8 26 12 52 8 58 -7 12 15 80 27 80 4 0 9 -17 10 -37
3 -63 6 -106 11 -153 3 -25 0 -50 -5 -57 -5 -7 -7 -16 -4 -22 3 -5 -1 -41 -9
-81 -8 -39 -15 -85 -15 -102 0 -39 -28 -98 -44 -92 -8 3 -13 -5 -13 -25 0 -22
4 -28 12 -21 7 5 14 7 17 4 4 -3 9 8 13 25 10 46 28 39 20 -8 -4 -23 -2 -42 4
-45 7 -4 6 -16 0 -36 -6 -16 -8 -37 -6 -47 4 -16 6 -15 12 5 13 39 28 25 23
-22 -5 -39 -3 -43 13 -39 11 3 19 13 19 22 0 9 11 33 25 53 14 20 25 41 25 45
0 4 11 22 24 38 42 52 39 20 -4 -43 -23 -34 -39 -65 -36 -70 3 -5 -1 -15 -9
-22 -8 -7 -15 -19 -15 -26 0 -8 -7 -14 -15 -14 -9 0 -15 -9 -15 -22 0 -13 -8
-32 -17 -43 -14 -18 -15 -19 -9 -1 5 15 4 17 -8 7 -17 -14 -28 -51 -15 -51 5
0 9 5 9 10 0 6 7 10 15 10 8 0 15 -7 15 -16 0 -8 -4 -12 -10 -9 -5 3 -10 2
-10 -4 0 -5 8 -12 18 -14 14 -4 14 -6 -5 -12 -16 -5 -23 -15 -23 -31 0 -13 -4
-24 -10 -24 -5 0 -10 -11 -10 -25 0 -14 -4 -25 -10 -25 -5 0 -12 -17 -16 -37
-4 -21 -15 -49 -25 -62 -28 -35 -23 -48 6 -17 14 15 25 35 26 44 0 14 2 13 8
-3 5 -11 5 -24 1 -30 -9 -12 -33 -84 -35 -105 -2 -15 -15 -59 -40 -130 -6 -19
-17 -34 -23 -33 -7 2 -12 -5 -12 -15 0 -10 -7 -27 -15 -38 -13 -18 -14 -18
-15 -1 0 16 -2 17 -15 3 -8 -8 -15 -20 -15 -26 0 -7 7 -10 15 -6 26 10 17 -33
-12 -60 -15 -14 -23 -25 -18 -24 6 1 19 -1 31 -5 20 -6 20 -8 -9 -37 -21 -21
-27 -32 -18 -37 9 -6 8 -11 -4 -21 -12 -10 -15 -10 -16 1 -1 23 -18 -24 -18
-53 -1 -29 -47 -72 -139 -128 -28 -17 -50 -36 -47 -41 4 -5 0 -6 -8 -3 -8 3
-18 0 -23 -7 -4 -7 -3 -10 3 -6 6 4 15 -5 21 -18 11 -24 0 -36 -13 -15 -3 6
-11 10 -18 10 -8 0 -8 -3 1 -12 13 -13 17 -62 4 -54 -8 4 -14 -45 -16 -126 -1
-26 -16 -42 -16 -17 0 5 -4 7 -10 4 -18 -11 -11 -25 13 -26 18 -1 18 -2 4 -6
-11 -3 -16 -11 -13 -19 3 -7 1 -16 -5 -20 -23 -14 2 -30 67 -41 l69 -12 -65 4
c-45 4 -61 2 -54 -5 10 -10 72 -22 184 -37 56 -7 45 8 -13 18 l-42 6 38 2 c21
0 50 -5 65 -13 30 -15 69 -23 152 -31 30 -3 60 -8 67 -10 7 -2 10 2 6 12 -5
13 -3 14 15 4 22 -12 26 -10 57 34 14 20 14 20 15 -2 0 -16 4 -21 16 -16 13 5
15 2 9 -15 -5 -18 -2 -22 15 -22 12 0 62 -12 113 -26 51 -14 97 -27 102 -28 6
-1 15 -5 21 -8 6 -4 29 -10 50 -14 30 -4 43 -2 53 10 16 18 33 12 24 -9 -6
-18 8 -19 26 -2 8 6 11 7 8 2 -3 -6 -2 -17 3 -25 6 -10 9 29 9 103 0 72 -4
115 -9 112 -6 -4 -10 5 -10 19 0 14 4 26 8 26 4 0 8 26 9 58 0 31 -2 46 -4 32
-3 -14 -12 -33 -21 -43 -13 -15 -14 -20 -3 -26 10 -6 9 -10 -4 -15 -13 -5 -16
-14 -11 -40 5 -24 2 -37 -9 -46 -9 -7 -18 -10 -22 -7 -8 8 -7 133 2 146 3 6 0
11 -8 11 -11 0 -13 -17 -12 -75 1 -55 -2 -76 -13 -80 -7 -2 -10 -9 -7 -15 9
-15 -11 -12 -24 4 -6 7 -10 20 -8 27 2 8 2 11 0 7 -3 -5 -11 -8 -19 -8 -8 0
-14 -4 -14 -10 0 -5 5 -10 11 -10 5 0 7 -4 4 -10 -10 -17 -32 -11 -38 10 -4
15 1 22 18 26 15 4 22 11 18 20 -3 8 -1 14 4 14 5 0 22 26 38 58 25 49 77 127
96 142 28 22 29 73 29 1335 0 707 -4 1284 -8 1281 -14 -9 -33 10 -26 27 3 9 9
15 13 12 4 -2 6 10 4 28 -2 29 -2 30 6 7 7 -20 9 -15 10 28 1 33 -3 51 -9 47
-5 -3 -10 -1 -10 4 0 6 5 11 10 11 7 0 10 227 10 660 0 522 -3 660 -12 660 -7
-1 -56 -22 -108 -47z m-250 -1663 c-9 -17 -8 -28 3 -53 22 -46 30 -102 19
-124 -6 -10 -7 -25 -3 -32 5 -7 5 -30 1 -52 -7 -38 -7 -39 11 -23 18 16 19 15
18 -50 -1 -36 -5 -66 -10 -66 -13 0 -11 -28 2 -32 9 -3 9 -9 0 -25 -14 -28
-14 -56 1 -71 7 -7 11 -28 9 -47 -1 -19 2 -35 7 -35 14 0 32 48 31 83 l-1 32
-8 -30 -7 -30 -8 29 c-5 20 -3 51 8 92 10 34 17 72 17 83 0 12 4 21 9 21 13 0
25 -85 15 -101 -12 -20 -15 -79 -4 -79 5 0 10 -7 10 -15 0 -8 9 -15 21 -15 11
0 18 4 14 9 -3 5 0 13 6 16 17 11 23 -3 9 -20 -8 -9 -11 -30 -8 -53 6 -38 5
-38 -25 -34 -21 3 -28 1 -23 -7 4 -6 0 -25 -8 -42 -15 -31 -12 -84 5 -74 12 8
32 -34 25 -52 -5 -11 -10 -12 -19 -4 -11 8 -13 1 -13 -39 1 -34 -4 -55 -16
-66 -16 -17 -17 -16 -11 21 5 29 3 36 -7 30 -9 -6 -11 0 -5 24 5 25 3 31 -10
31 -14 0 -16 6 -11 30 4 23 2 29 -7 24 -9 -5 -9 -4 1 7 6 7 12 21 12 31 0 10
7 21 15 24 18 7 20 25 3 22 -7 -2 -12 5 -12 14 1 10 -2 15 -7 12 -5 -3 -9 -11
-9 -19 0 -7 -4 -15 -10 -17 -5 -1 -13 -43 -16 -93 -5 -65 -15 -106 -33 -145
-25 -54 -25 -55 -29 -23 -2 18 2 42 8 54 7 12 8 19 2 15 -6 -3 -13 0 -16 6 -3
7 -3 2 1 -12 5 -21 4 -23 -9 -12 -13 10 -16 7 -22 -20 -4 -19 -2 -34 4 -36 5
-2 10 -18 11 -35 0 -18 3 -26 6 -19 9 22 23 12 23 -17 0 -16 -6 -34 -14 -40
-12 -10 -14 -8 -10 11 5 20 4 21 -6 6 -10 -16 -12 -16 -30 2 -21 21 -28 70
-10 70 6 0 10 8 10 18 0 15 -2 15 -11 2 -8 -12 -10 -10 -5 10 2 14 8 66 12
115 4 50 11 99 17 109 5 11 9 62 8 115 l-1 96 35 38 c19 21 35 34 36 30 8 -62
-19 -314 -34 -324 -5 -4 -6 -12 -3 -18 4 -6 3 -11 -3 -11 -5 0 -12 6 -14 13
-3 6 -6 -1 -6 -16 -1 -16 6 -35 14 -43 13 -14 15 -12 15 15 0 16 4 32 9 35 5
3 12 25 15 49 4 23 12 54 19 67 8 15 12 55 10 100 -1 41 -3 105 -3 142 -1 38
-6 70 -11 74 -5 3 -9 -1 -9 -8 0 -10 -2 -10 -9 1 -8 12 -2 56 14 92 8 21 -14
36 -26 18 -7 -11 -9 -10 -9 4 0 9 4 17 10 17 16 0 24 68 10 86 -10 11 -10 18
-2 26 14 14 16 50 3 64 -6 5 -4 22 5 43 8 19 17 31 20 28 3 -3 0 -15 -6 -27z
m-1520 -367 c0 -13 -14 -29 -30 -36 -8 -4 -22 -11 -30 -16 -25 -16 -169 -81
-179 -81 -5 0 -12 8 -14 18 -3 12 -5 11 -6 -6 0 -13 -5 -21 -10 -18 -5 4 -12
0 -15 -6 -3 -7 -4 9 -3 36 2 54 5 56 92 72 17 3 40 12 52 20 29 19 62 18 70
-2 3 -9 9 -12 12 -6 13 20 61 39 61 25z m-930 -973 c0 -6 -7 -13 -15 -16 -16
-6 -59 -74 -47 -74 5 0 17 7 28 15 27 20 36 18 22 -5 -18 -29 -64 -46 -83 -30
-10 9 -15 9 -15 1 0 -6 5 -11 11 -11 5 0 7 -5 4 -10 -4 -6 -11 -8 -16 -4 -12
7 -40 -27 -33 -38 3 -5 0 -8 -5 -8 -6 0 -11 -7 -11 -15 0 -8 -5 -15 -10 -15
-6 0 -19 -14 -29 -31 -13 -21 -20 -26 -24 -16 -3 8 7 25 22 38 34 30 46 59 26
59 -20 0 -19 10 3 26 9 7 12 14 5 14 -6 0 -28 -15 -48 -34 -34 -33 -47 -42
-112 -83 -28 -17 -28 -17 -13 2 8 11 19 23 25 27 5 4 7 9 4 12 -3 3 -18 -6
-33 -19 -34 -29 -36 -30 -36 -10 0 14 60 48 86 48 7 0 11 4 8 9 -5 8 44 33 59
30 4 -1 16 7 28 19 12 12 29 19 40 16 10 -3 23 1 30 9 6 8 17 14 25 14 7 0 29
20 50 45 35 44 54 56 54 35z m2484 -27 c-3 -14 -11 -53 -19 -87 -8 -34 -15
-73 -15 -88 0 -16 -4 -28 -10 -28 -5 0 -10 -7 -10 -16 0 -27 24 -10 35 24 5
18 13 32 18 32 5 0 20 9 34 20 39 30 42 14 5 -21 -18 -16 -32 -34 -32 -39 0
-5 -13 -22 -30 -38 -16 -17 -30 -35 -30 -41 0 -6 -6 -10 -12 -8 -9 1 -13 -15
-13 -54 0 -38 -5 -63 -16 -75 -24 -28 -34 -49 -21 -40 7 4 12 2 12 -4 0 -7 -9
-14 -20 -17 -10 -3 -22 -14 -26 -25 -3 -11 -8 -18 -10 -16 -2 3 5 29 15 59 21
59 55 191 66 254 4 22 20 84 36 139 16 54 29 101 29 103 0 2 4 2 9 -2 5 -3 7
-17 5 -32z m-1518 -2 c-26 -16 -34 -31 -16 -31 6 0 10 -4 10 -10 0 -5 -5 -10
-12 -10 -6 0 -26 -11 -45 -26 -26 -20 -33 -22 -33 -9 0 9 -5 13 -10 10 -6 -4
-8 -15 -5 -26 5 -14 0 -21 -19 -29 -14 -5 -26 -14 -26 -19 0 -6 17 -3 38 6 20
8 35 13 32 10 -9 -10 -106 -72 -134 -87 -15 -8 -32 -24 -37 -36 -4 -12 -17
-25 -27 -28 -11 -4 -42 -30 -68 -59 -57 -61 -110 -86 -119 -56 -4 11 0 26 10
35 20 20 33 10 15 -11 -7 -8 -9 -15 -6 -15 4 0 43 36 86 80 43 44 83 80 88 80
5 0 16 7 23 16 12 15 11 16 -11 10 l-25 -7 26 23 c69 60 236 196 254 205 30
17 41 2 11 -16z m868 -226 c6 -17 -13 -65 -26 -65 -4 0 -8 -12 -8 -26 0 -14 4
-23 10 -19 6 4 10 -5 10 -19 0 -36 19 -33 27 4 5 28 21 38 36 24 3 -3 -9 -34
-27 -67 -18 -34 -36 -74 -40 -89 -3 -16 -11 -28 -17 -28 -11 0 -6 21 17 79 19
45 6 58 -37 36 -36 -19 -109 -90 -109 -107 0 -6 -7 -8 -15 -4 -10 4 -15 -1
-15 -15 0 -12 -5 -19 -12 -16 -7 2 -18 -3 -25 -12 -6 -9 -14 -13 -18 -9 -4 4
7 27 24 52 17 24 31 51 32 58 0 11 2 11 6 0 3 -9 14 -3 34 19 16 18 29 36 29
40 0 4 9 11 20 14 12 4 23 18 27 36 3 16 10 26 16 22 7 -4 8 5 4 25 -5 24 -1
37 16 56 26 30 33 32 41 11z m361 -362 c-4 -10 -7 -27 -7 -38 1 -10 -3 -24 -7
-30 -15 -18 -18 -84 -4 -89 7 -3 10 -12 6 -22 -6 -16 -7 -16 -14 2 -5 12 -7 2
-6 -28 1 -27 7 -48 12 -48 7 0 7 -3 0 -8 -5 -4 -11 -27 -11 -52 -1 -25 -5 -58
-9 -74 -6 -21 -5 -27 4 -22 20 13 12 -30 -10 -50 -20 -18 -20 -18 -15 11 l5
30 -19 -24 c-22 -26 -25 -41 -10 -41 6 0 10 -7 10 -16 0 -13 2 -13 17 2 20 20
29 4 14 -25 -14 -25 -14 -41 -1 -41 6 0 10 9 10 20 0 11 4 20 9 20 4 0 6 11 4
24 -3 14 2 35 11 48 9 12 16 30 16 40 0 26 20 22 21 -4 3 -55 2 -75 -4 -100
-12 -46 10 -32 22 15 27 94 29 106 18 110 -7 2 -7 9 1 23 8 14 12 15 12 4 1
-8 8 10 16 39 8 30 12 61 9 69 -2 7 0 10 5 7 6 -4 10 7 10 24 0 38 37 124 49
116 12 -7 3 -35 -11 -35 -5 0 -7 -8 -4 -17 3 -10 -5 -51 -17 -91 -14 -42 -22
-86 -19 -104 4 -29 6 -30 13 -13 6 13 7 8 3 -15 -3 -19 -13 -43 -21 -52 -9
-10 -12 -25 -8 -38 4 -12 1 -44 -6 -73 -9 -40 -9 -52 0 -55 9 -3 7 -10 -5 -23
-24 -27 -34 -24 -30 11 3 24 1 28 -9 20 -9 -8 -14 -7 -18 2 -3 9 -13 3 -30
-16 -22 -25 -28 -28 -42 -16 -13 11 -20 8 -48 -25 -26 -30 -37 -36 -55 -31
-12 4 -22 12 -22 17 0 6 5 7 12 3 8 -5 9 0 6 14 -4 12 -2 22 3 22 5 0 9 6 9
13 0 8 6 27 14 43 25 51 27 70 11 84 -13 11 -13 15 4 39 11 15 19 36 18 46 -2
15 4 20 21 19 12 0 22 5 22 13 0 8 -4 11 -10 8 -5 -3 -10 -1 -10 5 0 6 -5 8
-11 4 -9 -5 -10 1 -5 22 9 36 27 56 20 23 -4 -22 -3 -22 5 -4 15 31 13 55 -5
55 -10 0 -12 5 -7 12 4 7 6 25 5 39 -5 45 44 219 61 219 5 0 6 -8 2 -17z"/>
<path d="M6889 6157 c-46 -31 -65 -50 -67 -68 -2 -19 -16 -30 -64 -52 -56 -26
-167 -126 -168 -151 0 -6 6 -1 14 10 8 10 18 15 22 11 5 -4 -12 -27 -36 -51
-43 -42 -61 -88 -39 -101 5 -4 9 3 9 13 0 11 13 33 28 48 31 33 80 74 87 74 2
0 15 10 27 23 13 13 32 29 43 35 11 6 17 13 13 17 -7 7 -42 -11 -72 -37 -10
-10 -23 -15 -28 -12 -4 3 -8 0 -8 -6 0 -6 -4 -9 -10 -5 -19 12 4 36 78 81 59
36 77 43 84 32 7 -10 8 -8 4 5 -3 10 0 17 7 17 7 0 18 9 25 21 11 17 11 20 0
13 -7 -4 -2 5 11 19 13 15 32 29 43 33 10 3 18 12 18 20 0 8 3 13 8 13 20 -3
32 3 42 21 16 30 1 25 -71 -23z"/>
<path d="M8126 5741 c-4 -6 -22 -18 -41 -27 -19 -9 -35 -21 -35 -26 0 -5 -4
-6 -10 -3 -5 3 -7 0 -4 -9 3 -8 -3 -19 -15 -26 -12 -6 -21 -7 -21 -3 0 4 -5 0
-11 -9 -5 -10 -19 -18 -30 -18 -11 0 -22 -8 -25 -17 -3 -10 -10 -26 -15 -36
-11 -20 -3 -57 12 -57 6 0 9 -19 7 -42 -2 -31 -7 -42 -22 -44 -31 -4 -35 -16
-41 -111 l-5 -91 88 1 c87 2 87 2 84 27 -2 14 -8 29 -13 34 -11 12 -12 56 -1
56 23 0 43 -28 44 -62 2 -51 25 -58 31 -10 3 20 6 55 6 77 1 22 4 47 7 56 4
15 96 79 112 79 4 0 20 10 36 23 25 21 29 31 34 95 l5 73 -32 -18 c-17 -10
-31 -21 -31 -25 0 -5 -6 -8 -14 -8 -7 0 -19 -6 -25 -14 -7 -8 -27 -22 -46 -31
-19 -9 -35 -20 -35 -26 0 -6 -4 -8 -9 -4 -6 3 -15 -3 -20 -14 -14 -26 -51 -37
-62 -20 -6 9 -9 10 -9 2 0 -19 -29 -43 -45 -37 -18 7 -20 60 -2 67 7 4 6 6 -4
6 -11 1 -18 12 -21 31 -5 35 -4 36 22 10 27 -27 53 -25 76 6 10 14 24 32 31
39 19 20 65 106 60 112 -3 2 -8 0 -11 -6z"/>
<path d="M9300 5625 c0 -25 -4 -45 -10 -45 -5 0 -7 -7 -4 -15 4 -8 2 -15 -3
-15 -5 0 -24 -14 -43 -32 l-35 -31 28 7 c33 8 28 -9 -7 -25 -17 -8 -16 -9 9
-4 22 4 26 3 15 -5 -8 -5 -21 -10 -29 -10 -7 0 -26 -11 -43 -25 l-30 -25 26 0
c14 0 48 16 74 34 63 46 100 60 118 45 10 -8 22 -4 48 16 36 28 43 40 45 88 1
21 -4 27 -21 27 -12 0 -19 -3 -15 -6 11 -11 -20 -34 -45 -34 -13 0 -29 -5 -36
-12 -8 -8 -12 -9 -12 -1 0 6 7 18 15 27 8 8 15 21 15 29 0 14 -40 57 -53 57
-4 0 -7 -20 -7 -45z"/>
<path d="M3565 5591 c-11 -5 -57 -11 -102 -14 -46 -4 -93 -13 -105 -21 -13 -8
-41 -19 -63 -24 -198 -48 -366 -118 -412 -173 -30 -36 -118 -93 -176 -116 -55
-21 -65 -31 -41 -39 10 -4 27 -15 36 -24 13 -14 29 -17 72 -14 49 4 55 2 49
-13 -11 -31 -25 -43 -48 -43 -12 0 -56 -8 -96 -17 -74 -17 -74 -17 -35 -24 22
-3 44 -13 51 -22 22 -30 124 -39 496 -43 202 -2 373 -6 381 -9 8 -3 19 -5 24
-4 21 4 28 -2 14 -11 -11 -7 -2 -9 30 -9 25 1 37 3 28 6 -10 2 -18 9 -18 14 0
16 208 3 220 -13 3 -4 30 -4 60 1 36 6 59 5 68 -1 20 -17 14 7 -9 33 l-21 24
56 3 c31 2 56 6 56 10 0 4 12 8 28 9 15 1 52 4 82 6 30 2 70 5 88 6 22 1 31 5
26 12 -5 8 1 10 20 7 45 -9 37 7 -11 22 -35 10 -50 10 -64 2 -24 -15 -82 -4
-75 14 3 8 -1 14 -11 14 -9 0 -21 8 -28 17 -12 16 -19 19 -83 28 -18 3 -42 10
-53 15 -13 7 -19 7 -19 0 0 -22 -47 -8 -90 26 -43 34 -48 36 -110 32 l-64 -3
-18 45 c-11 31 -17 75 -17 139 l-1 94 -36 33 c-37 35 -46 38 -79 25z"/>
<path d="M8935 5074 c-22 -16 -111 -43 -230 -69 -44 -9 -129 -30 -190 -45 -60
-15 -132 -31 -159 -35 -27 -3 -55 -9 -62 -12 -8 -3 -14 0 -14 6 0 6 10 13 23
15 99 22 169 40 160 43 -9 3 -51 -3 -250 -37 -23 -3 -59 -5 -80 -3 -28 3 -41
-1 -51 -14 -13 -17 -14 -16 -7 4 5 18 3 22 -9 17 -9 -3 -23 1 -31 10 -9 9 -22
16 -28 16 -7 0 -45 6 -85 14 -62 12 -75 12 -87 0 -17 -17 -26 -18 -22 -1 1 6
-5 12 -13 12 -8 0 -14 -6 -13 -12 2 -7 -2 -13 -7 -13 -6 0 -10 7 -10 15 0 16
-15 20 -24 7 -3 -5 -1 -22 4 -38 4 -16 9 -23 9 -15 1 8 3 12 6 9 9 -9 -6 -38
-20 -38 -7 0 -15 -9 -18 -20 -4 -16 -2 -18 11 -11 11 6 21 4 30 -5 11 -12 9
-14 -8 -15 -85 -5 -91 -4 -68 19 7 7 9 12 4 12 -4 0 -14 -6 -21 -14 -25 -24 4
-33 98 -31 48 0 87 -2 87 -7 0 -4 -8 -9 -17 -9 -10 -1 -31 -3 -48 -5 -16 -2
-59 -6 -95 -8 -101 -5 -98 -5 -80 -17 11 -7 4 -8 -25 -4 -22 3 -34 2 -27 -1
20 -9 14 -21 -10 -19 -13 1 -36 -4 -53 -10 -16 -6 -53 -11 -81 -11 -38 1 -50
-2 -47 -11 4 -9 -6 -12 -36 -9 -27 3 -39 1 -34 -6 3 -7 1 -8 -5 -4 -6 4 -49 1
-96 -6 -92 -13 -159 -6 -293 31 -76 21 -286 53 -468 72 -164 17 -698 14 -885
-5 -230 -24 -553 -85 -578 -111 -9 -8 6 -6 86 14 424 108 1085 124 1652 41 74
-11 157 -28 184 -36 42 -14 46 -18 30 -27 -35 -18 -75 -62 -111 -120 -19 -31
-38 -55 -43 -52 -4 3 -13 -2 -20 -10 -7 -8 -19 -15 -26 -15 -8 0 -14 -4 -14
-10 0 -5 -4 -10 -9 -10 -5 0 4 37 20 81 16 45 28 82 27 84 -4 3 -236 33 -378
49 -140 16 -418 32 -410 23 3 -3 82 -11 175 -17 94 -6 262 -24 375 -40 112
-17 208 -30 212 -30 5 0 3 -9 -4 -20 -17 -27 -62 -26 -80 3 -15 21 -22 22
-179 26 -90 1 -162 1 -159 -2 3 -3 68 -10 145 -16 77 -7 150 -14 163 -18 22
-5 28 -26 16 -58 -5 -13 -8 -14 -15 -3 -7 11 -9 11 -9 0 0 -10 -4 -10 -16 2
-25 26 -75 20 -116 -14 -31 -26 -48 -31 -130 -40 -51 -5 -124 -10 -163 -10
-72 0 -161 20 -148 34 4 4 1 4 -8 1 -8 -3 -30 6 -49 20 -37 27 -55 32 -44 13
4 -8 3 -10 -2 -5 -5 5 -9 12 -9 16 0 4 -9 16 -19 27 -16 15 -19 16 -14 2 9
-21 -19 -33 -40 -16 -13 11 -14 11 -8 -1 7 -11 0 -12 -35 -6 -57 10 -76 7
-164 -24 -16 -6 -51 -13 -78 -16 -29 -4 -45 -10 -41 -17 4 -6 -1 -8 -16 -3
-14 4 -20 3 -16 -3 6 -10 -23 -26 -32 -17 -3 3 0 5 6 5 7 0 12 5 12 12 0 21
-35 -20 -49 -58 -19 -52 -83 -185 -87 -181 -2 2 12 41 31 86 19 45 35 89 35
96 0 21 -62 7 -82 -18 -16 -21 -16 -22 5 -29 16 -4 10 -6 -20 -7 -29 -1 -50
-8 -63 -21 -28 -28 -25 -8 4 27 24 28 97 156 79 138 -21 -22 -71 -92 -97 -136
-30 -52 -48 -62 -151 -84 -43 -8 -52 -12 -25 -9 28 3 52 0 63 -8 14 -11 -1
-13 -95 -14 -85 -1 -130 -7 -183 -23 -38 -12 -56 -19 -40 -16 143 26 223 12
291 -51 38 -35 39 -35 4 -10 -19 13 -57 34 -84 46 -48 20 -53 20 -140 6 -50
-8 -104 -19 -120 -25 -16 -7 -31 -9 -34 -6 -3 2 -10 -2 -16 -10 -8 -11 -46
-17 -141 -24 l-130 -8 219 -2 c121 0 217 -3 215 -5 -2 -2 -65 -7 -139 -11 -74
-3 -139 -10 -145 -16 -5 -6 -2 -9 9 -9 10 0 16 -6 13 -12 -2 -8 -19 -12 -38
-11 -22 1 -29 -1 -19 -7 8 -4 94 -11 190 -14 188 -8 933 -50 1170 -66 80 -6
291 -14 469 -17 404 -8 403 -11 -24 -94 -151 -29 -212 -47 -175 -50 19 -1 -19
-13 -135 -44 -49 -13 -82 -24 -72 -24 24 -1 444 98 611 144 138 38 152 40 161
25 7 -11 -33 -29 -160 -71 -107 -36 -162 -67 -210 -116 -54 -56 -47 -81 48
-179 46 -48 48 -52 28 -59 -12 -3 -42 -24 -66 -45 l-44 -38 -53 13 c-44 12
-156 59 -232 97 -44 23 -170 20 -361 -7 -104 -15 -193 -31 -196 -36 -3 -6 -13
-7 -22 -3 -12 4 -17 1 -17 -12 0 -13 -3 -15 -8 -6 -6 9 -13 7 -29 -7 -11 -11
-23 -18 -25 -16 -4 5 -185 -142 -238 -193 -66 -63 -116 -84 -169 -73 -2 1 1 7
7 14 6 6 14 30 18 52 8 47 49 105 146 207 14 15 24 28 21 28 -10 0 -180 -114
-283 -190 -104 -76 -150 -106 -150 -95 0 10 90 123 133 166 72 73 172 158 244
206 95 64 106 75 91 85 -10 6 -10 8 0 8 17 0 15 25 -5 41 -9 8 -28 15 -42 15
-14 1 -35 4 -47 7 -42 11 -296 -111 -589 -283 -93 -55 -183 -107 -200 -115
l-30 -16 25 20 c53 43 417 254 573 332 111 56 364 162 452 189 99 31 61 46
-53 21 -215 -47 -510 -175 -705 -306 -99 -66 -119 -77 -97 -50 9 10 9 15 1 15
-6 0 -12 -4 -12 -10 -1 -5 -2 -14 -3 -19 0 -6 -45 -49 -99 -96 -54 -48 -91
-75 -81 -60 9 14 42 48 73 75 31 27 50 50 44 50 -7 0 -13 -4 -13 -10 0 -5 -12
-9 -27 -8 -16 1 -37 -2 -48 -7 l-20 -8 20 17 c19 16 19 16 -10 9 -16 -4 -60
-7 -97 -7 -38 -1 -68 -4 -68 -7 0 -4 -35 -12 -77 -18 -42 -6 -89 -18 -105 -25
-17 -9 -30 -11 -34 -5 -3 5 -13 8 -22 5 -76 -20 -139 -41 -149 -49 -7 -5 -13
-6 -13 -3 0 4 -10 1 -22 -5 -12 -6 -40 -11 -64 -11 -34 1 -43 -2 -47 -20 -4
-13 -11 -19 -21 -15 -8 3 -20 0 -26 -8 -6 -8 -25 -17 -42 -20 -17 -4 -45 -22
-63 -41 -35 -36 -51 -43 -42 -20 4 10 1 13 -9 9 -18 -7 -18 -12 3 -36 17 -18
17 -19 -2 -16 -14 3 -19 -1 -17 -13 2 -13 -4 -18 -18 -18 -12 0 -19 -4 -15 -9
3 -5 1 -12 -4 -16 -15 -9 -8 -98 9 -112 13 -11 12 -12 -8 -13 -18 0 -23 -5
-20 -22 2 -18 -3 -22 -32 -26 -66 -7 -84 -4 335 -58 325 -42 372 -53 469 -117
106 -70 164 -100 182 -93 8 3 13 2 10 -3 -6 -9 35 -24 43 -16 2 3 0 5 -6 5 -6
0 -9 9 -6 20 6 23 19 26 26 8 3 -8 6 -6 6 5 1 9 5 17 10 17 5 0 36 16 69 36
33 19 71 37 84 38 26 4 55 13 80 27 9 5 36 12 60 15 24 4 49 14 56 23 10 14
11 14 6 -4 -3 -11 2 -7 14 10 10 17 30 38 43 47 13 9 44 35 69 57 48 44 88 58
54 19 -19 -21 -19 -21 4 -16 34 9 27 -4 -33 -61 -30 -29 -55 -56 -55 -62 0
-10 -3 -10 -70 -13 -51 -1 -69 -28 -28 -43 74 -26 533 14 812 72 90 19 95 13
9 -10 -95 -24 -133 -38 -133 -47 0 -4 -6 -8 -14 -8 -20 0 -82 -29 -152 -73
-34 -20 -69 -37 -78 -37 -9 0 -16 -4 -16 -8 0 -17 -453 -72 -597 -72 -151 0
-283 41 -413 130 -94 64 -148 87 -240 104 -89 17 -708 95 -917 116 -119 13
-122 12 -152 -9 -17 -13 -29 -26 -26 -31 8 -13 -59 -63 -86 -66 -13 -1 -36 -6
-50 -9 -18 -5 -48 2 -96 22 -129 55 -213 138 -213 213 0 25 -3 31 -10 20 -8
-12 -10 -12 -16 3 -3 9 -13 17 -20 17 -13 0 -335 -71 -449 -99 -22 -5 -44 -6
-48 -1 -7 6 44 20 80 22 5 0 18 4 31 9 13 5 37 11 55 14 25 4 168 46 315 91 7
2 10 8 7 14 -3 5 -2 10 4 10 6 0 4 11 -3 25 -19 36 -12 156 13 230 11 32 17
63 15 67 -3 4 2 8 11 8 9 0 21 13 26 30 6 17 15 30 19 30 5 0 12 10 15 23 9
28 54 77 72 77 7 0 13 4 13 10 0 23 34 49 57 44 17 -5 23 -2 23 10 0 9 8 16
20 16 11 0 20 6 20 14 0 8 21 17 58 24 82 16 234 51 252 59 8 3 19 5 23 4 4 0
10 6 14 15 4 11 8 12 13 4 5 -8 19 -7 51 5 94 34 330 95 444 115 39 7 140 12
227 11 92 -1 182 4 220 12 74 14 118 11 118 -9 0 -17 -1 -17 90 2 78 16 98 24
61 24 -12 0 -36 7 -53 16 -17 9 -57 21 -90 28 l-60 12 27 18 c15 10 53 41 85
70 73 65 174 146 267 214 40 29 73 55 73 58 0 2 -7 4 -16 4 -9 0 -12 -5 -8
-12 5 -8 2 -9 -10 -5 -9 4 -14 3 -11 -2 3 -5 -3 -12 -14 -16 -11 -3 -22 -13
-25 -22 -5 -13 -9 -13 -23 -2 -14 12 -16 12 -8 0 6 -11 3 -13 -13 -9 -16 4
-22 1 -25 -16 -3 -15 -5 -12 -6 10 -1 30 -2 30 -50 28 -59 -2 -72 -9 -65 -32
5 -16 5 -16 -6 1 -13 20 -36 23 -43 5 -4 -10 -6 -10 -6 -1 -1 15 -35 2 -93
-36 -45 -28 -50 -51 -11 -51 42 0 20 -11 -29 -14 -38 -3 -45 0 -55 20 -6 13
-8 22 -4 19 4 -2 8 2 8 9 0 9 -14 10 -61 4 -36 -5 -87 -5 -125 1 -35 6 -68 8
-73 5 -4 -3 -8 1 -8 8 0 10 -2 10 -9 -1 -7 -11 -9 -11 -13 0 -3 8 -9 11 -13 7
-15 -14 8 -28 66 -39 33 -6 58 -14 55 -16 -7 -7 -186 16 -236 31 -25 7 -50 11
-57 9 -7 -3 -20 0 -30 6 -14 8 1 11 62 12 138 4 177 3 274 -6 88 -8 94 -7 88
10 -6 13 -3 16 8 11 9 -3 13 -2 10 4 -12 19 27 23 63 6 31 -14 34 -14 17 -1
-19 15 -18 16 20 15 63 0 158 10 180 20 24 11 95 24 112 21 7 -1 25 5 40 14
27 15 19 15 -19 0 -11 -4 -18 -3 -18 4 0 6 -7 11 -16 11 -9 0 -56 14 -104 31
-79 27 -106 31 -253 37 -182 8 -267 1 -306 -25 -45 -30 -233 -127 -275 -143
-31 -11 -28 -24 7 -27 39 -2 92 -11 107 -16 16 -6 73 -15 127 -20 59 -6 44
-14 -29 -16 -39 -1 -75 -4 -79 -7 -4 -2 -10 0 -14 6 -3 5 -14 10 -23 9 -14 0
-13 -2 3 -8 14 -6 5 -9 -35 -14 -85 -10 -141 -8 -185 8 -46 16 -75 19 -75 6 0
-5 17 -11 39 -15 46 -7 78 -36 40 -36 -15 0 -19 3 -12 8 6 4 -36 7 -95 7 -101
0 -144 -11 -104 -27 43 -17 -151 1 -233 22 -15 4 -99 0 -94 -4 2 -2 31 -7 64
-10 68 -7 134 -21 143 -30 3 -4 -34 -4 -84 -1 -124 8 -124 8 -133 24 -5 7 -13
11 -19 7 -6 -3 -34 -1 -63 6 -41 10 -53 10 -57 0 -2 -7 -9 -9 -15 -5 -21 13
-87 15 -87 3 0 -7 15 -11 38 -9 20 1 44 -1 52 -4 8 -3 46 -10 84 -14 94 -11
97 -29 6 -29 -40 1 -70 -3 -70 -9 0 -5 -4 -5 -8 2 -5 8 -13 9 -22 3 -8 -5 -21
-5 -32 1 -10 5 -18 6 -18 1 0 -12 -117 -4 -207 14 -7 1 -13 -2 -13 -7 0 -5 12
-11 28 -14 15 -4 41 -13 57 -21 29 -14 27 -14 -35 -9 -36 2 -83 9 -105 15 -52
13 -68 12 -60 -1 4 -6 13 -8 21 -5 8 3 14 1 14 -4 0 -10 -28 -13 -168 -14 -45
-1 -82 -4 -82 -7 0 -9 -133 -3 -162 7 -20 6 -21 5 -6 -10 11 -10 35 -16 70
-17 29 0 62 -5 73 -10 13 -6 -2 -7 -45 -3 -36 3 -95 7 -132 8 -37 1 -73 8 -82
15 -14 11 -16 11 -16 -4 0 -15 -7 -17 -55 -12 -30 3 -55 2 -55 -3 0 -12 88
-20 157 -14 37 3 64 1 68 -6 4 -6 -5 -11 -22 -12 -15 -1 -41 -2 -58 -3 -93 -6
-127 -5 -195 9 -113 23 -138 17 -33 -7 50 -12 95 -25 98 -29 4 -3 -44 -4 -105
-2 -77 3 -109 1 -105 -6 4 -6 15 -8 26 -5 11 4 19 2 19 -6 0 -8 -36 -10 -144
-5 -93 5 -146 4 -150 -3 -4 -5 -22 -7 -41 -4 -23 4 -35 2 -35 -6 0 -8 -9 -7
-30 4 -16 8 -39 15 -52 14 -17 -1 -13 -4 15 -13 22 -7 44 -21 50 -31 9 -17 8
-18 -4 -9 -8 7 -32 10 -54 9 -22 -2 -68 0 -103 4 -50 6 -62 5 -58 -6 7 -17 -7
-16 -68 2 -27 8 -51 13 -54 10 -3 -2 4 -7 14 -11 10 -3 35 -12 54 -19 l35 -14
-41 0 c-22 -1 -46 5 -53 12 -11 10 -12 9 -6 -2 6 -11 4 -13 -8 -8 -9 3 -19 2
-22 -3 -4 -6 -17 -7 -31 -4 -13 3 -24 2 -24 -2 0 -5 -26 -8 -57 -8 -34 1 -61
-3 -65 -10 -6 -8 -10 -7 -17 3 -6 9 -11 10 -15 2 -7 -11 -195 -7 -236 4 -8 2
-31 0 -50 -4 l-35 -9 35 -3 c19 -1 52 -3 73 -5 46 -3 99 -23 91 -35 -3 -5 -10
-7 -15 -3 -17 10 -110 13 -104 3 4 -5 -13 -9 -37 -10 -24 -1 -52 -2 -63 -3
-20 -1 -20 -9 -22 -1261 -2 -985 0 -1261 10 -1267 9 -6 9 -8 0 -8 -8 0 -13
-14 -13 -35 0 -21 5 -35 13 -35 9 0 9 -2 0 -8 -8 -5 -11 -65 -11 -200 0 -116
3 -190 9 -187 5 4 9 2 9 -4 0 -5 -4 -12 -8 -15 -5 -3 -9 -59 -9 -125 0 -97 2
-118 13 -114 8 3 11 9 8 14 -3 5 3 6 12 2 14 -5 12 -8 -10 -20 -27 -14 -35
-33 -13 -33 8 0 9 -2 1 -8 -7 -4 -12 -36 -12 -75 0 -63 1 -67 22 -67 12 0 32
9 44 20 12 11 29 20 40 20 10 0 23 5 30 12 8 8 12 9 12 1 0 -6 -6 -14 -12 -16
-10 -4 -10 -6 0 -6 8 -1 50 15 94 34 75 33 118 39 103 15 -4 -7 3 -8 22 -4 47
12 68 21 82 38 18 21 3 21 -21 -1 -10 -9 -18 -11 -18 -6 0 19 29 35 50 28 20
-6 20 -7 -2 -34 -13 -16 -32 -28 -43 -29 -11 0 -32 -4 -47 -7 -20 -5 -29 -3
-34 8 -5 14 -10 14 -50 -1 -24 -9 -44 -20 -44 -24 0 -12 13 -9 34 7 22 17 36
19 36 6 0 -5 -19 -17 -42 -27 -30 -12 -38 -19 -25 -21 25 -6 21 -23 -5 -24
-42 -3 -53 -5 -71 -13 -10 -5 -21 -6 -24 -2 -10 10 4 18 37 21 28 2 77 45 51
45 -5 0 -13 -5 -16 -10 -4 -6 -16 -8 -27 -4 -13 4 -18 2 -14 -4 4 -7 -8 -14
-29 -18 l-36 -6 22 -24 c20 -21 20 -24 5 -30 -9 -4 -20 -4 -23 0 -4 3 -17 -4
-30 -16 -13 -12 -23 -17 -23 -11 0 12 -37 6 -45 -7 -6 -10 57 -6 74 4 9 6 17
3 23 -8 7 -13 18 -16 43 -12 20 4 37 1 41 -6 4 -7 3 -8 -4 -4 -6 3 -16 -2 -21
-13 -6 -10 -22 -22 -36 -25 -14 -4 -25 -11 -25 -16 0 -18 29 -11 52 12 13 13
27 22 32 20 4 -1 14 2 20 8 7 5 15 7 19 4 3 -3 8 4 12 15 6 20 25 30 25 14 -1
-18 -18 -33 -53 -48 -20 -8 -37 -19 -37 -23 0 -4 -18 -13 -41 -19 -32 -8 -42
-8 -46 2 -9 24 -83 8 -83 -18 0 -8 3 -8 12 1 15 15 72 16 62 1 -3 -6 -14 -9
-23 -6 -10 2 -25 -1 -35 -9 -15 -10 -12 -12 22 -8 21 2 51 8 66 14 33 12 46
13 46 1 0 -5 -13 -11 -30 -14 -19 -4 -28 -11 -24 -20 3 -10 -9 -16 -43 -23
-34 -6 -49 -14 -51 -27 -3 -15 1 -18 20 -15 13 2 22 9 20 17 -2 8 3 11 12 8 9
-4 18 -1 22 4 3 6 15 9 25 6 10 -3 22 -1 25 4 3 5 12 9 21 9 26 0 -52 -67 -94
-80 -40 -13 -60 -26 -52 -34 13 -13 117 37 141 68 9 11 20 18 24 14 4 -4 -4
-16 -17 -27 -18 -15 -20 -20 -8 -21 8 0 20 5 25 10 7 7 11 2 11 -19 0 -18 -5
-27 -12 -25 -6 3 -20 -3 -32 -13 -20 -18 -20 -18 23 -20 33 -1 44 2 44 13 0 8
6 14 12 13 29 -3 49 2 43 11 -11 18 17 11 31 -7 8 -11 13 -13 14 -5 0 6 9 12
19 12 10 0 22 7 25 16 3 8 10 13 14 10 5 -3 25 6 45 19 20 14 38 21 41 16 3
-4 -12 -16 -34 -26 -22 -10 -37 -22 -34 -26 3 -5 0 -9 -5 -9 -7 0 -7 -7 1 -20
15 -24 64 -26 92 -5 11 8 14 15 8 15 -7 0 -12 6 -12 13 0 15 37 40 49 32 5 -2
14 2 21 10 7 8 16 12 21 9 5 -2 23 3 41 13 18 9 37 16 41 15 5 -1 6 2 3 7 -7
11 32 26 41 17 4 -3 -1 -6 -10 -6 -9 0 -17 -6 -17 -13 0 -7 -19 -21 -42 -31
-24 -10 -37 -21 -31 -23 7 -3 27 3 44 11 38 19 39 19 39 6 0 -6 -12 -15 -26
-20 -22 -9 -24 -13 -14 -25 16 -19 31 -19 24 0 -4 8 -2 15 4 15 6 0 12 -5 14
-12 3 -8 11 -7 28 5 16 11 27 13 36 7 17 -15 58 3 90 40 19 21 30 27 35 18 8
-13 -33 -54 -63 -64 -10 -3 -18 -10 -18 -16 0 -6 -9 -8 -20 -5 -10 3 -18 0
-17 -5 1 -6 -3 -12 -10 -15 -7 -3 -9 3 -6 16 3 13 1 21 -6 21 -7 0 -9 -4 -6
-10 3 -5 -3 -10 -15 -10 -12 0 -30 -5 -41 -10 -13 -8 -19 -7 -19 0 0 6 -4 8
-10 5 -5 -3 -18 -1 -27 4 -10 6 -12 11 -5 11 6 0 12 5 12 11 0 6 -6 9 -14 6
-8 -3 -17 1 -20 9 -4 11 -11 12 -33 4 -15 -6 -34 -13 -42 -16 -10 -3 -11 -8
-3 -16 6 -6 8 -16 6 -23 -6 -14 83 -18 92 -4 2 5 16 3 30 -3 19 -9 30 -9 45 0
12 8 19 8 19 2 0 -7 32 -10 85 -8 49 1 85 7 85 13 0 5 5 3 10 -5 9 -13 12 -13
24 3 7 9 18 17 25 17 6 0 21 11 33 25 23 27 43 33 35 11 -3 -7 -1 -18 5 -24 6
-6 6 -12 -1 -16 -40 -25 31 -33 86 -10 30 13 35 13 30 1 -4 -11 4 -14 34 -14
22 0 37 2 34 5 -2 3 0 11 6 19 9 10 8 13 -5 13 -22 0 -31 -4 -29 -12 1 -3 -4
-9 -12 -12 -21 -8 -19 14 3 31 16 13 15 14 -8 9 -14 -3 -34 -6 -45 -6 -17 0
-18 -2 -5 -11 13 -9 13 -10 -2 -6 -9 3 -22 -1 -28 -9 -14 -15 -40 -19 -40 -5
0 5 11 12 25 15 14 4 23 11 20 16 -6 10 13 15 47 12 10 -1 18 3 18 8 0 16 -30
24 -43 11 -6 -6 -22 -11 -35 -11 -17 0 -23 -4 -18 -15 3 -9 0 -15 -9 -15 -19
0 -19 24 0 40 8 7 15 9 15 4 0 -4 5 -3 11 3 6 6 18 9 25 6 8 -3 14 0 14 6 0 6
5 11 11 11 12 0 59 50 59 63 0 4 -9 3 -20 -3 -11 -6 -18 -15 -16 -19 5 -7 -21
-23 -46 -30 -4 -1 -22 -7 -40 -12 -18 -6 -40 -12 -50 -14 -15 -3 -48 -28 -84
-63 -8 -7 -14 -10 -14 -5 0 12 20 40 20 28 0 -5 8 2 17 15 10 14 17 28 16 31
-1 4 7 5 17 2 16 -4 23 2 31 26 7 20 18 31 30 31 10 0 19 -4 19 -10 0 -5 -9
-10 -20 -10 -11 0 -20 -4 -20 -10 0 -22 85 2 110 30 8 9 37 27 64 39 51 22 71
27 46 11 -27 -17 -2 -22 29 -5 28 14 31 14 31 -1 0 -13 5 -12 36 6 19 12 37
20 40 17 6 -5 -36 -31 -68 -43 -23 -8 -23 -24 -1 -24 9 0 14 -2 11 -5 -8 -8
-68 6 -68 16 0 5 9 9 20 9 11 0 20 5 20 10 0 15 -11 12 -49 -11 -18 -11 -30
-23 -27 -27 4 -3 11 0 15 7 6 9 11 10 15 2 7 -11 0 -15 -72 -41 -34 -13 -45
-36 -12 -26 11 3 30 9 42 13 15 4 19 3 14 -6 -4 -6 -11 -9 -16 -6 -9 6 -32
-19 -25 -27 7 -7 85 32 85 42 0 4 8 10 18 13 9 2 26 8 37 12 17 7 16 5 -4 -13
-13 -12 -28 -22 -33 -22 -5 0 -6 -4 -3 -10 3 -5 -2 -10 -12 -10 -10 -1 -29 -7
-42 -14 -23 -13 -23 -13 -2 -19 11 -3 21 -2 21 2 0 4 23 18 50 30 28 13 48 26
46 30 -3 4 1 8 9 8 19 0 19 -21 0 -37 -8 -7 -12 -17 -8 -24 4 -6 0 -5 -9 2
-13 10 -22 11 -37 2 -12 -6 -21 -9 -21 -6 0 3 -11 -5 -25 -18 -30 -28 -31 -36
-4 -36 11 0 17 5 14 10 -3 6 -2 10 4 10 5 0 18 3 28 7 16 6 16 5 4 -10 -12
-15 -11 -17 3 -17 9 0 19 7 22 15 3 8 14 17 24 20 16 5 28 27 34 60 1 6 7 9
13 8 6 -1 17 5 24 13 11 13 9 15 -17 9 -23 -4 -25 -3 -9 4 11 5 16 10 11 10
-5 1 -3 7 3 14 6 8 7 18 3 22 -4 5 -1 5 6 1 6 -4 12 -2 12 4 0 7 8 9 23 4 32
-9 34 -14 14 -25 -9 -6 -15 -14 -12 -19 3 -5 1 -11 -5 -15 -7 -4 -7 -13 1 -26
7 -15 7 -24 -2 -35 -14 -17 -32 -19 -26 -1 2 6 10 11 16 9 13 -2 14 8 3 25 -5
8 -15 4 -35 -12 -26 -23 -38 -43 -17 -30 5 3 10 3 10 -2 0 -4 -15 -17 -33 -27
-31 -19 -31 -20 -9 -24 15 -2 33 5 47 18 l24 22 29 -21 c31 -21 78 -29 67 -11
-3 6 -1 10 4 10 6 0 11 -4 11 -10 0 -5 7 -10 15 -10 8 0 15 6 15 14 0 7 9 16
21 19 14 4 18 10 13 19 -6 9 -3 9 10 -1 17 -14 17 -15 -2 -22 -38 -14 -32 -26
14 -27 24 -1 42 3 39 7 -2 5 2 12 11 15 12 4 15 2 11 -9 -5 -12 8 -14 80 -14
75 0 89 3 101 20 7 10 18 19 24 19 6 0 4 -8 -5 -18 -16 -18 -13 -19 94 -20
102 -1 113 1 129 20 12 15 19 18 24 10 4 -7 2 -12 -3 -12 -6 0 -11 -4 -11 -9
0 -5 36 -10 81 -10 44 0 78 3 75 8 -3 5 1 12 10 15 11 4 15 2 11 -6 -3 -10 12
-14 57 -15 59 -3 63 -1 73 25 l12 27 -6 -27 c-3 -17 -1 -28 6 -28 6 0 11 7 11
15 0 8 4 15 10 15 5 0 7 -6 4 -14 -4 -10 1 -14 15 -13 12 1 21 4 21 8 0 4 7 9
14 12 10 4 13 1 9 -8 -4 -11 2 -14 20 -13 14 1 24 5 21 9 -2 4 3 9 11 13 8 3
14 0 12 -7 -1 -8 15 -13 45 -15 38 -2 48 0 48 12 0 9 5 16 10 16 6 0 10 -6 10
-13 0 -20 57 -19 65 0 3 9 0 20 -7 25 -10 7 -9 8 2 5 8 -2 32 11 53 30 22 19
42 31 45 27 4 -4 1 -9 -5 -11 -18 -7 -73 -56 -73 -66 0 -4 5 -5 12 -1 7 4 8 3
4 -5 -10 -16 19 -25 43 -12 13 7 22 8 26 1 3 -5 11 -10 16 -10 6 0 7 5 4 10
-3 6 0 10 7 10 10 0 11 2 0 8 -17 11 -4 42 17 42 14 -1 14 -2 -2 -14 -15 -12
-15 -15 -2 -26 9 -7 15 -8 15 -2 0 5 6 12 13 15 8 3 14 -1 14 -9 0 -7 -4 -11
-8 -8 -4 2 -10 0 -14 -6 -4 -6 -11 -8 -16 -5 -5 4 -9 1 -9 -5 0 -7 13 -10 32
-8 29 3 33 6 30 31 -1 15 1 27 7 27 5 0 9 -6 8 -13 -1 -41 3 -47 39 -47 24 0
33 4 28 12 -5 7 -3 8 7 2 27 -16 40 -13 33 8 -4 14 -2 18 5 14 6 -4 11 -14 11
-22 0 -8 10 -14 25 -14 14 0 25 6 25 13 0 8 3 7 10 -3 8 -13 11 -12 24 5 9 11
16 24 16 28 0 5 5 5 11 1 8 -4 8 -9 0 -17 -18 -18 -13 -27 14 -27 13 0 29 8
35 18 9 13 10 14 7 1 -4 -13 5 -16 54 -18 54 -1 59 0 59 19 0 12 4 19 10 15 5
-3 7 -12 4 -19 -4 -10 10 -13 56 -15 48 -1 60 1 54 11 -6 10 -5 10 7 1 21 -17
600 -17 611 0 6 9 8 9 8 0 0 -9 165 -12 710 -13 517 0 710 3 710 11 0 6 7 9
15 5 14 -5 20 6 16 28 -1 5 5 4 13 -4 14 -11 16 -9 17 16 l1 29 7 -31 c10 -39
19 -54 34 -54 8 0 8 3 -1 9 -8 4 -15 26 -17 49 -3 32 2 44 20 60 13 11 26 17
30 14 13 -13 65 -10 65 4 0 8 9 14 20 14 12 0 20 7 20 16 0 14 -3 14 -15 4 -9
-7 -18 -10 -22 -6 -3 3 -1 6 5 6 6 0 9 6 6 14 -4 10 0 13 13 12 10 -2 24 1 31
7 14 11 13 11 17 -25 3 -22 0 -26 -13 -20 -15 5 -14 3 2 -13 17 -17 17 -20 2
-30 -20 -15 -21 -25 -2 -25 8 0 17 -7 20 -16 5 -13 9 -14 20 -5 10 8 16 9 21
2 9 -15 -14 -53 -28 -46 -7 4 -3 -1 7 -9 23 -19 32 -20 41 -6 3 6 11 10 16 10
6 0 7 -4 4 -10 -4 -7 727 -10 2184 -10 l2191 0 0 2394 0 2393 -82 31 c-175 64
-360 107 -409 95 -14 -4 -16 -8 -7 -23 7 -10 17 -16 24 -13 18 7 52 -14 59
-37 4 -11 10 -18 15 -15 4 3 6 -4 3 -15 -4 -15 0 -20 16 -20 12 0 19 -4 16
-10 -3 -5 -22 -10 -41 -10 -19 0 -34 -4 -34 -10 0 -5 15 -10 33 -10 17 0 39
-5 47 -10 12 -8 10 -14 -13 -38 -17 -18 -36 -28 -46 -25 -10 2 -23 -3 -30 -11
-12 -14 -9 -17 17 -22 21 -4 29 -11 25 -21 -3 -7 -2 -13 3 -12 23 4 32 -3 27
-21 -3 -11 -9 -20 -14 -20 -5 0 -9 -8 -9 -17 0 -14 -2 -15 -9 -4 -6 10 -10 10
-16 1 -4 -6 -13 -9 -21 -6 -28 11 -13 -9 16 -22 32 -14 32 -32 0 -32 -34 0
-32 -20 4 -35 20 -9 36 -21 35 -28 0 -9 -2 -9 -6 1 -8 20 -36 14 -70 -17 -30
-26 -45 -71 -24 -71 5 0 12 -7 15 -16 4 -11 0 -15 -17 -14 -44 4 -56 0 -60
-22 l-4 -23 -2 23 c0 12 -5 22 -10 22 -12 0 -21 -52 -14 -79 4 -16 1 -21 -16
-21 -11 0 -21 -4 -21 -10 0 -5 10 -10 22 -10 21 0 21 0 2 -21 -16 -18 -19 -19
-22 -5 -5 22 -19 20 -32 -4 -9 -16 -8 -20 5 -20 8 0 15 -4 15 -9 0 -17 -30
-40 -45 -35 -8 4 -15 1 -15 -4 0 -6 8 -13 18 -15 13 -4 11 -5 -5 -6 -26 -1
-32 -21 -6 -21 28 0 -12 -35 -43 -38 -15 -1 -35 -9 -44 -17 -9 -8 -22 -15 -28
-15 -7 0 -12 -9 -12 -20 0 -11 -4 -20 -10 -20 -5 0 -10 7 -10 15 0 23 -15 18
-30 -10 -7 -13 -16 -22 -20 -20 -4 3 -13 -2 -20 -10 -6 -7 -18 -11 -26 -8 -9
3 -14 -2 -14 -16 0 -12 -4 -21 -10 -21 -5 0 -10 -4 -10 -9 0 -5 9 -7 20 -4 11
3 20 10 20 15 0 6 7 5 16 -3 13 -10 17 -10 24 0 5 9 10 10 14 2 4 -6 0 -21 -8
-33 -14 -19 -16 -20 -16 -5 0 11 -5 15 -11 11 -6 -4 -9 -19 -5 -36 4 -20 1
-30 -9 -34 -17 -7 -85 14 -85 26 0 4 -9 10 -20 13 -15 4 -22 -1 -27 -21 -3
-15 -13 -32 -22 -39 -9 -6 -12 -15 -8 -19 4 -5 12 -2 16 5 6 9 11 10 15 2 4
-6 4 -16 0 -23 -4 -7 -3 -8 4 -4 7 4 12 14 12 22 0 8 4 14 8 14 5 0 8 -20 8
-44 -1 -41 -2 -43 -13 -23 -10 19 -17 17 -15 -3 0 -3 -11 -6 -26 -7 -35 -1
-60 -7 -68 -16 -4 -4 -16 0 -26 10 -10 9 -18 13 -18 9 0 -4 10 -16 22 -26 17
-13 28 -15 40 -9 12 7 18 6 18 -1 0 -6 4 -8 10 -5 6 3 7 -1 4 -9 -7 -17 -20
-21 -27 -8 -2 4 -2 1 -1 -5 2 -7 -2 -13 -9 -13 -7 -1 -5 -6 6 -14 21 -16 22
-36 2 -36 -8 0 -15 -4 -15 -10 0 -5 5 -10 10 -10 7 0 6 -5 -2 -13 -6 -8 -23
-12 -37 -10 l-26 4 25 -15 25 -15 -27 -1 c-19 0 -29 6 -34 22 -6 20 -7 21 -19
4 -13 -17 -13 -17 -18 1 -3 12 -5 9 -6 -9 0 -16 -5 -28 -11 -28 -5 0 -10 -7
-10 -16 0 -8 -4 -13 -9 -9 -6 3 -15 -4 -21 -15 -9 -16 -15 -19 -24 -11 -10 8
-17 7 -26 -4 -7 -8 -19 -15 -26 -15 -8 0 -14 -4 -14 -10 0 -18 25 -11 38 10 7
12 17 18 22 15 10 -6 -30 -55 -40 -49 -3 1 -7 -7 -7 -18 -3 -36 -21 -43 -20
-8 1 18 -3 35 -9 37 -7 2 -10 -5 -7 -22 3 -15 1 -25 -6 -25 -10 0 -15 13 -12
35 1 6 -5 2 -12 -7 -8 -10 -24 -18 -36 -18 -13 0 -21 -6 -21 -16 0 -13 3 -14
14 -4 35 28 88 -13 55 -44 -9 -8 -10 -8 -4 4 5 10 1 8 -13 -4 -12 -11 -25 -16
-29 -12 -4 4 -1 11 7 16 8 6 11 10 5 11 -5 0 1 4 15 8 l25 7 -27 6 c-20 4 -28
1 -28 -9 0 -8 -4 -11 -10 -8 -5 3 -10 1 -10 -5 0 -7 -7 -9 -16 -6 -14 5 -16 1
-11 -28 7 -41 1 -49 -26 -34 -16 8 -23 7 -35 -8 -14 -19 -15 -19 -8 0 3 10 1
25 -5 32 -6 7 -7 19 -3 25 4 7 3 9 -4 5 -5 -3 -12 -1 -14 6 -3 7 -7 5 -11 -6
-4 -10 -3 -15 3 -11 6 3 10 2 10 -3 0 -17 -13 -22 -29 -9 -14 11 -14 10 -2 -5
9 -13 10 -18 2 -18 -7 0 -9 -5 -5 -12 5 -8 11 -6 19 5 14 19 35 23 35 7 0 -6
-6 -13 -14 -16 -12 -5 -11 -9 5 -25 21 -21 25 -39 9 -39 -6 0 -9 3 -9 8 3 19
-2 33 -10 27 -6 -3 -8 -14 -6 -25 2 -12 0 -18 -6 -14 -6 3 -8 16 -5 29 4 17 1
24 -15 28 -14 4 -19 2 -16 -8 3 -7 0 -18 -6 -25 -10 -10 -8 -11 8 -6 15 6 17
4 8 -5 -14 -14 -34 -3 -27 15 3 8 1 17 -5 20 -12 8 -83 -53 -76 -65 3 -4 0
-11 -6 -15 -7 -4 -9 -3 -5 4 10 16 -12 25 -65 25 -52 0 -73 13 -45 29 9 5 13
14 10 20 -5 7 -11 5 -20 -6 -7 -10 -18 -15 -24 -11 -8 5 -5 12 7 22 16 13 16
13 -5 3 -29 -14 -38 -36 -22 -55 11 -13 10 -14 -6 -8 -17 6 -18 5 -5 -11 14
-17 15 -17 28 0 7 10 13 13 13 7 0 -5 -10 -18 -22 -29 -12 -10 -18 -14 -15 -7
4 7 -1 14 -13 18 -22 7 -27 21 -9 27 16 5 -1 38 -20 38 -18 0 -45 -36 -36 -49
3 -5 -5 -7 -17 -3 -12 3 -17 7 -11 9 6 2 10 16 7 31 -4 23 -3 25 7 9 10 -17
14 -13 33 29 15 33 25 44 30 36 5 -8 0 -22 -11 -35 -15 -19 -16 -20 0 -8 11 9
17 10 17 2 0 -6 5 -11 11 -11 5 0 8 4 4 9 -3 5 -1 12 5 16 6 4 7 13 1 23 -5
10 -8 36 -6 60 1 23 -2 42 -6 42 -5 0 -8 -10 -6 -22 2 -13 1 -34 -4 -48 -4
-16 -7 -19 -8 -7 -1 9 -5 17 -11 17 -5 0 -6 -7 -3 -17 4 -11 3 -14 -5 -9 -8 5
-10 1 -6 -11 5 -16 4 -16 -10 1 -18 22 -21 14 -6 -14 17 -31 -32 -35 -76 -5
-28 19 -40 22 -55 14 -10 -5 -19 -6 -19 -1 0 5 11 14 25 20 14 6 25 18 25 26
0 7 7 16 15 20 9 3 15 0 15 -8 0 -7 8 -20 17 -27 15 -12 16 -12 11 3 -9 23 3
31 17 11 10 -14 13 -12 23 16 7 20 16 30 23 26 8 -6 7 -10 -2 -17 -12 -8 -12
-9 0 -6 21 6 23 37 2 33 -9 -1 -22 2 -29 8 -9 7 -16 7 -20 0 -10 -14 -62 -26
-62 -13 0 5 3 9 8 8 13 -2 42 14 42 24 0 5 -4 7 -9 4 -12 -8 -19 25 -11 49 6
17 7 17 13 -6 7 -23 8 -23 22 -5 14 19 15 18 23 -5 l9 -23 12 22 c10 18 9 21
-4 16 -8 -4 -15 -1 -15 5 0 15 -27 14 -33 -1 -3 -8 -6 -6 -6 5 -1 17 -41 26
-41 8 0 -5 -9 -11 -20 -14 -17 -4 -18 -2 -9 14 5 10 19 19 29 19 22 0 24 7 11
29 -5 8 -16 11 -25 8 -8 -3 -19 0 -23 7 -5 7 -16 15 -25 19 -10 3 -18 16 -18
27 0 12 5 18 10 15 6 -3 10 1 10 9 0 8 -4 18 -10 21 -5 3 -10 11 -10 16 0 6 5
7 10 4 6 -3 10 -1 10 4 0 6 11 11 25 11 14 0 25 5 25 10 0 6 -11 10 -25 10
-14 0 -25 -4 -25 -10 0 -5 -7 -10 -15 -10 -10 0 -16 -11 -16 -32 -2 -32 -2
-32 -6 -5 -3 19 2 36 14 50 10 11 13 17 6 14 -8 -5 -13 16 -18 70 -20 236 -32
298 -66 329 -19 17 -21 16 -57 -17 -20 -19 -29 -25 -19 -13 9 11 14 24 10 29
-5 4 -2 5 5 1 9 -6 12 -2 10 10 -2 15 3 19 27 19 17 0 33 5 37 10 5 6 8 5 8
-4 0 -9 4 -10 13 -5 6 5 42 9 79 9 38 0 68 3 68 8 0 4 4 7 9 7 5 0 11 -13 13
-30 3 -21 0 -30 -9 -30 -8 0 -12 4 -8 9 3 5 1 12 -4 15 -5 4 -12 -2 -14 -11
-4 -17 -5 -17 -6 0 -1 17 -27 24 -33 8 -1 -5 -14 -11 -28 -13 -14 -1 -28 -10
-32 -18 -4 -10 -7 -7 -7 10 -1 18 -4 21 -10 11 -5 -7 -13 -11 -19 -7 -7 4 -6
-4 1 -23 6 -17 15 -27 21 -24 5 3 6 1 2 -6 -10 -15 2 -51 16 -48 6 1 21 12 34
25 24 23 44 29 44 12 0 -5 -4 -10 -10 -10 -5 0 -10 -5 -10 -11 0 -8 5 -8 15 1
8 7 24 10 36 7 25 -7 108 33 109 51 0 8 -9 16 -20 19 -11 3 -20 9 -20 15 0 5
9 4 21 -2 12 -7 32 -9 47 -5 l27 8 -30 9 c-16 4 -44 6 -61 3 -22 -4 -33 -1
-37 8 -4 11 5 14 39 14 25 0 47 -4 50 -8 3 -5 16 -9 30 -9 14 0 23 -4 19 -10
-3 -6 1 -13 11 -17 22 -8 46 24 39 51 -6 21 -6 21 9 2 12 -15 13 -23 4 -33
-18 -22 -3 -25 17 -3 14 15 15 23 6 34 -8 10 -9 16 -1 21 5 3 10 -1 10 -9 0
-8 9 -20 20 -26 14 -7 20 -7 20 0 0 5 5 10 11 10 6 0 24 9 40 21 16 11 29 17
29 13 0 -4 6 0 13 11 13 17 14 17 20 -4 6 -25 -6 -35 -33 -26 -22 7 -28 -10
-6 -18 7 -3 32 -3 56 0 34 5 41 9 37 24 -4 13 0 19 12 19 9 0 21 4 27 9 13 12
84 22 84 12 0 -13 43 -21 55 -11 6 5 37 10 70 11 73 3 105 24 47 31 -20 3 -40
1 -43 -5 -4 -5 -14 -5 -27 2 -11 6 -27 8 -35 5 -8 -3 -18 -1 -21 4 -3 6 24 15
64 23 38 7 70 16 70 20 0 4 15 5 34 2 22 -3 36 -1 41 8 5 7 4 14 -3 17 -7 2
-12 10 -12 18 0 8 -4 14 -10 14 -14 0 -12 -28 3 -33 7 -2 8 -8 3 -13 -5 -5
-11 -4 -13 3 -3 8 -14 11 -29 7 -17 -4 -24 -2 -24 9 0 8 9 17 21 20 11 3 23
15 26 27 5 18 11 21 34 16 16 -3 31 -1 34 4 3 6 17 10 30 10 30 0 55 10 55 21
0 5 -9 9 -20 9 -11 0 -20 4 -20 9 0 16 30 41 49 41 26 0 44 23 29 38 -7 7 -17
12 -24 12 -8 0 -9 11 -5 33 4 17 11 31 16 30 6 -1 16 3 23 9 6 6 12 8 12 5 0
-3 12 0 26 8 15 7 32 12 38 11 6 -2 8 -1 4 1 -5 3 -8 11 -8 19 0 17 -17 19
-23 2 -3 -10 -7 -10 -19 0 -13 10 -17 10 -21 0 -3 -8 -9 -1 -16 15 -12 31 -7
49 12 45 28 -5 86 24 90 45 l4 22 2 -22 c0 -13 5 -23 9 -23 18 0 20 13 5 36
-14 22 -14 24 3 30 11 3 35 12 54 19 42 17 79 21 103 10 13 -5 24 -1 39 15
l21 22 -44 -5 c-24 -2 -53 -8 -64 -11 -16 -5 -30 2 -58 28 -20 19 -37 37 -37
40 0 10 168 6 196 -4 32 -13 42 -6 24 15 -7 9 -10 18 -7 22 6 5 -182 75 -280
104 -18 6 -60 8 -94 5 -33 -3 -72 -1 -85 4 -14 6 -38 11 -55 12 -26 2 -30 7
-36 40 -6 41 -17 46 -48 22z m-1521 -669 c9 -46 59 -79 146 -95 51 -9 87 -25
170 -77 58 -36 125 -82 150 -101 25 -20 47 -37 49 -39 2 -1 -2 -10 -9 -18 -7
-9 -16 -12 -19 -7 -9 14 -166 103 -230 131 -44 19 -67 22 -122 19 -45 -3 -75
-10 -87 -21 -10 -9 -27 -17 -38 -16 -16 0 -16 2 4 10 18 7 22 14 17 31 -4 13
-13 28 -20 34 -7 5 -18 26 -24 45 l-11 34 5 -34 c4 -29 3 -32 -13 -26 -28 12
-154 34 -200 34 -77 1 -112 -22 -137 -94 -4 -12 -9 -15 -12 -8 -7 20 28 83 61
107 53 40 80 41 246 9 23 -4 26 0 38 49 8 29 14 58 15 65 1 23 15 3 21 -32z
m84 -552 c17 -4 22 -11 19 -24 -6 -21 8 -26 17 -6 8 15 -2 -160 -10 -189 -4
-16 -16 -23 -43 -28 -21 -3 -56 -19 -78 -35 -53 -38 -173 -111 -183 -111 -5 0
-10 -4 -12 -8 -5 -12 -225 -145 -280 -169 l-28 -12 0 64 c0 50 3 65 14 65 20
0 29 -17 14 -23 -10 -3 -10 -8 1 -18 9 -9 11 -9 7 -1 -4 6 -2 13 3 13 6 1 16
2 23 3 6 0 13 7 16 14 2 7 -2 10 -12 6 -9 -3 -16 -1 -16 6 0 6 4 9 9 5 5 -3
12 4 16 15 7 23 22 18 35 -14 8 -18 9 -17 7 9 -2 25 2 31 22 33 19 3 21 6 10
13 -11 7 -9 9 9 9 13 0 22 6 22 15 0 8 10 20 22 26 13 7 29 18 36 25 7 8 47
40 89 71 98 76 95 73 122 111 18 26 19 32 7 32 -9 0 -16 -5 -16 -12 0 -6 -3
-9 -6 -5 -4 3 -19 0 -35 -9 -16 -8 -29 -12 -29 -9 0 3 -13 -1 -30 -10 -16 -9
-30 -13 -30 -11 0 3 -52 -22 -116 -55 -116 -60 -164 -82 -164 -74 0 2 21 14
48 27 26 13 87 47 136 76 178 108 330 192 345 192 9 0 26 -3 39 -7z m-871
-392 c13 -11 42 -47 63 -80 22 -34 47 -61 55 -61 29 0 80 27 105 56 l25 29 5
-30 c4 -21 1 -32 -10 -37 -12 -5 -12 -7 3 -7 30 -2 22 -78 -15 -147 -17 -32
-42 -90 -54 -129 -17 -52 -22 -60 -19 -33 2 28 -2 42 -19 60 -23 23 -40 68
-27 68 4 0 13 -12 20 -27 10 -22 14 -24 22 -12 12 19 11 29 -2 29 -5 0 -7 -5
-3 -12 4 -6 3 -8 -4 -4 -8 5 -7 18 4 48 19 54 18 61 -6 48 -11 -6 -23 -22 -26
-35 -3 -14 -12 -25 -19 -25 -15 0 -17 5 -35 90 -7 30 -19 68 -27 84 -11 20
-12 31 -4 39 15 15 14 24 -5 31 -12 5 -15 2 -10 -11 6 -15 5 -16 -5 -5 -10 9
-10 15 -1 24 10 10 6 18 -20 40 -37 31 -30 39 9 9z m-757 -286 c0 -3 -6 -21
-14 -40 -18 -41 -49 -51 -187 -61 -91 -6 -97 -6 -103 13 -7 23 -52 28 -75 9
-8 -6 -16 -9 -19 -7 -2 2 -29 -18 -60 -45 -30 -27 -67 -54 -81 -61 -26 -11
-26 -11 -3 -12 13 -1 79 8 145 19 67 11 154 25 192 31 93 15 147 43 207 108
27 29 51 51 54 48 3 -2 -6 -28 -20 -57 -21 -43 -22 -51 -8 -45 9 3 -1 -12 -23
-35 -40 -41 -152 -103 -210 -115 l-30 -7 25 14 c14 8 24 21 22 30 -1 10 6 18
20 21 48 9 -74 7 -144 -3 -40 -6 -117 -11 -170 -13 -54 -1 -98 -5 -98 -9 0 -4
-6 -5 -14 -2 -29 11 -272 -43 -359 -81 -22 -9 -46 -15 -55 -13 -22 4 196 75
288 93 148 30 179 60 87 84 -23 6 -49 15 -57 21 -26 17 37 12 72 -6 39 -20 27
1 -16 27 l-31 19 33 0 c18 0 31 -4 28 -9 -3 -5 4 -12 17 -16 37 -12 58 -12 64
-2 4 6 1 7 -8 2 -8 -5 -11 -4 -6 1 5 5 12 9 15 9 4 0 13 4 21 9 10 7 12 6 6
-4 -5 -8 -3 -11 6 -8 8 3 13 11 12 17 -4 15 14 14 20 -1 3 -7 6 -4 6 7 1 14 4
16 9 8 6 -9 17 -6 42 12 30 20 55 26 165 36 72 6 132 13 134 15 6 6 101 5 101
-1z m2405 -179 c22 2 26 1 15 -7 -12 -8 -11 -10 5 -8 40 3 48 0 36 -14 -6 -8
-8 -17 -4 -20 3 -4 1 -7 -6 -7 -7 0 -10 -4 -7 -9 3 -5 -12 -25 -33 -44 -34
-30 -44 -35 -73 -30 -18 4 -45 7 -59 7 -31 1 -29 15 8 60 20 24 22 31 11 45
-11 14 -11 14 4 3 13 -11 20 -11 37 0 12 7 19 19 16 27 -4 10 -2 11 7 4 7 -6
26 -9 43 -7z m-5160 -96 c299 -34 774 -105 818 -123 18 -8 91 -53 162 -102
229 -154 298 -180 580 -220 210 -30 281 -48 321 -80 l29 -24 -67 24 c-71 26
-143 41 -357 75 -208 34 -304 73 -487 198 -145 99 -185 121 -238 132 -128 26
-707 103 -867 116 -113 9 -144 -2 -220 -79 l-62 -62 48 58 c52 63 88 92 120
99 26 5 108 0 220 -12z m-80 -304 c137 -28 582 -91 788 -112 37 -3 69 -10 72
-14 7 -12 28 -251 22 -257 -10 -9 -352 41 -741 108 -98 17 -195 41 -210 52
-11 8 -20 47 -29 125 -7 62 -11 115 -8 117 2 3 12 3 20 0 9 -2 48 -11 86 -19z
m-653 -116 c-13 -11 -18 -21 -12 -25 5 -3 10 -1 10 4 0 13 20 14 39 2 13 -8
13 -12 0 -27 -9 -11 -9 -15 -1 -10 9 5 12 -3 12 -29 0 -42 14 -50 63 -37 l36
10 -6 -66 c-3 -37 0 -78 5 -92 9 -24 10 -23 17 15 4 22 14 67 21 100 l14 60
-5 -95 c-3 -52 -8 -125 -11 -161 l-7 -66 63 -7 c34 -4 140 -27 234 -51 232
-59 474 -109 723 -149 115 -19 197 -35 185 -35 -83 -3 -651 106 -962 184 -81
21 -182 39 -252 44 -65 6 -128 15 -140 21 -22 11 -22 10 -4 -4 19 -15 39 -21
60 -17 5 1 6 -7 3 -19 -3 -13 -1 -18 6 -13 7 3 4 -3 -6 -15 -18 -20 -47 -20
-47 0 0 6 6 6 14 -2 12 -9 15 -8 13 8 0 10 -8 19 -17 19 -18 0 -41 -28 -33
-41 4 -5 1 -6 -5 -2 -9 5 -7 16 4 39 17 32 16 32 -3 15 -26 -23 -41 -23 -20 0
15 16 15 18 -2 18 -10 0 -18 -7 -17 -15 1 -7 -5 -16 -12 -18 -8 -3 -10 1 -5
13 4 11 3 15 -4 11 -15 -9 -23 -46 -12 -53 5 -3 9 0 9 5 0 6 9 11 20 11 11 0
20 -4 20 -10 0 -5 -7 -7 -15 -4 -19 8 -20 -15 -1 -30 13 -9 11 -14 -12 -30
-15 -11 -22 -14 -16 -7 7 7 9 21 7 32 -4 14 -9 16 -23 9 -24 -13 -30 -13 -30
1 0 5 5 7 10 4 6 -3 10 -3 11 2 6 54 5 85 -4 90 -5 3 -7 1 -3 -5 3 -6 2 -13
-3 -17 -7 -4 -7 -15 -1 -30 7 -19 6 -25 -4 -25 -9 0 -12 7 -9 20 3 12 0 20 -7
20 -7 0 -10 7 -6 15 3 8 1 15 -4 15 -6 0 -10 -2 -10 -4 0 -2 -3 -12 -7 -22 -4
-12 -3 -15 5 -10 7 4 12 3 12 -3 0 -15 -18 -23 -22 -9 -3 7 -12 9 -22 5 -11
-4 -16 -13 -12 -22 3 -8 2 -15 -3 -15 -17 0 -19 13 -5 35 12 18 13 29 5 44
-15 27 -14 36 3 22 20 -17 27 0 10 24 -14 19 -14 19 -28 0 -8 -11 -12 -23 -10
-27 2 -3 -3 -5 -11 -4 -19 3 -21 18 -3 26 7 3 14 11 16 18 2 10 -2 10 -17 2
-26 -13 -41 -13 -18 1 13 7 15 14 8 23 -7 8 -3 12 15 14 13 1 23 -3 21 -9 -3
-18 20 -21 27 -4 3 9 2 13 -3 10 -5 -3 -12 -1 -16 5 -3 5 -15 10 -26 10 -13 0
-19 7 -19 21 0 11 5 17 10 14 6 -4 8 -11 5 -16 -4 -5 -1 -9 4 -9 6 0 11 6 11
13 0 8 4 7 10 -3 5 -8 10 -10 10 -5 0 6 -5 17 -10 25 -7 11 -10 11 -10 2 0 -7
-5 -10 -11 -7 -6 4 -8 13 -5 20 3 9 -2 12 -15 10 -17 -4 -19 -2 -9 10 17 21 1
19 -24 -2 -12 -10 -18 -14 -14 -9 4 5 3 15 -3 22 -8 10 -2 12 26 10 19 -2 38
1 41 6 3 4 10 6 15 3 5 -4 6 2 2 12 -6 16 -5 17 13 3 18 -14 18 -14 5 3 -14
17 -16 18 -27 2 -8 -10 -14 -12 -19 -6 -3 6 -1 11 4 11 6 0 11 7 11 15 0 12 4
13 19 5 27 -14 29 -13 41 13 11 21 11 21 -5 2 -15 -19 -15 -19 -35 1 -20 20
-20 20 2 21 18 2 20 0 8 -8 -10 -7 -11 -9 -2 -7 8 2 13 7 12 12 -2 10 27 29
48 32 22 4 26 13 12 29 -11 13 -9 19 10 35 28 25 43 10 34 -32 -7 -33 1 -36
16 -9 7 13 7 28 0 46 -7 17 -7 24 0 20 6 -3 10 -13 10 -21 0 -8 5 -14 10 -14
6 0 10 6 9 13 -3 25 1 38 11 32 6 -3 10 -1 10 4 0 6 6 11 13 11 6 -1 2 -9 -11
-20z m-138 -985 c-4 -9 -1 -15 7 -15 8 0 4 -8 -9 -20 -13 -12 -19 -27 -16 -38
4 -10 3 -13 -3 -6 -5 7 -16 8 -28 3 -11 -4 -16 -8 -12 -8 4 -1 3 -10 -3 -21
-9 -16 -8 -20 5 -20 9 0 14 4 11 9 -3 5 1 11 9 15 20 7 19 3 -10 -40 -15 -22
-23 -45 -19 -56 3 -10 1 -18 -5 -18 -6 0 -11 5 -11 11 0 6 -7 8 -16 5 -25 -10
-84 4 -84 20 0 8 9 14 21 14 11 0 18 -4 14 -9 -10 -17 14 -22 37 -9 13 7 28
11 33 9 6 -1 0 7 -13 19 -12 12 -20 25 -17 31 4 5 1 9 -5 9 -7 0 -10 -7 -6
-15 3 -8 2 -16 -2 -16 -4 -1 -20 -2 -37 -4 l-30 -2 28 10 c15 6 27 15 27 20 0
11 -39 -1 -70 -23 -29 -20 -60 -22 -60 -4 0 7 8 10 18 7 13 -3 22 4 30 24 11
26 11 26 -3 9 -8 -11 -18 -17 -21 -13 -4 4 -13 2 -21 -5 -10 -8 -12 -8 -8 3 3
8 20 21 37 28 18 8 27 16 20 19 -7 2 -19 -2 -28 -9 -13 -10 -14 -9 -10 14 6
32 -4 35 -22 7 -7 -11 -8 -20 -3 -20 5 0 7 -9 4 -20 -3 -11 -8 -20 -12 -20 -9
0 -7 43 3 59 11 18 -3 28 -15 11 -5 -8 -7 -26 -4 -40 5 -24 5 -24 -10 -6 -11
14 -12 23 -4 33 14 16 -3 17 -19 1 -15 -15 -16 -32 -2 -23 14 9 12 -9 -2 -24
-11 -10 -10 -12 2 -11 35 5 41 1 30 -20 -6 -11 -15 -18 -21 -15 -5 4 -9 1 -9
-5 0 -7 -7 -10 -15 -6 -8 3 -15 1 -15 -4 0 -6 5 -10 11 -10 6 0 7 -5 2 -12 -4
-7 -8 -16 -9 -20 -1 -5 -2 -11 -3 -15 -1 -8 -30 29 -31 40 0 5 5 5 10 2 6 -3
10 -1 10 4 0 16 -14 13 -36 -7 -24 -23 -54 -34 -54 -21 0 19 -28 39 -46 32
-11 -4 -15 -3 -10 5 3 6 -2 15 -11 21 -17 9 -17 10 0 16 9 4 17 13 17 20 0 7
7 19 17 26 15 13 15 12 4 -8 -14 -27 -4 -31 14 -6 14 18 55 28 55 13 0 -6 -9
-10 -20 -10 -11 0 -20 -3 -21 -7 0 -5 -2 -16 -4 -25 -4 -23 4 -23 24 0 9 11
27 25 40 32 20 10 25 10 33 -4 9 -17 28 -13 28 5 0 6 -4 7 -10 4 -6 -4 -7 1
-3 11 5 13 3 16 -10 11 -9 -3 -17 -2 -17 4 0 5 -10 14 -22 19 -23 9 -23 9 -1
9 12 1 23 6 25 13 5 13 38 20 38 8 0 -5 -9 -12 -20 -15 -11 -3 -20 -11 -20
-16 0 -6 5 -7 11 -3 6 3 15 0 20 -7 7 -11 9 -10 9 4 0 11 8 17 23 17 13 0 28
5 35 12 7 7 12 8 12 2 0 -13 43 -13 53 0 5 6 5 1 2 -11 -5 -17 -2 -23 9 -23
11 0 14 8 11 29 -3 23 0 28 11 24 10 -4 11 -9 4 -18 -5 -6 -7 -15 -3 -18 9 -9
23 -9 22 1 -3 19 2 33 10 28 15 -10 1 -44 -20 -49 -20 -5 -27 -27 -9 -27 6 0
10 5 10 12 0 6 7 3 15 -8 11 -13 15 -14 13 -4 -2 8 0 15 3 15 3 0 13 6 23 14
9 8 19 11 22 8 9 -9 -5 -27 -22 -27 -8 0 -14 -4 -14 -10 0 -14 16 -12 33 5 8
8 17 12 19 9 3 -2 11 2 18 11 11 13 10 14 -4 9 -9 -3 -16 -1 -16 5 0 6 7 11
15 11 8 0 17 11 21 25 3 14 11 22 16 19 6 -4 6 -10 -1 -17 -20 -20 -13 -39 8
-19 10 10 14 21 10 27 -13 14 -11 25 6 25 9 0 12 -6 9 -15z m-564 -165 c-13
-9 -52 -14 -72 -11 -5 0 -8 -4 -8 -10 0 -13 78 -2 98 14 10 8 13 7 12 -4 -4
-25 0 -39 11 -39 5 0 7 5 4 10 -11 18 11 11 41 -12 15 -13 37 -21 48 -20 14 3
17 0 13 -12 -5 -14 -3 -15 13 -6 25 13 30 13 30 -5 0 -9 -6 -12 -17 -8 -10 3
-15 2 -10 -2 6 -7 21 -11 62 -14 5 -1 4 -6 -3 -13 -17 -17 -15 -26 6 -31 12
-3 11 -5 -6 -6 -13 0 -20 -5 -17 -11 3 -5 1 -10 -5 -10 -6 0 -8 -5 -4 -12 5
-8 10 -7 18 4 14 18 63 31 71 19 3 -5 1 -12 -5 -16 -5 -3 -10 -11 -10 -16 0
-6 5 -7 10 -4 6 3 10 2 10 -4 0 -18 -20 -23 -26 -7 -3 9 -10 13 -15 10 -5 -3
-7 -9 -4 -14 3 -4 -2 -13 -10 -20 -8 -7 -15 -23 -15 -35 0 -22 -17 -35 -46
-35 -8 0 -14 5 -14 10 0 6 9 10 19 10 21 0 37 17 27 27 -3 3 -11 1 -18 -4 -19
-14 -48 -24 -48 -15 0 9 49 32 69 32 8 0 12 3 8 6 -3 3 3 15 13 27 11 11 17
24 13 30 -3 5 -17 -5 -30 -22 -13 -17 -30 -31 -36 -31 -7 0 -4 7 6 14 18 14
24 32 7 21 -5 -3 -10 0 -10 7 0 7 -7 2 -16 -10 -8 -12 -23 -22 -32 -22 -14 1
-14 2 3 12 20 11 37 32 35 44 -1 3 6 11 16 18 16 12 16 13 0 19 -10 4 -14 11
-11 17 3 5 -1 10 -9 10 -8 0 -21 9 -29 21 -9 11 -18 16 -21 11 -3 -6 1 -17 9
-25 8 -9 15 -22 16 -29 0 -10 2 -10 6 0 2 6 9 10 14 6 16 -10 10 -24 -12 -24
-13 0 -18 -4 -13 -12 4 -6 3 -8 -3 -5 -10 6 -83 -18 -83 -27 0 -2 13 -3 29 -2
16 1 27 4 24 9 -2 4 3 7 11 7 24 0 30 -21 8 -27 -18 -4 -19 -8 -10 -29 9 -19
14 -21 29 -13 13 6 19 6 19 -1 0 -5 -4 -10 -9 -10 -6 0 -22 -11 -36 -24 -15
-14 -33 -22 -40 -20 -7 3 -16 1 -19 -5 -4 -6 -13 -8 -21 -4 -8 3 -15 1 -15 -5
0 -5 -9 -12 -21 -15 -18 -5 -19 -8 -7 -26 12 -20 13 -20 27 4 16 25 40 40 49
30 3 -3 -4 -13 -17 -21 l-22 -16 21 -15 21 -15 -20 -15 c-27 -18 -52 -6 -26
14 11 7 13 13 7 13 -18 0 -54 -39 -46 -51 4 -7 -1 -7 -15 0 -14 8 -21 8 -21 1
0 -5 -7 -10 -15 -10 -8 0 -15 5 -15 10 0 6 5 10 10 10 6 0 10 5 10 11 0 8 -4
8 -14 0 -10 -9 -15 -8 -19 3 -8 21 23 25 51 8 22 -14 22 -14 20 17 -2 30 -20
42 -33 21 -3 -5 1 -10 9 -10 9 0 16 -4 16 -10 0 -17 -18 -11 -33 11 l-15 20
-16 -22 c-8 -13 -19 -20 -22 -16 -4 4 -13 2 -21 -4 -10 -9 -13 -8 -13 4 0 8
-5 17 -12 19 -14 5 -3 38 12 38 6 0 8 -4 5 -10 -3 -6 1 -7 9 -4 9 3 16 12 16
19 0 18 25 36 55 40 18 2 25 -2 21 -11 -3 -8 0 -11 10 -7 8 3 13 8 10 10 -3 3
5 14 17 24 27 22 13 24 -27 4 -15 -8 -32 -12 -38 -9 -5 4 -25 -2 -43 -12 -28
-15 -32 -21 -22 -33 10 -12 9 -13 -10 -2 -16 8 -23 8 -23 1 0 -6 -5 -8 -11 -4
-8 4 -1 12 17 22 31 16 69 51 62 58 -3 2 -14 -5 -26 -16 -23 -22 -38 -25 -44
-10 -2 6 -8 6 -18 0 -13 -8 -12 -10 3 -10 9 0 17 -5 17 -11 0 -7 -10 -9 -25
-7 -23 5 -30 -2 -26 -24 0 -5 -4 -8 -10 -8 -6 0 -9 -7 -5 -15 3 -8 2 -15 -3
-15 -4 0 -20 -11 -35 -25 -15 -14 -32 -22 -38 -19 -7 4 -8 2 -4 -4 4 -6 13 -9
20 -6 8 3 17 1 20 -5 4 -6 -7 -14 -26 -19 -18 -4 -28 -11 -22 -14 12 -8 59 13
60 27 2 25 18 46 31 41 8 -3 11 -2 8 4 -3 5 3 14 14 19 27 15 30 14 24 -8 -3
-11 -19 -27 -36 -36 -24 -13 -26 -15 -9 -11 23 4 23 4 6 -15 -9 -10 -23 -19
-31 -19 -7 0 -13 -4 -13 -9 0 -4 10 -8 23 -7 17 1 22 -4 21 -22 -1 -19 3 -23
25 -20 15 2 26 -2 27 -9 3 -25 4 -25 21 -12 14 12 16 12 11 -1 -3 -8 -15 -15
-28 -15 -13 0 -25 -6 -28 -14 -3 -9 0 -11 9 -6 8 5 6 0 -3 -12 -20 -21 -24
-38 -8 -28 6 3 7 -1 4 -9 -3 -9 -10 -13 -15 -10 -12 7 -49 -14 -49 -29 -1 -14
-50 -52 -50 -39 0 12 -33 10 -42 -3 -4 -5 -10 -6 -14 -2 -4 4 -2 13 4 19 7 7
12 17 12 22 -1 6 -9 0 -20 -13 -24 -28 -17 -45 16 -38 13 2 23 1 22 -2 -2 -18
4 -22 16 -12 11 9 14 8 12 -6 0 -10 -5 -21 -11 -25 -6 -5 -5 -8 3 -8 7 0 10
-5 7 -11 -5 -7 5 -8 32 -3 28 5 35 3 27 -5 -5 -6 -36 -14 -67 -17 -48 -5 -57
-3 -57 10 0 9 5 16 11 16 5 0 7 -4 4 -10 -3 -5 1 -10 9 -10 8 0 18 5 21 10 3
6 2 10 -4 10 -6 0 -8 7 -5 15 8 19 3 19 -32 0 -16 -8 -36 -15 -44 -15 -8 0 5
10 30 22 33 17 40 24 26 26 -10 2 -23 -1 -29 -7 -14 -14 -37 -14 -37 -1 0 6
10 10 23 10 16 0 18 3 8 9 -7 5 -10 14 -7 20 5 7 -1 11 -13 11 -12 0 -21 5
-21 11 0 5 -4 7 -10 4 -5 -3 -10 -11 -10 -16 0 -6 5 -7 10 -4 6 3 10 1 10 -5
0 -6 5 -8 10 -5 6 3 10 1 10 -4 0 -6 -4 -11 -9 -11 -5 0 -11 -9 -14 -20 -6
-23 -90 -66 -96 -49 -2 6 2 16 9 22 10 9 11 9 6 0 -4 -7 -2 -13 3 -13 6 0 11
5 11 10 0 6 0 13 0 18 0 4 -9 8 -20 8 -11 1 -17 -3 -14 -7 3 -5 -5 -9 -17 -9
-17 0 -19 3 -10 13 20 24 -1 27 -28 4 -15 -12 -26 -25 -26 -28 0 -3 -7 -14
-14 -23 -13 -16 -13 -18 0 -16 32 5 44 1 31 -12 -7 -7 -30 -11 -51 -9 -27 2
-40 -2 -44 -13 -8 -20 -37 -21 -37 -2 0 9 15 17 40 21 22 4 40 10 40 15 0 5 3
15 6 24 7 18 -4 20 -26 6 -13 -9 -13 -11 0 -20 8 -5 11 -10 5 -10 -5 1 -18 7
-27 14 -16 12 -16 14 5 23 88 41 120 59 124 70 3 7 14 13 24 13 10 0 19 3 19
8 0 4 -18 7 -39 7 -29 0 -46 -7 -63 -25 -13 -13 -22 -28 -20 -33 1 -5 -2 -6
-7 -3 -15 10 -1 45 21 52 14 4 17 9 9 17 -12 12 -54 -19 -45 -34 8 -14 -26
-69 -43 -69 -14 0 -14 2 3 15 19 15 19 15 -1 10 -16 -5 -16 -3 3 6 22 12 28
24 14 32 -11 8 -54 -31 -47 -42 3 -6 -5 -15 -17 -22 -20 -11 -22 -11 -10 4 11
13 10 16 -4 19 -16 3 -16 4 1 21 9 10 24 16 31 13 8 -3 14 -1 14 4 0 13 -16
13 -40 0 -13 -7 -19 -6 -24 6 -4 10 -13 14 -22 10 -12 -4 -15 0 -12 17 2 16
10 22 28 22 14 0 31 4 38 9 7 4 16 5 19 2 3 -3 -2 -8 -11 -12 -9 -3 -13 -10
-10 -15 8 -13 -10 -11 -24 3 -8 8 -12 8 -12 1 0 -19 24 -30 62 -28 39 2 72 21
62 37 -3 5 -14 0 -24 -12 -21 -24 -35 -26 -26 -4 5 14 4 15 -9 4 -18 -15 -19
-1 -1 22 10 13 15 15 24 6 8 -8 12 -9 12 -1 0 6 15 13 33 15 17 3 40 8 50 13
10 4 17 3 17 -3 0 -6 -9 -14 -21 -17 -11 -4 -18 -10 -14 -13 9 -10 29 -9 36 1
9 13 109 19 109 6 0 -7 -11 -9 -30 -6 -16 4 -32 2 -35 -3 -4 -6 -11 -8 -16 -5
-5 4 -9 1 -9 -4 0 -15 23 -14 38 1 9 9 12 9 12 -1 0 -7 4 -9 10 -6 5 3 7 0 4
-9 -4 -11 0 -13 18 -9 13 3 28 10 35 15 7 6 19 5 32 -1 13 -7 22 -8 26 -1 3 5
-1 10 -9 10 -9 0 -16 4 -16 10 0 5 6 7 13 4 7 -2 26 9 42 26 32 33 27 42 -6 9
-11 -11 -27 -18 -34 -15 -8 3 -15 0 -17 -6 -2 -6 -14 -13 -27 -15 -18 -2 -22
1 -17 12 3 9 2 13 -4 10 -6 -3 -10 -2 -10 4 0 17 22 24 32 10 8 -11 9 -10 4 4
-3 9 -1 17 3 17 5 0 11 -5 13 -11 3 -8 16 -6 42 5 22 9 41 14 44 11 3 -3 16 2
30 11 15 10 21 11 17 3 -6 -9 -3 -11 8 -6 18 7 24 -8 7 -18 -6 -4 -8 -11 -5
-16 4 -5 2 -9 -3 -9 -4 0 -18 -9 -30 -20 -23 -22 -29 -50 -11 -50 5 0 8 4 4 9
-6 11 25 45 34 36 3 -4 -3 -11 -13 -17 -14 -8 -16 -12 -5 -19 16 -9 44 26 33
43 -4 6 -3 9 2 5 5 -3 20 1 34 9 14 7 22 13 18 14 -4 0 -3 11 2 25 10 27 2 33
-18 13 -7 -7 -12 -8 -12 -4 0 4 10 16 23 27 26 21 10 26 -19 5 -11 -9 -23 -11
-29 -6 -7 6 -23 3 -39 -5 -16 -8 -34 -15 -40 -15 -18 0 -58 45 -49 54 10 9
-46 -3 -67 -15 -9 -5 -1 -6 20 -3 25 5 32 4 25 -4 -6 -6 -22 -13 -35 -14 -21
-3 -25 1 -24 21 1 21 -1 22 -11 7 -12 -16 -35 -22 -35 -10 0 4 8 13 18 21 16
14 16 14 -3 8 -11 -4 -30 -10 -42 -12 -12 -3 -24 -11 -27 -19 -4 -11 -1 -12
14 -4 26 14 33 13 26 -6 -4 -12 -2 -15 9 -10 9 3 15 0 15 -9 0 -13 -52 -31
-77 -27 -6 2 -14 -2 -18 -8 -7 -12 -35 -14 -35 -2 0 11 70 33 82 26 4 -3 8 1
8 9 0 17 -44 11 -77 -10 -12 -8 -28 -11 -35 -7 -10 5 -11 4 0 -7 17 -18 15
-32 -3 -25 -8 3 -15 0 -15 -6 0 -7 -5 -6 -15 2 -13 11 -13 15 -3 21 10 7 8 9
-5 9 -14 0 -17 -5 -12 -21 6 -18 4 -20 -14 -14 -13 4 -21 2 -21 -5 0 -8 -9
-10 -25 -6 -20 5 -27 2 -37 -19 -11 -24 -28 -34 -28 -16 0 20 37 51 69 56 19
3 39 12 45 19 11 14 62 31 82 28 6 -1 23 9 38 23 27 25 27 26 11 52 -15 23
-16 25 -2 20 9 -3 19 -2 22 4 4 5 11 7 16 4 5 -4 9 -2 9 4 0 5 -5 13 -10 16
-6 4 -7 11 -4 17 4 6 -1 8 -15 3 -12 -3 -21 -2 -21 4 0 5 15 14 33 20 17 6 53
33 79 60 38 39 44 50 31 55 -9 4 -25 4 -37 0 -12 -4 -17 -3 -13 2 4 4 20 9 36
10 22 1 31 -4 40 -23 8 -17 17 -23 27 -19 9 3 20 6 25 6 6 0 8 4 5 9 -3 5 -16
7 -29 4 -21 -4 -21 -4 2 10 19 11 31 12 48 4 35 -16 27 -34 -18 -42 -26 -5
-37 -11 -31 -17 6 -6 24 -3 50 7 36 15 40 20 32 35 -15 28 -12 33 16 27 16 -3
28 0 31 9 3 8 22 18 43 24 29 8 38 15 35 28 -2 12 4 18 18 20 12 0 23 6 25 11
2 5 9 8 16 5 8 -3 30 2 51 10 26 11 35 12 33 3 -3 -6 -23 -17 -45 -22 -48 -12
-67 -25 -32 -22 13 1 24 -2 24 -8 0 -5 -8 -9 -19 -7 -16 2 -17 0 -5 -14 12
-15 11 -16 -8 -10 -12 4 -24 2 -27 -3 -8 -12 35 -11 51 2 7 5 20 7 28 3 8 -3
15 -1 15 3 0 5 -6 12 -12 14 -7 3 2 4 20 2 22 -2 30 0 26 7 -5 7 -1 9 9 5 18
-7 77 10 77 22 0 4 18 13 41 20 32 10 38 15 29 26 -9 11 -15 10 -31 -6 -20
-20 -49 -26 -49 -9 0 5 -8 6 -17 3 -13 -5 -15 -2 -10 11 6 16 3 17 -19 12 -17
-5 -23 -3 -19 4 3 5 1 10 -5 10 -7 0 -10 -7 -6 -15 4 -12 0 -14 -19 -9 -16 4
-25 2 -25 -6 0 -7 -7 -10 -15 -7 -8 4 -17 2 -21 -4 -3 -5 -13 -8 -22 -5 -22 7
-77 -25 -77 -44 0 -9 -12 -16 -30 -18 -16 -2 -32 -7 -35 -12 -3 -4 -15 -10
-27 -14 -18 -6 -22 -4 -17 8 4 11 0 16 -11 16 -12 0 -15 -5 -10 -20 3 -11 2
-20 -3 -20 -6 0 -12 5 -14 12 -3 8 -11 7 -28 -5 -24 -17 -50 -8 -50 17 0 7 3
6 8 -2 7 -10 16 -9 45 3 43 18 47 31 12 37 -19 4 -25 1 -23 -10 2 -8 -4 -17
-12 -19 -11 -3 -11 -2 -3 4 7 5 9 14 4 22 -7 11 -10 11 -17 -2 -8 -13 -12 -14
-28 -1 -11 7 -16 17 -12 21 4 4 11 1 15 -6 5 -8 14 -10 21 -6 9 6 9 9 -1 16
-11 7 -12 10 -1 21 11 11 13 10 10 -1 -2 -7 3 -16 11 -19 10 -3 12 0 8 12 -5
12 -1 16 15 16 17 0 19 -3 10 -12 -19 -19 -14 -27 14 -22 14 3 23 1 20 -5 -3
-5 5 -16 19 -25 30 -20 35 -20 35 -1 0 9 -9 15 -23 15 -14 0 -24 6 -24 15 0 8
4 15 9 15 4 0 8 -4 8 -10 0 -5 7 -10 15 -10 9 0 12 6 9 15 -4 8 -1 15 6 15 6
0 8 -5 4 -12 -4 -7 2 -5 14 6 12 10 19 23 15 29 -4 6 -9 3 -13 -8 -5 -13 -9
-15 -14 -7 -4 7 -12 10 -17 7 -5 -4 -9 3 -9 14 0 11 5 23 12 27 7 4 8 3 4 -4
-13 -21 6 -37 20 -18 13 18 40 13 29 -5 -11 -17 15 -9 36 12 11 11 24 18 27
14 4 -4 -2 -12 -12 -19 -11 -6 -27 -18 -36 -27 -9 -8 -27 -23 -40 -32 -14 -9
-20 -18 -15 -18 43 -6 55 -5 55 3 0 6 -8 7 -17 4 -9 -4 0 9 21 29 36 34 65 47
50 23 -4 -6 -3 -8 4 -4 6 3 9 15 7 25 -3 15 2 19 20 18 13 -1 23 3 22 8 -1 6
-18 8 -37 7 -37 -4 -38 6 -1 13 11 2 26 7 31 10 6 3 10 2 10 -3 0 -16 29 -22
42 -9 7 7 20 12 28 13 8 1 30 4 49 9 26 5 32 4 29 -6 -3 -8 -11 -14 -19 -14
-8 0 -20 -4 -26 -8 -7 -5 -18 -5 -23 -2 -12 8 -40 -12 -40 -27 0 -7 4 -7 13 0
6 6 15 10 20 11 4 0 28 3 53 7 37 5 44 10 38 23 -3 9 -9 24 -11 34 -6 21 -46
23 -63 2 -7 -8 -18 -15 -24 -15 -6 0 -4 5 4 10 13 8 12 10 -2 10 -10 0 -18 -4
-18 -8 0 -5 -7 -17 -16 -28 -13 -16 -15 -16 -10 -1 3 11 0 17 -10 17 -25 0
-12 32 22 50 17 10 43 16 57 15 15 -2 30 1 33 7 3 5 9 7 12 3 4 -3 0 -10 -8
-15z m-764 -441 c37 -10 48 -9 70 6 30 20 36 16 38 -25 1 -20 5 -29 14 -25 6
2 12 -3 12 -11 0 -11 -6 -13 -20 -9 -11 3 -20 2 -20 -4 0 -11 -17 -17 -67 -26
-21 -3 -33 -1 -33 6 0 6 9 9 20 6 11 -3 20 -1 20 5 0 5 4 7 9 3 5 -3 16 1 24
9 8 8 17 12 21 9 3 -4 6 1 6 10 0 20 -26 23 -33 5 -3 -10 -7 -10 -20 0 -13 11
-20 11 -44 -2 l-28 -16 30 5 c28 5 28 5 6 -5 -17 -7 -22 -16 -18 -30 3 -11 1
-18 -3 -15 -14 9 -40 -6 -40 -23 0 -13 3 -12 20 3 30 27 24 8 -7 -26 -16 -16
-34 -29 -42 -29 -8 0 -23 -8 -33 -17 -17 -15 -20 -15 -34 -1 -15 14 -14 18 6
38 12 12 25 19 28 15 4 -3 0 -10 -8 -15 -13 -8 -13 -10 1 -10 9 0 19 9 22 20
3 11 12 20 21 20 9 0 16 6 16 14 0 16 -53 31 -71 20 -8 -4 -9 -3 -5 4 4 7 20
12 37 12 32 0 37 7 14 24 -13 9 -11 11 9 12 18 1 23 -2 19 -15 -3 -11 2 -9 15
7 11 12 27 22 36 22 25 0 18 17 -9 22 -14 3 -25 2 -25 -2 0 -13 -33 -21 -43
-11 -5 5 -1 12 13 16 18 6 20 9 9 17 -11 7 -9 8 5 4 10 -4 38 -11 62 -17z
m-166 -159 c0 -5 -10 -15 -22 -21 -29 -16 -48 -35 -48 -48 0 -17 9 -13 34 14
17 18 25 22 34 13 18 -18 14 -31 -8 -25 -18 5 -49 -18 -38 -29 6 -6 60 17 69
29 4 5 9 5 13 -1 3 -5 -3 -17 -14 -27 -15 -14 -20 -15 -20 -4 0 12 -2 12 -9 0
-5 -8 -19 -16 -31 -18 -12 -2 -19 1 -15 7 3 5 -1 10 -10 10 -9 0 -13 -4 -10
-10 3 -5 -5 -15 -19 -22 -14 -6 -26 -15 -26 -19 0 -9 -81 -51 -87 -45 -3 3 6
11 21 17 14 7 26 16 26 21 0 4 7 8 15 8 8 0 15 5 15 10 0 16 -14 12 -50 -15
-19 -14 -42 -25 -51 -25 -10 0 -19 -6 -21 -12 -3 -9 -9 -8 -21 4 -13 12 -14
18 -4 25 24 20 65 26 60 11 -5 -14 16 -8 37 9 14 13 16 19 7 25 -8 5 -5 8 8 8
11 0 27 -4 35 -10 15 -10 40 4 40 23 0 7 -4 7 -12 -1 -7 -7 -19 -12 -27 -12
-11 0 -12 3 -4 11 6 6 23 12 36 12 18 0 24 4 20 13 -6 17 -3 18 -63 -6 -44
-17 -50 -18 -50 -4 0 10 6 14 14 11 8 -3 20 1 26 9 7 8 20 14 30 14 22 0 100
41 100 52 0 4 5 8 10 8 6 0 10 -4 10 -10z m150 -171 c0 -9 -14 -13 -37 -10 -6
1 -14 -3 -18 -8 -3 -6 -12 -8 -20 -5 -8 3 -22 -2 -31 -11 -12 -12 -19 -13 -24
-5 -5 9 -9 9 -14 1 -4 -6 -1 -11 6 -11 10 0 10 -2 -1 -9 -9 -6 -10 -11 -2 -15
6 -4 11 -3 11 3 0 9 38 27 52 23 3 -1 12 5 18 13 16 19 31 19 24 1 -3 -8 -18
-18 -34 -21 -16 -3 -35 -13 -42 -22 -11 -14 -10 -15 12 -8 20 6 23 5 13 -6 -7
-7 -18 -14 -25 -16 -7 -1 -25 -5 -40 -9 -18 -4 -28 -2 -28 5 0 6 7 11 15 11 8
0 15 5 15 11 0 6 -9 8 -20 4 -11 -3 -20 -2 -20 3 0 5 9 12 21 15 12 3 18 10
14 16 -4 8 -12 8 -25 1 -24 -13 -33 -13 -25 0 13 21 -8 9 -27 -15 -11 -14 -26
-25 -34 -25 -8 0 -14 -9 -14 -19 0 -11 -4 -23 -10 -26 -25 -16 -6 -22 23 -8
17 9 40 20 50 25 11 5 22 6 25 3 9 -8 -28 -36 -39 -30 -4 3 -23 -4 -42 -15
-24 -14 -41 -18 -56 -12 l-22 8 21 22 c11 12 26 22 33 22 8 0 8 3 -2 9 -17 11
-5 31 19 31 10 0 22 5 25 10 3 6 1 10 -5 10 -6 0 -8 5 -5 10 3 6 15 10 26 10
10 0 28 9 39 20 11 11 26 20 33 20 7 -1 5 -6 -5 -14 -28 -21 -21 -24 21 -13
22 6 37 15 34 20 -3 4 11 5 31 2 20 -4 36 -3 36 1 0 5 11 10 25 10 14 1 25 -2
25 -7z m234 -24 c6 -24 36 -36 36 -15 0 6 8 10 18 10 15 -1 15 -2 -2 -15 -11
-8 -17 -18 -13 -22 4 -3 15 1 24 9 10 8 30 18 45 22 14 3 34 9 45 13 16 6 17
5 3 -12 -9 -11 -10 -16 -2 -11 8 5 12 1 12 -13 0 -10 -6 -21 -12 -24 -7 -2 -9
-8 -5 -13 4 -4 19 4 33 19 29 32 30 32 38 10 4 -10 4 -14 0 -10 -9 9 -66 -32
-59 -43 3 -5 -9 -20 -27 -35 -33 -26 -30 -27 27 -11 11 3 25 17 32 31 6 14 7
23 2 19 -5 -3 -9 -1 -9 4 0 11 89 46 97 38 3 -3 -11 -13 -30 -22 -20 -10 -34
-21 -31 -26 3 -4 0 -8 -6 -8 -7 0 -9 -7 -6 -16 4 -10 0 -18 -13 -21 -13 -3
-18 -10 -13 -21 5 -15 3 -15 -11 -4 -11 9 -27 11 -48 7 -27 -6 -30 -9 -15 -17
11 -6 22 -6 32 2 8 7 14 8 14 2 0 -5 -6 -15 -14 -21 -11 -10 -19 -9 -34 5 -23
20 -18 51 10 60 11 3 17 8 14 11 -3 4 -1 12 6 20 6 7 8 16 4 20 -3 3 -6 1 -6
-5 0 -7 -5 -12 -11 -12 -8 0 -8 5 1 15 7 8 9 15 4 15 -4 0 1 7 12 16 19 15 18
15 -3 11 -13 -3 -23 -1 -23 5 0 13 -43 -2 -56 -20 -6 -8 -16 -12 -22 -8 -7 4
-12 3 -12 -2 0 -5 -6 -9 -12 -9 -7 0 -20 -4 -28 -7 -9 -4 -24 0 -34 7 -17 12
-17 14 0 28 16 12 17 12 11 -3 -4 -12 -1 -16 13 -13 11 2 28 9 37 15 15 8 13
9 -9 4 -22 -5 -28 -3 -28 10 0 9 -7 19 -16 23 -15 6 -15 8 2 20 25 18 31 17
38 -12z m449 11 c4 -11 18 -14 49 -11 42 4 42 3 21 -12 -13 -8 -23 -21 -23
-29 0 -7 -9 -16 -20 -19 -11 -4 -18 -10 -15 -15 6 -10 56 12 52 24 -5 14 52
65 80 72 18 5 24 3 19 -5 -4 -6 -13 -11 -20 -11 -14 0 -56 -33 -56 -44 0 -4 6
-4 13 0 10 6 10 4 0 -7 -15 -15 -17 -29 -4 -29 5 0 14 14 21 30 11 27 21 35
35 28 2 -2 10 4 17 13 19 24 48 32 48 13 0 -9 -6 -14 -13 -11 -15 6 -59 -27
-49 -37 3 -4 -2 -4 -13 0 -11 4 -17 4 -13 -1 8 -9 -45 -65 -61 -65 -7 0 -16
-11 -21 -25 -5 -14 -16 -25 -24 -25 -8 0 -16 -5 -18 -12 -3 -8 -9 -8 -24 0
-16 9 -16 11 -3 12 9 0 19 7 23 15 7 19 -32 41 -47 26 -7 -7 -3 -13 14 -20 24
-10 24 -10 2 -10 -26 -1 -29 -11 -10 -30 6 -8 -3 -3 -20 9 -38 27 -42 47 -11
52 12 2 23 9 26 17 3 9 0 11 -8 6 -7 -5 -29 -9 -49 -11 -20 -2 -29 0 -21 3 8
4 21 13 28 22 12 14 13 14 8 -1 -3 -10 -1 -18 4 -18 6 0 10 5 10 11 0 6 8 18
17 27 16 16 16 16 10 0 -4 -12 -2 -18 8 -18 8 0 20 -9 28 -20 8 -11 17 -17 22
-12 5 4 5 1 1 -5 -4 -7 -2 -13 4 -13 6 0 8 -6 4 -12 -4 -8 -3 -10 2 -5 5 5 9
14 9 20 0 7 14 18 30 26 24 12 26 16 12 19 -10 2 -24 -1 -31 -7 -17 -14 -66 5
-66 26 0 7 -7 16 -15 19 -24 9 -17 24 10 24 14 0 25 5 25 10 0 6 -4 10 -10 10
-5 0 -10 5 -10 10 0 15 17 12 23 -4z m-643 -36 c0 -5 -6 -10 -14 -10 -8 0 -18
-5 -22 -12 -5 -7 0 -9 14 -6 11 3 23 1 25 -6 3 -7 -5 -13 -16 -14 -12 0 -23
-6 -25 -12 -2 -5 -10 -10 -18 -10 -8 0 -14 -4 -14 -10 0 -5 7 -10 15 -10 8 0
15 4 15 9 0 8 89 37 103 33 4 -1 7 4 7 11 0 6 11 12 26 12 25 0 25 0 5 -17
-24 -19 -28 -43 -6 -34 8 3 15 1 15 -4 0 -6 -9 -10 -19 -10 -17 0 -19 -5 -14
-34 5 -32 -10 -57 -25 -41 -3 3 0 10 8 15 13 9 13 10 0 10 -12 0 -12 2 -2 9
11 6 10 10 -3 15 -11 4 -23 0 -31 -11 -8 -11 -13 -13 -14 -5 0 6 -4 12 -10 12
-19 0 -10 -17 15 -28 29 -13 33 -30 8 -28 -10 0 -17 -5 -15 -11 2 -15 -7 -16
-27 -4 -11 7 -10 11 5 19 10 6 16 13 13 16 -10 11 -38 -5 -44 -25 -4 -10 -16
-24 -27 -30 -17 -9 -18 -13 -7 -20 8 -5 9 -9 3 -9 -6 0 -17 6 -23 14 -9 11 -6
15 16 21 26 7 26 8 8 15 -29 12 -64 12 -46 1 11 -7 8 -12 -12 -26 -14 -9 -32
-18 -39 -19 -7 -1 -28 -12 -47 -24 -19 -11 -52 -24 -73 -27 -21 -4 -36 -10
-33 -15 3 -4 -7 -11 -21 -14 -40 -11 -76 -58 -54 -71 6 -4 10 -2 10 3 0 6 6 9
13 9 6 -1 44 14 82 32 72 34 125 44 132 25 5 -14 -59 -48 -78 -42 -9 3 -1 11
21 22 55 25 -6 11 -67 -16 -26 -12 -51 -21 -55 -20 -5 1 -8 -2 -8 -7 0 -5 -18
-12 -40 -16 -22 -4 -38 -11 -35 -16 4 -5 -1 -6 -10 -3 -9 4 -26 -4 -41 -19
-14 -15 -36 -29 -48 -33 -20 -7 -20 -8 4 -14 22 -7 23 -8 6 -15 -12 -5 -21 -3
-27 6 -15 25 -10 35 26 49 19 8 35 19 35 26 0 7 13 15 29 19 35 7 51 45 19 45
-14 0 -18 -5 -14 -15 3 -9 0 -15 -9 -15 -30 0 -14 31 23 46 20 8 53 23 72 33
19 10 47 21 63 25 28 7 35 20 17 31 -5 3 -10 2 -10 -3 0 -13 -69 -32 -76 -21
-5 9 10 18 38 23 7 1 41 16 75 33 34 17 65 28 68 24 4 -3 5 0 3 8 -2 7 2 15 9
18 6 2 10 -4 9 -14 -2 -11 -16 -21 -40 -27 -25 -7 -35 -14 -31 -24 3 -9 -1
-12 -15 -7 -15 5 -18 3 -14 -9 7 -19 9 -19 35 -5 11 5 16 15 13 21 -4 7 -3 8
4 4 6 -4 23 1 37 10 14 9 25 13 25 10 0 -4 5 -4 11 0 8 5 8 8 0 13 -7 4 5 16
29 30 22 12 40 26 40 32 0 5 7 9 15 9 9 0 12 -6 9 -15 -9 -24 11 -17 25 8 7
13 22 23 37 23 26 2 54 20 54 35 0 15 -27 10 -40 -6 -7 -9 -18 -14 -24 -12 -6
3 -20 -1 -31 -6 -11 -6 -36 -12 -55 -13 -33 -3 -34 -2 -16 12 19 13 19 14 -6
14 -37 0 -88 -20 -88 -35 0 -15 -55 -39 -69 -30 -6 3 -11 -1 -11 -10 0 -10 5
-13 12 -9 7 4 8 3 4 -4 -12 -19 -36 -14 -29 6 6 15 5 15 -10 3 -10 -8 -21 -11
-24 -7 -4 4 -1 11 7 16 13 8 12 10 -3 10 -23 0 -14 16 14 23 15 4 19 2 15 -9
-4 -10 1 -13 17 -10 33 7 33 7 12 16 -16 7 -17 9 -3 9 9 1 22 9 28 19 8 12 13
13 16 5 4 -9 12 -8 30 4 14 8 27 13 31 10 10 -10 48 22 48 40 0 10 8 19 18 21
13 3 17 -2 15 -14 -2 -11 4 -20 15 -22 9 -2 17 1 17 7 0 6 -5 11 -12 11 -6 0
-1 9 12 20 25 22 40 26 40 10z m120 -180 c-8 -5 -6 -11 5 -20 13 -11 18 -10
29 5 15 21 59 14 89 -13 20 -18 77 -26 77 -10 0 5 8 7 19 3 12 -3 21 0 25 10
3 9 10 13 16 10 5 -3 10 1 10 9 0 8 -8 16 -17 19 -10 2 -1 4 19 3 21 0 34 -2
30 -5 -5 -4 -11 -14 -15 -23 -3 -10 -13 -18 -22 -18 -8 0 -15 -4 -15 -9 0 -9
-56 -25 -78 -22 -28 4 -80 -21 -112 -54 -36 -37 -50 -43 -50 -22 0 7 14 21 30
31 17 9 27 22 24 28 -4 6 -10 5 -15 -3 -7 -12 -9 -12 -9 0 0 8 -3 11 -7 7 -5
-4 -8 -13 -8 -19 0 -5 -5 -12 -10 -14 -6 -2 -11 6 -11 17 0 11 4 20 9 20 4 0
6 4 3 9 -3 4 6 6 19 3 14 -2 28 -8 30 -13 3 -4 12 -6 20 -3 8 4 13 10 10 14
-3 5 6 7 20 4 25 -4 25 -4 8 15 -18 18 -18 18 -37 -3 l-19 -21 6 26 c5 19 3
26 -8 26 -8 0 -16 -6 -19 -14 -3 -7 -12 -13 -19 -13 -8 0 -20 -7 -27 -15 -7
-8 -18 -14 -24 -13 -15 2 -66 -23 -66 -34 0 -11 41 -10 60 2 9 6 17 5 22 -3
13 -21 9 -47 -8 -47 -11 0 -14 6 -9 23 6 17 5 19 -5 10 -7 -6 -19 -9 -28 -6
-8 4 -21 -2 -30 -13 -9 -12 -16 -15 -19 -8 -2 7 -13 10 -24 7 -13 -4 -19 -1
-17 8 2 8 -3 14 -9 13 -7 -1 -20 -2 -28 -2 -8 -1 -15 -9 -15 -17 0 -9 -12 -20
-27 -27 -16 -6 -44 -18 -63 -26 -36 -16 -98 -25 -83 -13 4 4 43 18 86 32 75
23 106 44 48 33 -24 -5 -30 -2 -36 15 -3 12 -11 19 -16 16 -5 -4 -9 -2 -9 3 0
5 13 9 29 9 42 0 88 22 94 44 5 20 27 27 27 9 0 -5 -5 -10 -12 -10 -6 0 -8 -3
-5 -6 4 -4 18 1 32 10 15 10 32 15 38 13 7 -2 0 -10 -15 -17 -16 -7 -28 -17
-28 -23 0 -5 -7 -6 -16 -3 -8 3 -22 0 -30 -8 -7 -8 -19 -16 -26 -19 -7 -2 -11
-7 -8 -10 3 -4 18 0 33 8 15 8 30 14 32 15 44 6 65 15 65 27 0 11 4 11 20 3
16 -9 20 -8 20 5 0 8 5 15 10 15 6 0 10 -5 10 -11 0 -5 5 -7 11 -3 8 5 7 9 -1
14 -10 6 -10 9 1 13 8 2 6 3 -3 2 -9 -2 -19 4 -22 12 -4 11 -2 13 9 9 9 -3 15
0 15 9 0 9 6 12 16 8 11 -4 12 -8 4 -13z"/>
<path d="M3191 2446 c3 -53 8 -99 11 -101 3 -3 26 -9 52 -14 l48 -9 -4 94 c-2
52 -8 98 -14 104 -5 5 -30 13 -55 16 l-44 6 6 -96z"/>
<path d="M2287 4995 c-21 -19 -43 -35 -50 -35 -8 0 -8 3 1 12 19 19 14 26 -13
20 -14 -2 -25 -7 -25 -11 0 -10 -93 -76 -102 -73 -5 1 -8 -7 -8 -17 0 -10 -7
-21 -15 -25 -8 -3 -15 -11 -15 -18 0 -9 3 -9 10 2 7 11 9 5 6 -23 -3 -21 -1
-35 5 -32 5 4 12 -1 15 -9 8 -21 64 -35 112 -29 35 5 212 -10 273 -23 42 -8
147 -6 167 5 13 7 22 7 30 -1 7 -7 24 -7 59 0 40 10 124 20 171 22 6 0 12 8
12 18 0 21 -23 33 -124 68 -38 13 -87 34 -110 47 -23 13 -76 36 -119 51 -42
16 -80 32 -83 37 -3 5 -21 9 -39 9 -19 0 -49 9 -67 20 -43 26 -47 26 -91 -15z"/>
<path d="M5790 4649 c-47 -16 -94 -33 -105 -38 -26 -12 -60 -21 -109 -27 -35
-5 -38 -4 -27 10 19 23 -8 21 -56 -3 -56 -28 -83 -35 -83 -20 0 7 -3 9 -6 6
-4 -4 -1 -13 6 -22 10 -12 35 -15 111 -15 97 0 101 1 149 34 27 19 80 44 117
57 38 12 82 28 98 35 54 24 -5 13 -95 -17z"/>
<path d="M3860 3940 c-49 -15 -187 -89 -236 -127 -28 -21 -66 -56 -85 -78 -19
-22 -53 -60 -75 -85 -60 -65 -87 -100 -113 -145 -16 -27 28 13 135 122 156
158 216 207 342 273 34 18 62 37 62 41 0 5 -1 9 -2 8 -2 0 -14 -4 -28 -9z"/>
</g>
</svg>
